NotoSerifKhmer-CondensedLight.ufo
<glyph name="guillemotleft" format="2">
  <advance width="359"/>
  <unicode hex="00AB"/>
  <outline>
    <contour>
      <point x="293" y="91" type="line"/>
      <point x="306" y="91" type="line"/>
      <point x="222" y="270" type="line"/>
      <point x="306" y="449" type="line"/>
      <point x="293" y="449" type="line"/>
      <point x="177" y="275" type="line"/>
      <point x="177" y="265" type="line"/>
    </contour>
    <contour>
      <point x="178" y="91" type="line"/>
      <point x="192" y="91" type="line"/>
      <point x="107" y="270" type="line"/>
      <point x="192" y="449" type="line"/>
      <point x="178" y="449" type="line"/>
      <point x="63" y="275" type="line"/>
      <point x="63" y="265" type="line"/>
    </contour>
  </outline>
</glyph>
<glyph name="uni00AD" format="2">
  <advance width="310"/>
  <unicode hex="00AD"/>
  <outline>
    <contour>
      <point x="20" y="259" type="line"/>
      <point x="216" y="259" type="line"/>
      <point x="216" y="287" type="line"/>
      <point x="20" y="287" type="line"/>
    </contour>
  </outline>
</glyph>
<glyph name="uni1781" format="2">
  <advance width="560"/>
  <unicode hex="1781"/>
  <note>
uni1781
</note>
  <anchor x="277" y="760" name="abvm"/>
  <anchor x="278" y="0" name="blwm"/>
  <outline>
    <contour>
      <point x="110" y="512" type="line"/>
      <point x="136" y="512" type="line"/>
      <point x="136" y="549" type="line" smooth="yes"/>
      <point x="136" y="602"/>
      <point x="207" y="656"/>
      <point x="280" y="656" type="curve" smooth="yes"/>
      <point x="350" y="656"/>
      <point x="424" y="604"/>
      <point x="424" y="549" type="curve" smooth="yes"/>
      <point x="424" y="463" type="line" smooth="yes"/>
      <point x="424" y="437"/>
      <point x="368" y="392"/>
      <point x="280" y="338" type="curve" smooth="yes"/>
      <point x="110" y="235" type="line"/>
      <point x="110" y="125" type="line" smooth="yes"/>
      <point x="110" y="63"/>
      <point x="198" y="0"/>
      <point x="280" y="0" type="curve" smooth="yes"/>
      <point x="362" y="0"/>
      <point x="450" y="61"/>
      <point x="450" y="125" type="curve" smooth="yes"/>
      <point x="450" y="287" type="line"/>
      <point x="424" y="272" type="line"/>
      <point x="424" y="129" type="line" smooth="yes"/>
      <point x="424" y="76"/>
      <point x="350" y="26"/>
      <point x="280" y="26" type="curve" smooth="yes"/>
      <point x="210" y="26"/>
      <point x="136" y="75"/>
      <point x="136" y="129" type="curve" smooth="yes"/>
      <point x="136" y="219" type="line"/>
      <point x="326" y="333" type="line" smooth="yes"/>
      <point x="401" y="378"/>
      <point x="450" y="421"/>
      <point x="450" y="476" type="curve" smooth="yes"/>
      <point x="450" y="556" type="line" smooth="yes"/>
      <point x="450" y="620"/>
      <point x="362" y="682"/>
      <point x="280" y="682" type="curve" smooth="yes"/>
      <point x="200" y="682"/>
      <point x="110" y="620"/>
      <point x="110" y="556" type="curve" smooth="yes"/>
    </contour>
    <contour>
      <point x="136" y="536" type="line"/>
      <point x="110" y="536" type="line"/>
      <point x="110" y="397" type="line" smooth="yes"/>
      <point x="110" y="377"/>
      <point x="124" y="372"/>
      <point x="136" y="372" type="curve" smooth="yes"/>
      <point x="163" y="372"/>
      <point x="202" y="401"/>
      <point x="202" y="452" type="curve" smooth="yes"/>
      <point x="202" y="502"/>
      <point x="164" y="528"/>
      <point x="136" y="528" type="curve"/>
    </contour>
    <contour>
      <point x="136" y="502" type="line"/>
      <point x="151" y="502"/>
      <point x="176" y="487"/>
      <point x="176" y="453" type="curve" smooth="yes"/>
      <point x="176" y="428"/>
      <point x="162" y="400"/>
      <point x="136" y="398" type="curve"/>
    </contour>
  </outline>
</glyph>
<glyph name="uni1782" format="2">
  <advance width="552"/>
  <unicode hex="1782"/>
  <note>
uni1782
</note>
  <anchor x="271" y="760" name="abvm"/>
  <anchor x="271" y="728" name="abvm_high"/>
  <anchor x="271" y="0" name="blwm"/>
  <outline>
    <contour>
      <point x="137" y="321" type="line" smooth="yes"/>
      <point x="137" y="381"/>
      <point x="188" y="433"/>
      <point x="271" y="433" type="curve" smooth="yes"/>
      <point x="353" y="433"/>
      <point x="404" y="380"/>
      <point x="404" y="321" type="curve" smooth="yes"/>
      <point x="404" y="0" type="line"/>
      <point x="430" y="0" type="line"/>
      <point x="430" y="316" type="line" smooth="yes"/>
      <point x="430" y="398"/>
      <point x="378" y="459"/>
      <point x="271" y="459" type="curve" smooth="yes"/>
      <point x="166" y="459"/>
      <point x="111" y="400"/>
      <point x="111" y="316" type="curve" smooth="yes"/>
      <point x="111" y="0" type="line"/>
      <point x="137" y="0" type="line"/>
      <point x="137" y="53" type="line"/>
      <point x="226" y="176" type="line" smooth="yes"/>
      <point x="243" y="200"/>
      <point x="253" y="206"/>
      <point x="265" y="206" type="curve" smooth="yes"/>
      <point x="279" y="206"/>
      <point x="280" y="198"/>
      <point x="291" y="198" type="curve" smooth="yes"/>
      <point x="304" y="198"/>
      <point x="313" y="207"/>
      <point x="313" y="220" type="curve" smooth="yes"/>
      <point x="313" y="233"/>
      <point x="304" y="244"/>
      <point x="283" y="244" type="curve" smooth="yes"/>
      <point x="244" y="244"/>
      <point x="218" y="209"/>
      <point x="137" y="97" type="curve"/>
    </contour>
    <contour>
      <point x="120" y="491" type="line"/>
      <point x="83" y="539"/>
      <point x="77" y="554"/>
      <point x="77" y="562" type="curve" smooth="yes"/>
      <point x="77" y="578"/>
      <point x="95" y="602"/>
      <point x="112" y="621" type="curve" smooth="yes"/>
      <point x="130" y="641"/>
      <point x="149" y="660"/>
      <point x="162" y="660" type="curve" smooth="yes"/>
      <point x="172" y="660"/>
      <point x="186" y="641"/>
      <point x="207" y="613" type="curve" smooth="yes"/>
      <point x="229" y="584"/>
      <point x="245" y="566"/>
      <point x="265" y="566" type="curve" smooth="yes"/>
      <point x="279" y="566"/>
      <point x="296" y="574"/>
      <point x="326" y="608" type="curve" smooth="yes"/>
      <point x="351" y="636"/>
      <point x="365" y="660"/>
      <point x="373" y="660" type="curve" smooth="yes"/>
      <point x="388" y="660"/>
      <point x="455" y="545"/>
      <point x="480" y="545" type="curve" smooth="yes"/>
      <point x="488" y="545"/>
      <point x="498" y="552"/>
      <point x="498" y="569" type="curve"/>
      <point x="483" y="569"/>
      <point x="472" y="580"/>
      <point x="460" y="595" type="curve" smooth="yes"/>
      <point x="415" y="653" type="line" smooth="yes"/>
      <point x="398" y="674"/>
      <point x="388" y="686"/>
      <point x="376" y="686" type="curve" smooth="yes"/>
      <point x="361" y="686"/>
      <point x="353" y="678"/>
      <point x="311" y="630" type="curve" smooth="yes"/>
      <point x="287" y="602"/>
      <point x="272" y="592"/>
      <point x="265" y="592" type="curve" smooth="yes"/>
      <point x="255" y="592"/>
      <point x="243" y="608"/>
      <point x="220" y="639" type="curve" smooth="yes"/>
      <point x="192" y="676"/>
      <point x="179" y="686"/>
      <point x="163" y="686" type="curve" smooth="yes"/>
      <point x="155" y="686"/>
      <point x="134" y="685"/>
      <point x="90" y="635" type="curve" smooth="yes"/>
      <point x="50" y="589"/>
      <point x="50" y="573"/>
      <point x="50" y="562" type="curve" smooth="yes"/>
      <point x="50" y="549"/>
      <point x="57" y="532"/>
      <point x="101" y="473" type="curve"/>
    </contour>
  </outline>
</glyph>
<glyph name="uni1783" format="2">
  <advance width="843"/>
  <unicode hex="1783"/>
  <note>
uni1783
</note>
  <anchor x="561" y="760" name="abvm"/>
  <anchor x="555" y="0" name="blwm"/>
  <outline>
    <contour>
      <point x="719" y="388" type="line"/>
      <point x="693" y="388" type="line"/>
      <point x="693" y="133" type="line" smooth="yes"/>
      <point x="693" y="82"/>
      <point x="642" y="26"/>
      <point x="562" y="26" type="curve" smooth="yes"/>
      <point x="492" y="26"/>
      <point x="430" y="68"/>
      <point x="430" y="105" type="curve" smooth="yes"/>
      <point x="430" y="388" type="line"/>
      <point x="404" y="388" type="line"/>
      <point x="404" y="105" type="line" smooth="yes"/>
      <point x="404" y="68"/>
      <point x="343" y="26"/>
      <point x="273" y="26" type="curve" smooth="yes"/>
      <point x="193" y="26"/>
      <point x="142" y="82"/>
      <point x="142" y="133" type="curve" smooth="yes"/>
      <point x="142" y="388" type="line"/>
      <point x="116" y="388" type="line"/>
      <point x="116" y="126" type="line" smooth="yes"/>
      <point x="116" y="62"/>
      <point x="187" y="0"/>
      <point x="273" y="0" type="curve" smooth="yes"/>
      <point x="349" y="0"/>
      <point x="389" y="36"/>
      <point x="418" y="62" type="curve"/>
      <point x="450" y="32"/>
      <point x="486" y="0"/>
      <point x="562" y="0" type="curve" smooth="yes"/>
      <point x="648" y="0"/>
      <point x="719" y="62"/>
      <point x="719" y="126" type="curve" smooth="yes"/>
    </contour>
    <contour>
      <point x="430" y="370" type="line"/>
      <point x="430" y="445" type="line"/>
      <point x="352" y="536" type="line"/>
      <point x="417" y="641" type="line"/>
      <point x="429" y="631"/>
      <point x="462" y="587"/>
      <point x="492" y="587" type="curve" smooth="yes"/>
      <point x="504" y="587"/>
      <point x="514" y="595"/>
      <point x="514" y="612" type="curve"/>
      <point x="483" y="609"/>
      <point x="459" y="634"/>
      <point x="415" y="682" type="curve"/>
      <point x="339" y="568"/>
      <point x="325" y="547"/>
      <point x="325" y="538" type="curve" smooth="yes"/>
      <point x="325" y="528"/>
      <point x="333" y="513"/>
      <point x="404" y="435" type="curve"/>
      <point x="404" y="370" type="line"/>
    </contour>
    <contour>
      <point x="142" y="335" type="line"/>
      <point x="142" y="650" type="line" smooth="yes"/>
      <point x="142" y="656"/>
      <point x="142" y="672"/>
      <point x="116" y="672" type="curve" smooth="yes"/>
      <point x="74" y="672"/>
      <point x="20" y="629"/>
      <point x="20" y="558" type="curve" smooth="yes"/>
      <point x="20" y="486"/>
      <point x="77" y="458"/>
      <point x="116" y="461" type="curve"/>
      <point x="116" y="335" type="line"/>
    </contour>
    <contour>
      <point x="116" y="488" type="line"/>
      <point x="79" y="485"/>
      <point x="46" y="513"/>
      <point x="46" y="562" type="curve" smooth="yes"/>
      <point x="46" y="601"/>
      <point x="66" y="637"/>
      <point x="116" y="644" type="curve"/>
    </contour>
    <contour>
      <point x="719" y="370" type="line"/>
      <point x="719" y="445" type="line"/>
      <point x="641" y="536" type="line"/>
      <point x="706" y="641" type="line"/>
      <point x="718" y="631"/>
      <point x="751" y="587"/>
      <point x="781" y="587" type="curve" smooth="yes"/>
      <point x="793" y="587"/>
      <point x="803" y="595"/>
      <point x="803" y="612" type="curve"/>
      <point x="772" y="609"/>
      <point x="748" y="634"/>
      <point x="704" y="682" type="curve"/>
      <point x="628" y="568"/>
      <point x="614" y="547"/>
      <point x="614" y="538" type="curve" smooth="yes"/>
      <point x="614" y="528"/>
      <point x="622" y="513"/>
      <point x="693" y="435" type="curve"/>
      <point x="693" y="370" type="line"/>
    </contour>
  </outline>
</glyph>
<glyph name="uni1784" format="2">
  <advance width="604"/>
  <unicode hex="1784"/>
  <note>
uni1784
</note>
  <anchor x="291" y="840" name="abvm"/>
  <anchor x="304" y="0" name="blwm"/>
  <outline>
    <contour>
      <point x="142" y="0" type="line"/>
      <point x="174" y="0" type="line"/>
      <point x="312" y="154" type="line"/>
      <point x="448" y="0" type="line"/>
      <point x="480" y="0" type="line"/>
      <point x="480" y="391" type="line" smooth="yes"/>
      <point x="480" y="458"/>
      <point x="396" y="514"/>
      <point x="367" y="536" type="curve" smooth="yes"/>
      <point x="344" y="554"/>
      <point x="323" y="575"/>
      <point x="323" y="605" type="curve" smooth="yes"/>
      <point x="323" y="631"/>
      <point x="340" y="642"/>
      <point x="355" y="642" type="curve" smooth="yes"/>
      <point x="373" y="642"/>
      <point x="388" y="626"/>
      <point x="388" y="603" type="curve" smooth="yes"/>
      <point x="388" y="574"/>
      <point x="365" y="547"/>
      <point x="335" y="523" type="curve" smooth="yes"/>
      <point x="308" y="502"/>
      <point x="280" y="487"/>
      <point x="245" y="487" type="curve" smooth="yes"/>
      <point x="221" y="487"/>
      <point x="160" y="494"/>
      <point x="160" y="572" type="curve" smooth="yes"/>
      <point x="160" y="631"/>
      <point x="193" y="642"/>
      <point x="193" y="699" type="curve" smooth="yes"/>
      <point x="193" y="746"/>
      <point x="170" y="780"/>
      <point x="146" y="780" type="curve" smooth="yes"/>
      <point x="134" y="780"/>
      <point x="124" y="772"/>
      <point x="124" y="751" type="curve"/>
      <point x="151" y="748"/>
      <point x="167" y="726"/>
      <point x="167" y="691" type="curve" smooth="yes"/>
      <point x="167" y="643"/>
      <point x="134" y="625"/>
      <point x="134" y="566" type="curve" smooth="yes"/>
      <point x="134" y="487"/>
      <point x="193" y="461"/>
      <point x="247" y="461" type="curve" smooth="yes"/>
      <point x="281" y="461"/>
      <point x="316" y="472"/>
      <point x="361" y="511" type="curve" smooth="yes"/>
      <point x="389" y="535"/>
      <point x="414" y="563"/>
      <point x="414" y="604" type="curve" smooth="yes"/>
      <point x="414" y="639"/>
      <point x="396" y="668"/>
      <point x="358" y="668" type="curve" smooth="yes"/>
      <point x="318" y="668"/>
      <point x="297" y="636"/>
      <point x="297" y="603" type="curve" smooth="yes"/>
      <point x="297" y="570"/>
      <point x="317" y="546"/>
      <point x="342" y="523" type="curve" smooth="yes"/>
      <point x="382" y="487"/>
      <point x="454" y="448"/>
      <point x="454" y="387" type="curve" smooth="yes"/>
      <point x="454" y="30" type="line"/>
      <point x="312" y="189" type="line"/>
      <point x="168" y="29" type="line"/>
      <point x="168" y="193" type="line"/>
      <point x="142" y="193" type="line"/>
    </contour>
    <contour>
      <point x="168" y="183" type="line"/>
      <point x="168" y="373" type="line" smooth="yes"/>
      <point x="168" y="398"/>
      <point x="158" y="405"/>
      <point x="143" y="405" type="curve" smooth="yes"/>
      <point x="103" y="405"/>
      <point x="65" y="355"/>
      <point x="65" y="295" type="curve" smooth="yes"/>
      <point x="65" y="240"/>
      <point x="100" y="194"/>
      <point x="142" y="191" type="curve"/>
      <point x="142" y="183" type="line"/>
    </contour>
    <contour>
      <point x="142" y="217" type="line"/>
      <point x="123" y="217"/>
      <point x="91" y="242"/>
      <point x="91" y="292" type="curve" smooth="yes"/>
      <point x="91" y="342"/>
      <point x="123" y="378"/>
      <point x="142" y="378" type="curve"/>
    </contour>
  </outline>
</glyph>
<glyph name="uni1785" format="2">
  <advance width="554"/>
  <unicode hex="1785"/>
  <note>
uni1785
</note>
  <anchor x="270" y="760" name="abvm"/>
  <anchor x="270" y="0" name="blwm"/>
  <outline>
    <contour>
      <point x="432" y="227" type="line"/>
      <point x="406" y="227" type="line"/>
      <point x="406" y="136" type="line" smooth="yes"/>
      <point x="406" y="77"/>
      <point x="342" y="26"/>
      <point x="271" y="26" type="curve" smooth="yes"/>
      <point x="200" y="26"/>
      <point x="140" y="76"/>
      <point x="140" y="136" type="curve" smooth="yes"/>
      <point x="140" y="430" type="line"/>
      <point x="114" y="430" type="line"/>
      <point x="114" y="132" type="line" smooth="yes"/>
      <point x="114" y="54"/>
      <point x="193" y="0"/>
      <point x="270" y="0" type="curve" smooth="yes"/>
      <point x="353" y="0"/>
      <point x="432" y="62"/>
      <point x="432" y="132" type="curve" smooth="yes"/>
    </contour>
    <contour>
      <point x="432" y="219" type="line"/>
      <point x="432" y="409" type="line" smooth="yes"/>
      <point x="432" y="434"/>
      <point x="422" y="441"/>
      <point x="407" y="441" type="curve" smooth="yes"/>
      <point x="367" y="441"/>
      <point x="329" y="391"/>
      <point x="329" y="331" type="curve" smooth="yes"/>
      <point x="329" y="276"/>
      <point x="364" y="230"/>
      <point x="406" y="227" type="curve"/>
      <point x="406" y="219" type="line"/>
    </contour>
    <contour>
      <point x="406" y="253" type="line"/>
      <point x="387" y="253"/>
      <point x="355" y="278"/>
      <point x="355" y="328" type="curve" smooth="yes"/>
      <point x="355" y="378"/>
      <point x="387" y="414"/>
      <point x="406" y="414" type="curve"/>
    </contour>
    <contour>
      <point x="114" y="422" type="line"/>
      <point x="140" y="422" type="line"/>
      <point x="140" y="472" type="line"/>
      <point x="106" y="508"/>
      <point x="87" y="532"/>
      <point x="87" y="548" type="curve" smooth="yes"/>
      <point x="87" y="560"/>
      <point x="98" y="578"/>
      <point x="130" y="617" type="curve" smooth="yes"/>
      <point x="156" y="649"/>
      <point x="166" y="656"/>
      <point x="176" y="656" type="curve" smooth="yes"/>
      <point x="189" y="656"/>
      <point x="201" y="643"/>
      <point x="217" y="620" type="curve" smooth="yes"/>
      <point x="250" y="572"/>
      <point x="259" y="559"/>
      <point x="276" y="559" type="curve" smooth="yes"/>
      <point x="290" y="559"/>
      <point x="315" y="584"/>
      <point x="333" y="607" type="curve" smooth="yes"/>
      <point x="353" y="632"/>
      <point x="371" y="655"/>
      <point x="377" y="655" type="curve" smooth="yes"/>
      <point x="394" y="655"/>
      <point x="433" y="537"/>
      <point x="476" y="537" type="curve" smooth="yes"/>
      <point x="487" y="537"/>
      <point x="498" y="545"/>
      <point x="498" y="562" type="curve"/>
      <point x="472" y="564"/>
      <point x="456" y="586"/>
      <point x="447" y="601" type="curve" smooth="yes"/>
      <point x="420" y="647" type="line" smooth="yes"/>
      <point x="407" y="670"/>
      <point x="397" y="682"/>
      <point x="380" y="682" type="curve" smooth="yes"/>
      <point x="360" y="682"/>
      <point x="345" y="663"/>
      <point x="324" y="637" type="curve" smooth="yes"/>
      <point x="299" y="606"/>
      <point x="284" y="588"/>
      <point x="276" y="588" type="curve" smooth="yes"/>
      <point x="268" y="588"/>
      <point x="261" y="605"/>
      <point x="235" y="639" type="curve" smooth="yes"/>
      <point x="206" y="677"/>
      <point x="190" y="682"/>
      <point x="176" y="682" type="curve" smooth="yes"/>
      <point x="155" y="682"/>
      <point x="141" y="671"/>
      <point x="115" y="639" type="curve" smooth="yes"/>
      <point x="83" y="600"/>
      <point x="60" y="572"/>
      <point x="60" y="549" type="curve" smooth="yes"/>
      <point x="60" y="533"/>
      <point x="69" y="510"/>
      <point x="114" y="460" type="curve"/>
    </contour>
  </outline>
</glyph>
<glyph name="uni1786" format="2">
  <advance width="567"/>
  <unicode hex="1786"/>
  <note>
uni1786
</note>
  <anchor x="267" y="760" name="abvm"/>
  <anchor x="267" y="0" name="blwm"/>
  <outline>
    <contour>
      <point x="139" y="433" type="line"/>
      <point x="113" y="433" type="line"/>
      <point x="113" y="202" type="line"/>
      <point x="89" y="200"/>
      <point x="51" y="184"/>
      <point x="51" y="128" type="curve" smooth="yes"/>
      <point x="51" y="88"/>
      <point x="71" y="43"/>
      <point x="113" y="0" type="curve"/>
      <point x="139" y="0" type="line"/>
      <point x="139" y="176" type="line"/>
      <point x="180" y="173"/>
      <point x="212" y="150"/>
      <point x="244" y="104" type="curve" smooth="yes"/>
      <point x="278" y="56"/>
      <point x="302" y="0"/>
      <point x="356" y="0" type="curve" smooth="yes"/>
      <point x="412" y="0"/>
      <point x="451" y="62"/>
      <point x="451" y="151" type="curve" smooth="yes"/>
      <point x="451" y="207" type="line"/>
      <point x="425" y="207" type="line"/>
      <point x="425" y="151" type="line" smooth="yes"/>
      <point x="425" y="87"/>
      <point x="406" y="26"/>
      <point x="356" y="26" type="curve" smooth="yes"/>
      <point x="313" y="26"/>
      <point x="301" y="72"/>
      <point x="261" y="125" type="curve" smooth="yes"/>
      <point x="226" y="171"/>
      <point x="189" y="196"/>
      <point x="139" y="202" type="curve"/>
    </contour>
    <contour>
      <point x="113" y="35" type="line"/>
      <point x="94" y="60"/>
      <point x="77" y="91"/>
      <point x="77" y="123" type="curve" smooth="yes"/>
      <point x="77" y="157"/>
      <point x="96" y="173"/>
      <point x="113" y="176" type="curve"/>
    </contour>
    <contour>
      <point x="451" y="203" type="line"/>
      <point x="451" y="393" type="line" smooth="yes"/>
      <point x="451" y="418"/>
      <point x="441" y="425"/>
      <point x="426" y="425" type="curve" smooth="yes"/>
      <point x="386" y="425"/>
      <point x="348" y="375"/>
      <point x="348" y="315" type="curve" smooth="yes"/>
      <point x="348" y="260"/>
      <point x="383" y="214"/>
      <point x="425" y="211" type="curve"/>
      <point x="425" y="203" type="line"/>
    </contour>
    <contour>
      <point x="425" y="237" type="line"/>
      <point x="406" y="237"/>
      <point x="374" y="262"/>
      <point x="374" y="312" type="curve" smooth="yes"/>
      <point x="374" y="362"/>
      <point x="406" y="398"/>
      <point x="425" y="398" type="curve"/>
    </contour>
    <contour>
      <point x="113" y="422" type="line"/>
      <point x="139" y="422" type="line"/>
      <point x="139" y="472" type="line"/>
      <point x="105" y="508"/>
      <point x="86" y="532"/>
      <point x="86" y="548" type="curve" smooth="yes"/>
      <point x="86" y="560"/>
      <point x="97" y="578"/>
      <point x="129" y="617" type="curve" smooth="yes"/>
      <point x="155" y="649"/>
      <point x="165" y="656"/>
      <point x="175" y="656" type="curve" smooth="yes"/>
      <point x="188" y="656"/>
      <point x="200" y="643"/>
      <point x="216" y="620" type="curve" smooth="yes"/>
      <point x="249" y="572"/>
      <point x="258" y="559"/>
      <point x="275" y="559" type="curve" smooth="yes"/>
      <point x="289" y="559"/>
      <point x="314" y="584"/>
      <point x="332" y="607" type="curve" smooth="yes"/>
      <point x="352" y="632"/>
      <point x="370" y="655"/>
      <point x="376" y="655" type="curve" smooth="yes"/>
      <point x="393" y="655"/>
      <point x="432" y="537"/>
      <point x="475" y="537" type="curve" smooth="yes"/>
      <point x="486" y="537"/>
      <point x="497" y="545"/>
      <point x="497" y="562" type="curve"/>
      <point x="471" y="564"/>
      <point x="455" y="586"/>
      <point x="446" y="601" type="curve" smooth="yes"/>
      <point x="419" y="647" type="line" smooth="yes"/>
      <point x="406" y="670"/>
      <point x="396" y="682"/>
      <point x="379" y="682" type="curve" smooth="yes"/>
      <point x="359" y="682"/>
      <point x="344" y="663"/>
      <point x="323" y="637" type="curve" smooth="yes"/>
      <point x="298" y="606"/>
      <point x="283" y="588"/>
      <point x="275" y="588" type="curve" smooth="yes"/>
      <point x="267" y="588"/>
      <point x="260" y="605"/>
      <point x="234" y="639" type="curve" smooth="yes"/>
      <point x="205" y="677"/>
      <point x="189" y="682"/>
      <point x="175" y="682" type="curve" smooth="yes"/>
      <point x="154" y="682"/>
      <point x="140" y="671"/>
      <point x="114" y="639" type="curve" smooth="yes"/>
      <point x="82" y="600"/>
      <point x="59" y="572"/>
      <point x="59" y="549" type="curve" smooth="yes"/>
      <point x="59" y="533"/>
      <point x="68" y="510"/>
      <point x="113" y="460" type="curve"/>
    </contour>
  </outline>
</glyph>
<glyph name="uni1787" format="2">
  <advance width="573"/>
  <unicode hex="1787"/>
  <note>
uni1787
</note>
  <anchor x="280" y="860" name="abvm"/>
  <anchor x="280" y="830" name="abvm_high"/>
  <anchor x="280" y="0" name="blwm"/>
  <outline>
    <contour>
      <point x="136" y="455" type="line"/>
      <point x="110" y="455" type="line"/>
      <point x="110" y="0" type="line"/>
      <point x="142" y="0" type="line"/>
      <point x="280" y="155" type="line"/>
      <point x="418" y="0" type="line"/>
      <point x="450" y="0" type="line"/>
      <point x="450" y="428" type="line"/>
      <point x="424" y="428" type="line"/>
      <point x="424" y="33" type="line"/>
      <point x="280" y="189" type="line"/>
      <point x="136" y="33" type="line"/>
    </contour>
    <contour>
      <point x="136" y="445" type="line"/>
      <point x="136" y="470" type="line"/>
      <point x="104" y="506"/>
      <point x="83" y="532"/>
      <point x="83" y="550" type="curve" smooth="yes"/>
      <point x="83" y="557"/>
      <point x="86" y="574"/>
      <point x="122" y="614" type="curve" smooth="yes"/>
      <point x="151" y="647"/>
      <point x="166" y="656"/>
      <point x="176" y="656" type="curve" smooth="yes"/>
      <point x="194" y="656"/>
      <point x="202" y="627"/>
      <point x="239" y="586" type="curve" smooth="yes"/>
      <point x="281" y="541"/>
      <point x="319" y="521"/>
      <point x="355" y="521" type="curve" smooth="yes"/>
      <point x="408" y="521"/>
      <point x="467" y="565"/>
      <point x="467" y="643" type="curve" smooth="yes"/>
      <point x="467" y="728"/>
      <point x="393" y="761"/>
      <point x="344" y="761" type="curve" smooth="yes"/>
      <point x="312" y="761"/>
      <point x="307" y="748"/>
      <point x="312" y="726" type="curve"/>
      <point x="389" y="742"/>
      <point x="441" y="703"/>
      <point x="441" y="639" type="curve" smooth="yes"/>
      <point x="441" y="588"/>
      <point x="406" y="547"/>
      <point x="357" y="547" type="curve" smooth="yes"/>
      <point x="310" y="547"/>
      <point x="273" y="585"/>
      <point x="250" y="614" type="curve" smooth="yes"/>
      <point x="221" y="651"/>
      <point x="207" y="682"/>
      <point x="176" y="682" type="curve" smooth="yes"/>
      <point x="160" y="682"/>
      <point x="141" y="674"/>
      <point x="101" y="630" type="curve" smooth="yes"/>
      <point x="61" y="586"/>
      <point x="56" y="566"/>
      <point x="56" y="551" type="curve" smooth="yes"/>
      <point x="56" y="530"/>
      <point x="65" y="510"/>
      <point x="110" y="460" type="curve"/>
      <point x="110" y="445" type="line"/>
    </contour>
  </outline>
</glyph>
<glyph name="uni1788" format="2">
  <advance width="1134"/>
  <unicode hex="1788"/>
  <note>
uni1788
</note>
  <anchor x="827" y="760" name="abvm"/>
  <anchor x="851" y="0" name="blwm"/>
  <outline>
    <contour>
      <point x="110" y="295" type="line"/>
      <point x="136" y="295" type="line"/>
      <point x="136" y="454" type="line"/>
      <point x="84" y="499" type="line"/>
      <point x="119" y="565"/>
      <point x="176" y="656"/>
      <point x="250" y="656" type="curve" smooth="yes"/>
      <point x="292" y="656"/>
      <point x="334" y="626"/>
      <point x="360" y="594" type="curve" smooth="yes"/>
      <point x="380" y="570"/>
      <point x="406" y="520"/>
      <point x="406" y="463" type="curve" smooth="yes"/>
      <point x="406" y="142" type="line" smooth="yes"/>
      <point x="406" y="54"/>
      <point x="483" y="0"/>
      <point x="565" y="0" type="curve" smooth="yes"/>
      <point x="625" y="0"/>
      <point x="675" y="28"/>
      <point x="708" y="62" type="curve"/>
      <point x="740" y="26"/>
      <point x="789" y="0"/>
      <point x="848" y="0" type="curve" smooth="yes"/>
      <point x="931" y="0"/>
      <point x="1010" y="54"/>
      <point x="1010" y="142" type="curve" smooth="yes"/>
      <point x="1010" y="388" type="line"/>
      <point x="984" y="388" type="line"/>
      <point x="984" y="136" type="line" smooth="yes"/>
      <point x="984" y="76"/>
      <point x="915" y="26"/>
      <point x="852" y="26" type="curve" smooth="yes"/>
      <point x="799" y="26"/>
      <point x="720" y="60"/>
      <point x="720" y="107" type="curve" smooth="yes"/>
      <point x="720" y="388" type="line"/>
      <point x="694" y="388" type="line"/>
      <point x="694" y="107" type="line" smooth="yes"/>
      <point x="694" y="60"/>
      <point x="617" y="26"/>
      <point x="564" y="26" type="curve" smooth="yes"/>
      <point x="500" y="26"/>
      <point x="432" y="76"/>
      <point x="432" y="136" type="curve" smooth="yes"/>
      <point x="432" y="463" type="line" smooth="yes"/>
      <point x="432" y="529"/>
      <point x="402" y="582"/>
      <point x="380" y="610" type="curve" smooth="yes"/>
      <point x="356" y="641"/>
      <point x="311" y="682"/>
      <point x="252" y="682" type="curve" smooth="yes"/>
      <point x="201" y="682"/>
      <point x="154" y="651"/>
      <point x="107" y="586" type="curve" smooth="yes"/>
      <point x="88" y="560"/>
      <point x="59" y="517"/>
      <point x="59" y="498" type="curve" smooth="yes"/>
      <point x="59" y="489"/>
      <point x="69" y="480"/>
      <point x="110" y="442" type="curve"/>
    </contour>
    <contour>
      <point x="720" y="370" type="line"/>
      <point x="720" y="445" type="line"/>
      <point x="642" y="536" type="line"/>
      <point x="707" y="641" type="line"/>
      <point x="719" y="631"/>
      <point x="752" y="587"/>
      <point x="782" y="587" type="curve" smooth="yes"/>
      <point x="794" y="587"/>
      <point x="804" y="595"/>
      <point x="804" y="612" type="curve"/>
      <point x="773" y="609"/>
      <point x="749" y="634"/>
      <point x="705" y="682" type="curve"/>
      <point x="629" y="568"/>
      <point x="615" y="547"/>
      <point x="615" y="538" type="curve" smooth="yes"/>
      <point x="615" y="528"/>
      <point x="623" y="513"/>
      <point x="694" y="435" type="curve"/>
      <point x="694" y="370" type="line"/>
    </contour>
    <contour>
      <point x="110" y="316" type="line"/>
      <point x="110" y="0" type="line"/>
      <point x="136" y="0" type="line"/>
      <point x="188" y="44"/>
      <point x="216" y="102"/>
      <point x="216" y="147" type="curve" smooth="yes"/>
      <point x="216" y="194"/>
      <point x="184" y="227"/>
      <point x="136" y="225" type="curve"/>
      <point x="136" y="316" type="line"/>
    </contour>
    <contour>
      <point x="136" y="199" type="line"/>
      <point x="164" y="202"/>
      <point x="190" y="190"/>
      <point x="190" y="147" type="curve" smooth="yes"/>
      <point x="190" y="105"/>
      <point x="165" y="64"/>
      <point x="136" y="33" type="curve"/>
    </contour>
    <contour>
      <point x="1010" y="370" type="line"/>
      <point x="1010" y="445" type="line"/>
      <point x="932" y="536" type="line"/>
      <point x="997" y="641" type="line"/>
      <point x="1009" y="631"/>
      <point x="1042" y="587"/>
      <point x="1072" y="587" type="curve" smooth="yes"/>
      <point x="1084" y="587"/>
      <point x="1094" y="595"/>
      <point x="1094" y="612" type="curve"/>
      <point x="1063" y="609"/>
      <point x="1039" y="634"/>
      <point x="995" y="682" type="curve"/>
      <point x="919" y="568"/>
      <point x="905" y="547"/>
      <point x="905" y="538" type="curve" smooth="yes"/>
      <point x="905" y="528"/>
      <point x="913" y="513"/>
      <point x="984" y="435" type="curve"/>
      <point x="984" y="370" type="line"/>
    </contour>
  </outline>
</glyph>
<glyph name="uni178A" format="2">
  <advance width="574"/>
  <unicode hex="178A"/>
  <note>
uni178A
</note>
  <anchor x="280" y="840" name="abvm"/>
  <anchor x="257" y="750" name="abvm_high"/>
  <anchor x="280" y="0" name="blwm"/>
  <outline>
    <contour>
      <point x="110" y="440" type="line"/>
      <point x="110" y="0" type="line"/>
      <point x="142" y="0" type="line"/>
      <point x="280" y="155" type="line"/>
      <point x="418" y="0" type="line"/>
      <point x="450" y="0" type="line"/>
      <point x="450" y="436" type="line"/>
      <point x="424" y="436" type="line"/>
      <point x="424" y="29" type="line"/>
      <point x="280" y="189" type="line"/>
      <point x="136" y="29" type="line"/>
      <point x="136" y="428" type="line"/>
    </contour>
    <contour>
      <point x="237" y="555" type="curve" smooth="yes"/>
      <point x="237" y="524"/>
      <point x="219" y="502"/>
      <point x="199" y="484" type="curve"/>
      <point x="225" y="476" type="line"/>
      <point x="256" y="508"/>
      <point x="263" y="535"/>
      <point x="263" y="558" type="curve" smooth="yes"/>
      <point x="263" y="609"/>
      <point x="229" y="634"/>
      <point x="188" y="634" type="curve" smooth="yes"/>
      <point x="136" y="634"/>
      <point x="110" y="596"/>
      <point x="110" y="556" type="curve" smooth="yes"/>
      <point x="110" y="496"/>
      <point x="168" y="458"/>
      <point x="250" y="458" type="curve" smooth="yes"/>
      <point x="385" y="458"/>
      <point x="441" y="569"/>
      <point x="441" y="651" type="curve" smooth="yes"/>
      <point x="441" y="696"/>
      <point x="425" y="758"/>
      <point x="384" y="758" type="curve" smooth="yes"/>
      <point x="368" y="758"/>
      <point x="355" y="748"/>
      <point x="359" y="723" type="curve"/>
      <point x="389" y="734"/>
      <point x="415" y="703"/>
      <point x="415" y="645" type="curve" smooth="yes"/>
      <point x="415" y="549"/>
      <point x="345" y="484"/>
      <point x="251" y="484" type="curve" smooth="yes"/>
      <point x="201" y="484"/>
      <point x="136" y="503"/>
      <point x="136" y="554" type="curve" smooth="yes"/>
      <point x="136" y="583"/>
      <point x="157" y="608"/>
      <point x="188" y="608" type="curve" smooth="yes"/>
      <point x="216" y="608"/>
      <point x="237" y="589"/>
    </contour>
  </outline>
</glyph>
<glyph name="uni178E" format="2">
  <advance width="1129"/>
  <unicode hex="178E"/>
  <note>
uni178E
</note>
  <anchor x="561" y="760" name="abvm"/>
  <anchor x="561" y="0" name="blwm"/>
  <outline>
    <contour>
      <point x="116" y="307" type="line"/>
      <point x="142" y="307" type="line"/>
      <point x="142" y="454" type="line"/>
      <point x="86" y="499" type="line"/>
      <point x="121" y="560"/>
      <point x="177" y="656"/>
      <point x="246" y="656" type="curve" smooth="yes"/>
      <point x="320" y="656"/>
      <point x="406" y="548"/>
      <point x="406" y="463" type="curve" smooth="yes"/>
      <point x="406" y="0" type="line"/>
      <point x="437" y="0" type="line"/>
      <point x="561" y="145" type="line"/>
      <point x="686" y="0" type="line"/>
      <point x="717" y="0" type="line"/>
      <point x="717" y="454" type="line"/>
      <point x="661" y="499" type="line"/>
      <point x="695" y="560"/>
      <point x="752" y="656"/>
      <point x="821" y="656" type="curve" smooth="yes"/>
      <point x="895" y="656"/>
      <point x="981" y="548"/>
      <point x="981" y="463" type="curve" smooth="yes"/>
      <point x="981" y="0" type="line"/>
      <point x="1007" y="0" type="line"/>
      <point x="1007" y="463" type="line" smooth="yes"/>
      <point x="1007" y="529"/>
      <point x="974" y="582"/>
      <point x="944" y="614" type="curve" smooth="yes"/>
      <point x="917" y="643"/>
      <point x="868" y="682"/>
      <point x="819" y="682" type="curve" smooth="yes"/>
      <point x="770" y="682"/>
      <point x="729" y="642"/>
      <point x="699" y="604" type="curve" smooth="yes"/>
      <point x="676" y="575"/>
      <point x="635" y="519"/>
      <point x="635" y="497" type="curve" smooth="yes"/>
      <point x="635" y="488"/>
      <point x="642" y="480"/>
      <point x="691" y="442" type="curve"/>
      <point x="691" y="33" type="line"/>
      <point x="561" y="182" type="line"/>
      <point x="432" y="33" type="line"/>
      <point x="432" y="463" type="line" smooth="yes"/>
      <point x="432" y="529"/>
      <point x="399" y="582"/>
      <point x="369" y="614" type="curve" smooth="yes"/>
      <point x="342" y="643"/>
      <point x="293" y="682"/>
      <point x="244" y="682" type="curve" smooth="yes"/>
      <point x="195" y="682"/>
      <point x="155" y="642"/>
      <point x="124" y="604" type="curve" smooth="yes"/>
      <point x="101" y="575"/>
      <point x="60" y="519"/>
      <point x="60" y="497" type="curve" smooth="yes"/>
      <point x="60" y="488"/>
      <point x="67" y="480"/>
      <point x="116" y="442" type="curve"/>
    </contour>
    <contour>
      <point x="116" y="316" type="line"/>
      <point x="116" y="0" type="line"/>
      <point x="142" y="0" type="line"/>
      <point x="194" y="44"/>
      <point x="222" y="102"/>
      <point x="222" y="147" type="curve" smooth="yes"/>
      <point x="222" y="194"/>
      <point x="190" y="227"/>
      <point x="142" y="225" type="curve"/>
      <point x="142" y="316" type="line"/>
    </contour>
    <contour>
      <point x="142" y="199" type="line"/>
      <point x="170" y="202"/>
      <point x="196" y="190"/>
      <point x="196" y="147" type="curve" smooth="yes"/>
      <point x="196" y="105"/>
      <point x="171" y="64"/>
      <point x="142" y="33" type="curve"/>
    </contour>
  </outline>
</glyph>
<glyph name="uni178F" format="2">
  <advance width="552"/>
  <unicode hex="178F"/>
  <note>
uni178F
</note>
  <anchor x="271" y="760" name="abvm"/>
  <anchor x="271" y="728" name="abvm_high"/>
  <anchor x="271" y="0" name="blwm"/>
  <outline>
    <contour>
      <point x="111" y="273" type="line"/>
      <point x="137" y="273" type="line"/>
      <point x="137" y="321" type="line" smooth="yes"/>
      <point x="137" y="377"/>
      <point x="195" y="433"/>
      <point x="271" y="433" type="curve" smooth="yes"/>
      <point x="340" y="433"/>
      <point x="404" y="376"/>
      <point x="404" y="321" type="curve" smooth="yes"/>
      <point x="404" y="0" type="line"/>
      <point x="430" y="0" type="line"/>
      <point x="430" y="316" type="line" smooth="yes"/>
      <point x="430" y="388"/>
      <point x="358" y="459"/>
      <point x="271" y="459" type="curve" smooth="yes"/>
      <point x="182" y="459"/>
      <point x="111" y="390"/>
      <point x="111" y="316" type="curve" smooth="yes"/>
    </contour>
    <contour>
      <point x="111" y="316" type="line"/>
      <point x="111" y="0" type="line"/>
      <point x="137" y="0" type="line"/>
      <point x="189" y="44"/>
      <point x="217" y="102"/>
      <point x="217" y="147" type="curve" smooth="yes"/>
      <point x="217" y="194"/>
      <point x="185" y="227"/>
      <point x="137" y="225" type="curve"/>
      <point x="137" y="316" type="line"/>
    </contour>
    <contour>
      <point x="137" y="199" type="line"/>
      <point x="165" y="202"/>
      <point x="191" y="190"/>
      <point x="191" y="147" type="curve" smooth="yes"/>
      <point x="191" y="105"/>
      <point x="166" y="64"/>
      <point x="137" y="33" type="curve"/>
    </contour>
    <contour>
      <point x="120" y="491" type="line"/>
      <point x="83" y="539"/>
      <point x="77" y="554"/>
      <point x="77" y="562" type="curve" smooth="yes"/>
      <point x="77" y="578"/>
      <point x="95" y="602"/>
      <point x="112" y="621" type="curve" smooth="yes"/>
      <point x="130" y="641"/>
      <point x="149" y="660"/>
      <point x="162" y="660" type="curve" smooth="yes"/>
      <point x="172" y="660"/>
      <point x="186" y="641"/>
      <point x="207" y="613" type="curve" smooth="yes"/>
      <point x="229" y="584"/>
      <point x="245" y="566"/>
      <point x="265" y="566" type="curve" smooth="yes"/>
      <point x="279" y="566"/>
      <point x="296" y="574"/>
      <point x="326" y="608" type="curve" smooth="yes"/>
      <point x="351" y="636"/>
      <point x="365" y="660"/>
      <point x="373" y="660" type="curve" smooth="yes"/>
      <point x="388" y="660"/>
      <point x="455" y="545"/>
      <point x="480" y="545" type="curve" smooth="yes"/>
      <point x="488" y="545"/>
      <point x="498" y="552"/>
      <point x="498" y="569" type="curve"/>
      <point x="483" y="569"/>
      <point x="472" y="580"/>
      <point x="460" y="595" type="curve" smooth="yes"/>
      <point x="415" y="653" type="line" smooth="yes"/>
      <point x="398" y="674"/>
      <point x="388" y="686"/>
      <point x="376" y="686" type="curve" smooth="yes"/>
      <point x="361" y="686"/>
      <point x="353" y="678"/>
      <point x="311" y="630" type="curve" smooth="yes"/>
      <point x="287" y="602"/>
      <point x="272" y="592"/>
      <point x="265" y="592" type="curve" smooth="yes"/>
      <point x="255" y="592"/>
      <point x="243" y="608"/>
      <point x="220" y="639" type="curve" smooth="yes"/>
      <point x="192" y="676"/>
      <point x="179" y="686"/>
      <point x="163" y="686" type="curve" smooth="yes"/>
      <point x="155" y="686"/>
      <point x="134" y="685"/>
      <point x="90" y="635" type="curve" smooth="yes"/>
      <point x="50" y="589"/>
      <point x="50" y="573"/>
      <point x="50" y="562" type="curve" smooth="yes"/>
      <point x="50" y="549"/>
      <point x="57" y="532"/>
      <point x="101" y="473" type="curve"/>
    </contour>
  </outline>
</glyph>
<glyph name="uni1790" format="2">
  <advance width="564"/>
  <unicode hex="1790"/>
  <note>
uni1790
</note>
  <anchor x="271" y="860" name="abvm"/>
  <anchor x="272" y="830" name="abvm_high"/>
  <anchor x="274" y="0" name="blwm"/>
  <outline>
    <contour>
      <point x="130" y="455" type="line"/>
      <point x="104" y="455" type="line"/>
      <point x="104" y="126" type="line" smooth="yes"/>
      <point x="104" y="61"/>
      <point x="178" y="0"/>
      <point x="274" y="0" type="curve" smooth="yes"/>
      <point x="369" y="0"/>
      <point x="442" y="58"/>
      <point x="442" y="126" type="curve" smooth="yes"/>
      <point x="442" y="222" type="line"/>
      <point x="416" y="222" type="line"/>
      <point x="416" y="126" type="line" smooth="yes"/>
      <point x="416" y="80"/>
      <point x="348" y="26"/>
      <point x="274" y="26" type="curve" smooth="yes"/>
      <point x="202" y="26"/>
      <point x="130" y="79"/>
      <point x="130" y="126" type="curve" smooth="yes"/>
    </contour>
    <contour>
      <point x="442" y="206" type="line"/>
      <point x="442" y="396" type="line" smooth="yes"/>
      <point x="442" y="421"/>
      <point x="432" y="428"/>
      <point x="417" y="428" type="curve" smooth="yes"/>
      <point x="377" y="428"/>
      <point x="339" y="378"/>
      <point x="339" y="318" type="curve" smooth="yes"/>
      <point x="339" y="263"/>
      <point x="374" y="217"/>
      <point x="416" y="214" type="curve"/>
      <point x="416" y="206" type="line"/>
    </contour>
    <contour>
      <point x="416" y="240" type="line"/>
      <point x="397" y="240"/>
      <point x="365" y="265"/>
      <point x="365" y="315" type="curve" smooth="yes"/>
      <point x="365" y="365"/>
      <point x="397" y="401"/>
      <point x="416" y="401" type="curve"/>
    </contour>
    <contour>
      <point x="130" y="445" type="line"/>
      <point x="130" y="470" type="line"/>
      <point x="98" y="506"/>
      <point x="77" y="532"/>
      <point x="77" y="550" type="curve" smooth="yes"/>
      <point x="77" y="557"/>
      <point x="80" y="574"/>
      <point x="116" y="614" type="curve" smooth="yes"/>
      <point x="145" y="647"/>
      <point x="160" y="656"/>
      <point x="170" y="656" type="curve" smooth="yes"/>
      <point x="188" y="656"/>
      <point x="196" y="627"/>
      <point x="233" y="586" type="curve" smooth="yes"/>
      <point x="275" y="541"/>
      <point x="313" y="521"/>
      <point x="349" y="521" type="curve" smooth="yes"/>
      <point x="402" y="521"/>
      <point x="461" y="565"/>
      <point x="461" y="643" type="curve" smooth="yes"/>
      <point x="461" y="728"/>
      <point x="387" y="761"/>
      <point x="338" y="761" type="curve" smooth="yes"/>
      <point x="306" y="761"/>
      <point x="301" y="748"/>
      <point x="306" y="726" type="curve"/>
      <point x="383" y="742"/>
      <point x="435" y="703"/>
      <point x="435" y="639" type="curve" smooth="yes"/>
      <point x="435" y="588"/>
      <point x="400" y="547"/>
      <point x="351" y="547" type="curve" smooth="yes"/>
      <point x="304" y="547"/>
      <point x="267" y="585"/>
      <point x="244" y="614" type="curve" smooth="yes"/>
      <point x="215" y="651"/>
      <point x="201" y="682"/>
      <point x="170" y="682" type="curve" smooth="yes"/>
      <point x="154" y="682"/>
      <point x="135" y="674"/>
      <point x="95" y="630" type="curve" smooth="yes"/>
      <point x="55" y="586"/>
      <point x="50" y="566"/>
      <point x="50" y="551" type="curve" smooth="yes"/>
      <point x="50" y="530"/>
      <point x="59" y="510"/>
      <point x="104" y="460" type="curve"/>
      <point x="104" y="445" type="line"/>
    </contour>
  </outline>
</glyph>
<glyph name="uni1791" format="2">
  <advance width="501"/>
  <unicode hex="1791"/>
  <note>
uni1791
</note>
  <anchor x="248" y="760" name="abvm"/>
  <anchor x="228" y="0" name="blwm"/>
  <outline>
    <contour>
      <point x="123" y="193" type="line"/>
      <point x="123" y="122" type="line" smooth="yes"/>
      <point x="123" y="24"/>
      <point x="174" y="0"/>
      <point x="214" y="0" type="curve" smooth="yes"/>
      <point x="254" y="0"/>
      <point x="304" y="24"/>
      <point x="304" y="122" type="curve" smooth="yes"/>
      <point x="304" y="260" type="line"/>
      <point x="367" y="260"/>
      <point x="431" y="286"/>
      <point x="431" y="333" type="curve" smooth="yes"/>
      <point x="431" y="359"/>
      <point x="410" y="379"/>
      <point x="374" y="379" type="curve" smooth="yes"/>
      <point x="319" y="379"/>
      <point x="285" y="325"/>
      <point x="278" y="286" type="curve"/>
      <point x="226" y="286" type="line" smooth="yes"/>
      <point x="162" y="286"/>
      <point x="96" y="342"/>
      <point x="96" y="424" type="curve" smooth="yes"/>
      <point x="96" y="539" type="line" smooth="yes"/>
      <point x="96" y="599"/>
      <point x="164" y="656"/>
      <point x="243" y="656" type="curve" smooth="yes"/>
      <point x="321" y="656"/>
      <point x="392" y="600"/>
      <point x="392" y="550" type="curve"/>
      <point x="365" y="550"/>
      <point x="334" y="528"/>
      <point x="334" y="485" type="curve" smooth="yes"/>
      <point x="334" y="440"/>
      <point x="367" y="413"/>
      <point x="390" y="413" type="curve" smooth="yes"/>
      <point x="401" y="413"/>
      <point x="418" y="420"/>
      <point x="418" y="446" type="curve" smooth="yes"/>
      <point x="418" y="548" type="line" smooth="yes"/>
      <point x="418" y="613"/>
      <point x="341" y="682"/>
      <point x="245" y="682" type="curve" smooth="yes"/>
      <point x="150" y="682"/>
      <point x="70" y="614"/>
      <point x="70" y="536" type="curve" smooth="yes"/>
      <point x="70" y="424" type="line" smooth="yes"/>
      <point x="70" y="314"/>
      <point x="160" y="260"/>
      <point x="220" y="260" type="curve" smooth="yes"/>
      <point x="278" y="260" type="line"/>
      <point x="278" y="122" type="line" smooth="yes"/>
      <point x="278" y="52"/>
      <point x="250" y="26"/>
      <point x="214" y="26" type="curve" smooth="yes"/>
      <point x="178" y="26"/>
      <point x="149" y="52"/>
      <point x="149" y="122" type="curve" smooth="yes"/>
      <point x="149" y="193" type="line"/>
    </contour>
    <contour>
      <point x="375" y="353" type="curve" smooth="yes"/>
      <point x="398" y="353"/>
      <point x="405" y="341"/>
      <point x="405" y="330" type="curve" smooth="yes"/>
      <point x="405" y="293"/>
      <point x="330" y="287"/>
      <point x="305" y="286" type="curve"/>
      <point x="309" y="299"/>
      <point x="325" y="353"/>
    </contour>
    <contour>
      <point x="392" y="438" type="line"/>
      <point x="373" y="438"/>
      <point x="360" y="459"/>
      <point x="360" y="484" type="curve" smooth="yes"/>
      <point x="360" y="508"/>
      <point x="372" y="524"/>
      <point x="392" y="524" type="curve"/>
    </contour>
  </outline>
</glyph>
<glyph name="uni1792" format="2">
  <advance width="570"/>
  <unicode hex="1792"/>
  <note>
uni1792
</note>
  <anchor x="277" y="760" name="abvm"/>
  <anchor x="277" y="0" name="blwm"/>
  <outline>
    <contour>
      <point x="108" y="422" type="line"/>
      <point x="134" y="422" type="line"/>
      <point x="134" y="472" type="line"/>
      <point x="100" y="508"/>
      <point x="81" y="532"/>
      <point x="81" y="548" type="curve" smooth="yes"/>
      <point x="81" y="560"/>
      <point x="92" y="578"/>
      <point x="124" y="617" type="curve" smooth="yes"/>
      <point x="150" y="649"/>
      <point x="160" y="656"/>
      <point x="170" y="656" type="curve" smooth="yes"/>
      <point x="183" y="656"/>
      <point x="195" y="643"/>
      <point x="211" y="620" type="curve" smooth="yes"/>
      <point x="244" y="572"/>
      <point x="253" y="559"/>
      <point x="270" y="559" type="curve" smooth="yes"/>
      <point x="284" y="559"/>
      <point x="309" y="584"/>
      <point x="327" y="607" type="curve" smooth="yes"/>
      <point x="347" y="632"/>
      <point x="365" y="655"/>
      <point x="371" y="655" type="curve" smooth="yes"/>
      <point x="388" y="655"/>
      <point x="427" y="537"/>
      <point x="470" y="537" type="curve" smooth="yes"/>
      <point x="481" y="537"/>
      <point x="492" y="545"/>
      <point x="492" y="562" type="curve"/>
      <point x="466" y="564"/>
      <point x="450" y="586"/>
      <point x="441" y="601" type="curve" smooth="yes"/>
      <point x="414" y="647" type="line" smooth="yes"/>
      <point x="401" y="670"/>
      <point x="391" y="682"/>
      <point x="374" y="682" type="curve" smooth="yes"/>
      <point x="354" y="682"/>
      <point x="339" y="663"/>
      <point x="318" y="637" type="curve" smooth="yes"/>
      <point x="293" y="606"/>
      <point x="278" y="588"/>
      <point x="270" y="588" type="curve" smooth="yes"/>
      <point x="262" y="588"/>
      <point x="255" y="605"/>
      <point x="229" y="639" type="curve" smooth="yes"/>
      <point x="200" y="677"/>
      <point x="184" y="682"/>
      <point x="170" y="682" type="curve" smooth="yes"/>
      <point x="149" y="682"/>
      <point x="135" y="671"/>
      <point x="109" y="639" type="curve" smooth="yes"/>
      <point x="77" y="600"/>
      <point x="54" y="572"/>
      <point x="54" y="549" type="curve" smooth="yes"/>
      <point x="54" y="533"/>
      <point x="63" y="510"/>
      <point x="108" y="460" type="curve"/>
    </contour>
    <contour>
      <point x="134" y="451" type="line"/>
      <point x="108" y="451" type="line"/>
      <point x="108" y="0" type="line"/>
      <point x="139" y="0" type="line"/>
      <point x="278" y="151" type="line"/>
      <point x="415" y="0" type="line"/>
      <point x="446" y="0" type="line"/>
      <point x="446" y="228" type="line"/>
      <point x="420" y="228" type="line"/>
      <point x="420" y="32" type="line"/>
      <point x="278" y="188" type="line"/>
      <point x="134" y="32" type="line"/>
    </contour>
    <contour>
      <point x="446" y="220" type="line"/>
      <point x="446" y="410" type="line" smooth="yes"/>
      <point x="446" y="435"/>
      <point x="436" y="442"/>
      <point x="421" y="442" type="curve" smooth="yes"/>
      <point x="381" y="442"/>
      <point x="343" y="392"/>
      <point x="343" y="332" type="curve" smooth="yes"/>
      <point x="343" y="277"/>
      <point x="378" y="231"/>
      <point x="420" y="228" type="curve"/>
      <point x="420" y="220" type="line"/>
    </contour>
    <contour>
      <point x="420" y="254" type="line"/>
      <point x="401" y="254"/>
      <point x="369" y="279"/>
      <point x="369" y="329" type="curve" smooth="yes"/>
      <point x="369" y="379"/>
      <point x="401" y="415"/>
      <point x="420" y="415" type="curve"/>
    </contour>
  </outline>
</glyph>
<glyph name="uni1793" format="2">
  <advance width="566"/>
  <unicode hex="1793"/>
  <note>
uni1793
</note>
  <anchor x="281" y="760" name="abvm"/>
  <anchor x="281" y="0" name="blwm"/>
  <outline>
    <contour>
      <point x="420" y="526" type="line"/>
      <point x="446" y="526" type="line"/>
      <point x="446" y="543" type="line" smooth="yes"/>
      <point x="446" y="612"/>
      <point x="384" y="682"/>
      <point x="281" y="682" type="curve" smooth="yes"/>
      <point x="180" y="682"/>
      <point x="110" y="616"/>
      <point x="110" y="536" type="curve" smooth="yes"/>
      <point x="110" y="463" type="line" smooth="yes"/>
      <point x="110" y="382"/>
      <point x="182" y="341"/>
      <point x="259" y="306" type="curve" smooth="yes"/>
      <point x="420" y="232" type="line"/>
      <point x="420" y="120" type="line" smooth="yes"/>
      <point x="420" y="50"/>
      <point x="387" y="26"/>
      <point x="354" y="26" type="curve" smooth="yes"/>
      <point x="325" y="26"/>
      <point x="304" y="45"/>
      <point x="264" y="88" type="curve" smooth="yes"/>
      <point x="221" y="134"/>
      <point x="179" y="176"/>
      <point x="136" y="179" type="curve"/>
      <point x="136" y="252" type="line"/>
      <point x="110" y="269" type="line"/>
      <point x="110" y="0" type="line"/>
      <point x="136" y="0" type="line"/>
      <point x="136" y="153" type="line"/>
      <point x="169" y="143"/>
      <point x="199" y="119"/>
      <point x="243" y="72" type="curve" smooth="yes"/>
      <point x="287" y="26"/>
      <point x="316" y="0"/>
      <point x="354" y="0" type="curve" smooth="yes"/>
      <point x="395" y="0"/>
      <point x="446" y="30"/>
      <point x="446" y="122" type="curve" smooth="yes"/>
      <point x="446" y="251" type="line"/>
      <point x="270" y="331" type="line" smooth="yes"/>
      <point x="164" y="379"/>
      <point x="136" y="426"/>
      <point x="136" y="463" type="curve" smooth="yes"/>
      <point x="136" y="539" type="line" smooth="yes"/>
      <point x="136" y="599"/>
      <point x="203" y="656"/>
      <point x="277" y="656" type="curve" smooth="yes"/>
      <point x="351" y="656"/>
      <point x="420" y="598"/>
      <point x="420" y="536" type="curve" smooth="yes"/>
    </contour>
    <contour>
      <point x="420" y="545" type="line"/>
      <point x="420" y="513" type="line"/>
      <point x="387" y="513"/>
      <point x="352" y="489"/>
      <point x="352" y="443" type="curve" smooth="yes"/>
      <point x="352" y="398"/>
      <point x="385" y="370"/>
      <point x="418" y="370" type="curve" smooth="yes"/>
      <point x="433" y="370"/>
      <point x="446" y="376"/>
      <point x="446" y="396" type="curve" smooth="yes"/>
      <point x="446" y="545" type="line"/>
    </contour>
    <contour>
      <point x="420" y="490" type="curve"/>
      <point x="420" y="394" type="line"/>
      <point x="388" y="394"/>
      <point x="378" y="425"/>
      <point x="378" y="444" type="curve" smooth="yes"/>
      <point x="378" y="463"/>
      <point x="387" y="490"/>
    </contour>
  </outline>
</glyph>
<glyph name="uni1795" format="2">
  <advance width="577"/>
  <unicode hex="1795"/>
  <note>
uni1795
</note>
  <anchor x="277" y="860" name="abvm"/>
  <anchor x="278" y="810" name="abvm_high"/>
  <anchor x="286" y="0" name="blwm"/>
  <outline>
    <contour>
      <point x="140" y="445" type="line"/>
      <point x="140" y="470" type="line"/>
      <point x="108" y="506"/>
      <point x="87" y="532"/>
      <point x="87" y="550" type="curve" smooth="yes"/>
      <point x="87" y="557"/>
      <point x="90" y="574"/>
      <point x="126" y="614" type="curve" smooth="yes"/>
      <point x="155" y="647"/>
      <point x="170" y="656"/>
      <point x="180" y="656" type="curve" smooth="yes"/>
      <point x="198" y="656"/>
      <point x="206" y="627"/>
      <point x="243" y="586" type="curve" smooth="yes"/>
      <point x="285" y="541"/>
      <point x="323" y="521"/>
      <point x="359" y="521" type="curve" smooth="yes"/>
      <point x="412" y="521"/>
      <point x="471" y="565"/>
      <point x="471" y="643" type="curve" smooth="yes"/>
      <point x="471" y="728"/>
      <point x="397" y="761"/>
      <point x="348" y="761" type="curve" smooth="yes"/>
      <point x="316" y="761"/>
      <point x="311" y="748"/>
      <point x="316" y="726" type="curve"/>
      <point x="393" y="742"/>
      <point x="445" y="703"/>
      <point x="445" y="639" type="curve" smooth="yes"/>
      <point x="445" y="588"/>
      <point x="410" y="547"/>
      <point x="361" y="547" type="curve" smooth="yes"/>
      <point x="314" y="547"/>
      <point x="277" y="585"/>
      <point x="254" y="614" type="curve" smooth="yes"/>
      <point x="225" y="651"/>
      <point x="211" y="682"/>
      <point x="180" y="682" type="curve" smooth="yes"/>
      <point x="164" y="682"/>
      <point x="145" y="674"/>
      <point x="105" y="630" type="curve" smooth="yes"/>
      <point x="65" y="586"/>
      <point x="60" y="566"/>
      <point x="60" y="551" type="curve" smooth="yes"/>
      <point x="60" y="530"/>
      <point x="69" y="510"/>
      <point x="114" y="460" type="curve"/>
      <point x="114" y="445" type="line"/>
    </contour>
    <contour>
      <point x="140" y="451" type="line"/>
      <point x="114" y="451" type="line"/>
      <point x="114" y="0" type="line"/>
      <point x="145" y="0" type="line"/>
      <point x="284" y="151" type="line"/>
      <point x="421" y="0" type="line"/>
      <point x="452" y="0" type="line"/>
      <point x="452" y="228" type="line"/>
      <point x="426" y="228" type="line"/>
      <point x="426" y="32" type="line"/>
      <point x="284" y="188" type="line"/>
      <point x="140" y="32" type="line"/>
    </contour>
    <contour>
      <point x="452" y="220" type="line"/>
      <point x="452" y="410" type="line" smooth="yes"/>
      <point x="452" y="435"/>
      <point x="442" y="442"/>
      <point x="427" y="442" type="curve" smooth="yes"/>
      <point x="387" y="442"/>
      <point x="349" y="392"/>
      <point x="349" y="332" type="curve" smooth="yes"/>
      <point x="349" y="277"/>
      <point x="384" y="231"/>
      <point x="426" y="228" type="curve"/>
      <point x="426" y="220" type="line"/>
    </contour>
    <contour>
      <point x="426" y="254" type="line"/>
      <point x="407" y="254"/>
      <point x="375" y="279"/>
      <point x="375" y="329" type="curve" smooth="yes"/>
      <point x="375" y="379"/>
      <point x="407" y="415"/>
      <point x="426" y="415" type="curve"/>
    </contour>
  </outline>
</glyph>
<glyph name="uni1796" format="2">
  <advance width="561"/>
  <unicode hex="1796"/>
  <note>
uni1796
</note>
  <anchor x="284" y="760" name="abvm"/>
  <anchor x="305" y="0" name="blwm"/>
  <outline>
    <contour>
      <point x="105" y="302" type="line"/>
      <point x="131" y="302" type="line"/>
      <point x="131" y="479" type="line"/>
      <point x="105" y="516"/>
      <point x="87" y="542"/>
      <point x="87" y="551" type="curve" smooth="yes"/>
      <point x="87" y="559"/>
      <point x="92" y="576"/>
      <point x="126" y="613" type="curve" smooth="yes"/>
      <point x="153" y="643"/>
      <point x="169" y="655"/>
      <point x="174" y="655" type="curve" smooth="yes"/>
      <point x="186" y="655"/>
      <point x="225" y="578"/>
      <point x="256" y="578" type="curve" smooth="yes"/>
      <point x="287" y="578"/>
      <point x="317" y="656"/>
      <point x="348" y="656" type="curve" smooth="yes"/>
      <point x="376" y="656"/>
      <point x="415" y="592"/>
      <point x="415" y="531" type="curve" smooth="yes"/>
      <point x="415" y="0" type="line"/>
      <point x="441" y="0" type="line"/>
      <point x="441" y="531" type="line" smooth="yes"/>
      <point x="441" y="604"/>
      <point x="392" y="682"/>
      <point x="346" y="682" type="curve" smooth="yes"/>
      <point x="323" y="682"/>
      <point x="305" y="664"/>
      <point x="292" y="648" type="curve" smooth="yes"/>
      <point x="277" y="629"/>
      <point x="260" y="607"/>
      <point x="255" y="607" type="curve" smooth="yes"/>
      <point x="248" y="607"/>
      <point x="239" y="617"/>
      <point x="222" y="640" type="curve" smooth="yes"/>
      <point x="203" y="666"/>
      <point x="193" y="681"/>
      <point x="173" y="681" type="curve" smooth="yes"/>
      <point x="162" y="681"/>
      <point x="150" y="676"/>
      <point x="114" y="638" type="curve" smooth="yes"/>
      <point x="60" y="581"/>
      <point x="60" y="554"/>
      <point x="60" y="549" type="curve" smooth="yes"/>
      <point x="60" y="533"/>
      <point x="81" y="503"/>
      <point x="105" y="469" type="curve"/>
    </contour>
    <contour>
      <point x="105" y="316" type="line"/>
      <point x="105" y="0" type="line"/>
      <point x="131" y="0" type="line"/>
      <point x="183" y="44"/>
      <point x="211" y="102"/>
      <point x="211" y="147" type="curve" smooth="yes"/>
      <point x="211" y="194"/>
      <point x="179" y="227"/>
      <point x="131" y="225" type="curve"/>
      <point x="131" y="316" type="line"/>
    </contour>
    <contour>
      <point x="131" y="199" type="line"/>
      <point x="159" y="202"/>
      <point x="185" y="190"/>
      <point x="185" y="147" type="curve" smooth="yes"/>
      <point x="185" y="105"/>
      <point x="160" y="64"/>
      <point x="131" y="33" type="curve"/>
    </contour>
  </outline>
</glyph>
<glyph name="uni1799" format="2">
  <advance width="880"/>
  <unicode hex="1799"/>
  <note>
uni1799
</note>
  <anchor x="591" y="760" name="abvm"/>
  <anchor x="595" y="0" name="blwm"/>
  <outline>
    <contour>
      <point x="756" y="370" type="line"/>
      <point x="756" y="445" type="line"/>
      <point x="678" y="536" type="line"/>
      <point x="743" y="641" type="line"/>
      <point x="755" y="631"/>
      <point x="788" y="587"/>
      <point x="818" y="587" type="curve" smooth="yes"/>
      <point x="830" y="587"/>
      <point x="840" y="595"/>
      <point x="840" y="612" type="curve"/>
      <point x="809" y="609"/>
      <point x="785" y="634"/>
      <point x="741" y="682" type="curve"/>
      <point x="665" y="568"/>
      <point x="651" y="547"/>
      <point x="651" y="538" type="curve" smooth="yes"/>
      <point x="651" y="528"/>
      <point x="659" y="513"/>
      <point x="730" y="435" type="curve"/>
      <point x="730" y="370" type="line"/>
    </contour>
    <contour>
      <point x="756" y="393" type="line"/>
      <point x="730" y="393" type="line"/>
      <point x="730" y="126" type="line" smooth="yes"/>
      <point x="730" y="69"/>
      <point x="658" y="26"/>
      <point x="598" y="26" type="curve" smooth="yes"/>
      <point x="539" y="26"/>
      <point x="466" y="68"/>
      <point x="466" y="105" type="curve" smooth="yes"/>
      <point x="466" y="393" type="line"/>
      <point x="440" y="393" type="line"/>
      <point x="440" y="105" type="line" smooth="yes"/>
      <point x="440" y="68"/>
      <point x="361" y="26"/>
      <point x="297" y="26" type="curve" smooth="yes"/>
      <point x="233" y="26"/>
      <point x="156" y="69"/>
      <point x="156" y="126" type="curve" smooth="yes"/>
      <point x="156" y="446" type="line"/>
      <point x="219" y="472"/>
      <point x="260" y="526"/>
      <point x="260" y="583" type="curve" smooth="yes"/>
      <point x="260" y="650"/>
      <point x="199" y="682"/>
      <point x="165" y="682" type="curve" smooth="yes"/>
      <point x="137" y="682"/>
      <point x="130" y="660"/>
      <point x="130" y="632" type="curve" smooth="yes"/>
      <point x="130" y="119" type="line" smooth="yes"/>
      <point x="130" y="59"/>
      <point x="207" y="0"/>
      <point x="299" y="0" type="curve" smooth="yes"/>
      <point x="358" y="0"/>
      <point x="409" y="24"/>
      <point x="454" y="62" type="curve"/>
      <point x="497" y="24"/>
      <point x="543" y="0"/>
      <point x="597" y="0" type="curve" smooth="yes"/>
      <point x="679" y="0"/>
      <point x="756" y="59"/>
      <point x="756" y="119" type="curve" smooth="yes"/>
    </contour>
    <contour>
      <point x="156" y="654" type="line"/>
      <point x="209" y="653"/>
      <point x="233" y="620"/>
      <point x="233" y="583" type="curve" smooth="yes"/>
      <point x="233" y="529"/>
      <point x="183" y="483"/>
      <point x="156" y="479" type="curve"/>
    </contour>
    <contour>
      <point x="466" y="370" type="line"/>
      <point x="466" y="445" type="line"/>
      <point x="388" y="536" type="line"/>
      <point x="453" y="641" type="line"/>
      <point x="465" y="631"/>
      <point x="498" y="587"/>
      <point x="528" y="587" type="curve" smooth="yes"/>
      <point x="540" y="587"/>
      <point x="550" y="595"/>
      <point x="550" y="612" type="curve"/>
      <point x="519" y="609"/>
      <point x="495" y="634"/>
      <point x="451" y="682" type="curve"/>
      <point x="375" y="568"/>
      <point x="361" y="547"/>
      <point x="361" y="538" type="curve" smooth="yes"/>
      <point x="361" y="528"/>
      <point x="369" y="513"/>
      <point x="440" y="435" type="curve"/>
      <point x="440" y="370" type="line"/>
    </contour>
  </outline>
</glyph>
<glyph name="uni179B" format="2">
  <advance width="869"/>
  <unicode hex="179B"/>
  <note>
uni179B
</note>
  <anchor x="589" y="760" name="abvm"/>
  <anchor x="589" y="0" name="blwm"/>
  <outline>
    <contour>
      <point x="110" y="297" type="line"/>
      <point x="136" y="297" type="line"/>
      <point x="136" y="454" type="line"/>
      <point x="85" y="499" type="line"/>
      <point x="126" y="567"/>
      <point x="188" y="656"/>
      <point x="262" y="656" type="curve" smooth="yes"/>
      <point x="341" y="656"/>
      <point x="431" y="553"/>
      <point x="431" y="463" type="curve" smooth="yes"/>
      <point x="431" y="133" type="line" smooth="yes"/>
      <point x="431" y="49"/>
      <point x="499" y="0"/>
      <point x="589" y="0" type="curve" smooth="yes"/>
      <point x="674" y="0"/>
      <point x="745" y="49"/>
      <point x="745" y="133" type="curve" smooth="yes"/>
      <point x="745" y="398" type="line"/>
      <point x="719" y="398" type="line"/>
      <point x="719" y="128" type="line" smooth="yes"/>
      <point x="719" y="71"/>
      <point x="669" y="26"/>
      <point x="589" y="26" type="curve" smooth="yes"/>
      <point x="509" y="26"/>
      <point x="457" y="71"/>
      <point x="457" y="128" type="curve" smooth="yes"/>
      <point x="457" y="463" type="line" smooth="yes"/>
      <point x="457" y="523"/>
      <point x="426" y="581"/>
      <point x="387" y="620" type="curve" smooth="yes"/>
      <point x="365" y="642"/>
      <point x="317" y="682"/>
      <point x="260" y="682" type="curve" smooth="yes"/>
      <point x="197" y="682"/>
      <point x="153" y="635"/>
      <point x="130" y="608" type="curve" smooth="yes"/>
      <point x="102" y="575"/>
      <point x="60" y="518"/>
      <point x="60" y="497" type="curve" smooth="yes"/>
      <point x="60" y="488"/>
      <point x="69" y="480"/>
      <point x="110" y="442" type="curve"/>
    </contour>
    <contour>
      <point x="110" y="316" type="line"/>
      <point x="110" y="0" type="line"/>
      <point x="136" y="0" type="line"/>
      <point x="188" y="44"/>
      <point x="216" y="102"/>
      <point x="216" y="147" type="curve" smooth="yes"/>
      <point x="216" y="194"/>
      <point x="184" y="227"/>
      <point x="136" y="225" type="curve"/>
      <point x="136" y="316" type="line"/>
    </contour>
    <contour>
      <point x="136" y="199" type="line"/>
      <point x="164" y="202"/>
      <point x="190" y="190"/>
      <point x="190" y="147" type="curve" smooth="yes"/>
      <point x="190" y="105"/>
      <point x="165" y="64"/>
      <point x="136" y="33" type="curve"/>
    </contour>
    <contour>
      <point x="745" y="370" type="line"/>
      <point x="745" y="445" type="line"/>
      <point x="667" y="536" type="line"/>
      <point x="732" y="641" type="line"/>
      <point x="744" y="631"/>
      <point x="777" y="587"/>
      <point x="807" y="587" type="curve" smooth="yes"/>
      <point x="819" y="587"/>
      <point x="829" y="595"/>
      <point x="829" y="612" type="curve"/>
      <point x="798" y="609"/>
      <point x="774" y="634"/>
      <point x="730" y="682" type="curve"/>
      <point x="654" y="568"/>
      <point x="640" y="547"/>
      <point x="640" y="538" type="curve" smooth="yes"/>
      <point x="640" y="528"/>
      <point x="648" y="513"/>
      <point x="719" y="435" type="curve"/>
      <point x="719" y="370" type="line"/>
    </contour>
  </outline>
</glyph>
<glyph name="uni179C" format="2">
  <advance width="285"/>
  <unicode hex="179C"/>
  <note>
uni179C
</note>
  <anchor x="145" y="840" name="abvm"/>
  <anchor x="145" y="0" name="blwm"/>
  <outline>
    <contour>
      <point x="158" y="380" type="line"/>
      <point x="132" y="380" type="line"/>
      <point x="132" y="228" type="line"/>
      <point x="64" y="226"/>
      <point x="51" y="169"/>
      <point x="51" y="137" type="curve" smooth="yes"/>
      <point x="51" y="96"/>
      <point x="71" y="56"/>
      <point x="132" y="0" type="curve"/>
      <point x="158" y="0" type="line"/>
    </contour>
    <contour>
      <point x="132" y="35" type="line"/>
      <point x="104" y="68"/>
      <point x="77" y="92"/>
      <point x="77" y="137" type="curve" smooth="yes"/>
      <point x="77" y="165"/>
      <point x="87" y="199"/>
      <point x="132" y="202" type="curve"/>
    </contour>
    <contour>
      <point x="132" y="330" type="line"/>
      <point x="158" y="330" type="line"/>
      <point x="158" y="445" type="line"/>
      <point x="79" y="537" type="line"/>
      <point x="147" y="644" type="line"/>
      <point x="159" y="633"/>
      <point x="174" y="628"/>
      <point x="188" y="628" type="curve" smooth="yes"/>
      <point x="223" y="628"/>
      <point x="249" y="657"/>
      <point x="249" y="695" type="curve" smooth="yes"/>
      <point x="249" y="740"/>
      <point x="214" y="773"/>
      <point x="194" y="773" type="curve" smooth="yes"/>
      <point x="182" y="773"/>
      <point x="169" y="762"/>
      <point x="170" y="746" type="curve"/>
      <point x="197" y="746"/>
      <point x="223" y="722"/>
      <point x="223" y="693" type="curve" smooth="yes"/>
      <point x="223" y="667"/>
      <point x="205" y="654"/>
      <point x="189" y="654" type="curve" smooth="yes"/>
      <point x="175" y="654"/>
      <point x="163" y="663"/>
      <point x="143" y="682" type="curve"/>
      <point x="67" y="568"/>
      <point x="53" y="547"/>
      <point x="53" y="535" type="curve" smooth="yes"/>
      <point x="53" y="526"/>
      <point x="61" y="517"/>
      <point x="132" y="435" type="curve"/>
    </contour>
  </outline>
</glyph>
<glyph name="uni179E" format="2">
  <advance width="590"/>
  <unicode hex="179E"/>
  <note>
uni179E
</note>
  <anchor x="291" y="760" name="abvm"/>
  <anchor x="296" y="0" name="blwm"/>
  <outline>
    <contour>
      <point x="331" y="299" type="line"/>
      <point x="550" y="299" type="line"/>
      <point x="550" y="325" type="line"/>
      <point x="331" y="325" type="line"/>
    </contour>
    <contour>
      <point x="437" y="384" type="line"/>
      <point x="411" y="384" type="line"/>
      <point x="411" y="136" type="line" smooth="yes"/>
      <point x="411" y="77"/>
      <point x="340" y="26"/>
      <point x="278" y="26" type="curve" smooth="yes"/>
      <point x="218" y="26"/>
      <point x="145" y="76"/>
      <point x="145" y="136" type="curve" smooth="yes"/>
      <point x="145" y="384" type="line"/>
      <point x="119" y="384" type="line"/>
      <point x="119" y="132" type="line" smooth="yes"/>
      <point x="119" y="54"/>
      <point x="208" y="0"/>
      <point x="278" y="0" type="curve" smooth="yes"/>
      <point x="348" y="0"/>
      <point x="437" y="62"/>
      <point x="437" y="132" type="curve" smooth="yes"/>
    </contour>
    <contour>
      <point x="145" y="370" type="line"/>
      <point x="145" y="445" type="line"/>
      <point x="67" y="536" type="line"/>
      <point x="132" y="641" type="line"/>
      <point x="144" y="631"/>
      <point x="177" y="587"/>
      <point x="207" y="587" type="curve" smooth="yes"/>
      <point x="219" y="587"/>
      <point x="229" y="595"/>
      <point x="229" y="612" type="curve"/>
      <point x="198" y="609"/>
      <point x="174" y="634"/>
      <point x="130" y="682" type="curve"/>
      <point x="54" y="568"/>
      <point x="40" y="547"/>
      <point x="40" y="538" type="curve" smooth="yes"/>
      <point x="40" y="528"/>
      <point x="48" y="513"/>
      <point x="119" y="435" type="curve"/>
      <point x="119" y="370" type="line"/>
    </contour>
    <contour>
      <point x="437" y="370" type="line"/>
      <point x="437" y="445" type="line"/>
      <point x="359" y="536" type="line"/>
      <point x="424" y="641" type="line"/>
      <point x="436" y="631"/>
      <point x="469" y="587"/>
      <point x="499" y="587" type="curve" smooth="yes"/>
      <point x="511" y="587"/>
      <point x="521" y="595"/>
      <point x="521" y="612" type="curve"/>
      <point x="490" y="609"/>
      <point x="466" y="634"/>
      <point x="422" y="682" type="curve"/>
      <point x="346" y="568"/>
      <point x="332" y="547"/>
      <point x="332" y="538" type="curve" smooth="yes"/>
      <point x="332" y="528"/>
      <point x="340" y="513"/>
      <point x="411" y="435" type="curve"/>
      <point x="411" y="370" type="line"/>
    </contour>
  </outline>
</glyph>
<glyph name="uni179F" format="2">
  <advance width="862"/>
  <unicode hex="179F"/>
  <note>
uni179F
</note>
  <anchor x="558" y="760" name="abvm"/>
  <anchor x="569" y="0" name="blwm"/>
  <anchor x="424" y="0" name="blwm_nno"/>
  <outline>
    <contour>
      <point x="279" y="466" type="curve" smooth="yes"/>
      <point x="189" y="466"/>
      <point x="110" y="403"/>
      <point x="110" y="326" type="curve" smooth="yes"/>
      <point x="110" y="260" type="line"/>
      <point x="136" y="260" type="line"/>
      <point x="136" y="326" type="line" smooth="yes"/>
      <point x="136" y="385"/>
      <point x="199" y="440"/>
      <point x="279" y="440" type="curve" smooth="yes"/>
      <point x="359" y="440"/>
      <point x="422" y="385"/>
      <point x="422" y="326" type="curve" smooth="yes"/>
      <point x="422" y="119" type="line" smooth="yes"/>
      <point x="422" y="55"/>
      <point x="500" y="0"/>
      <point x="580" y="0" type="curve" smooth="yes"/>
      <point x="660" y="0"/>
      <point x="738" y="55"/>
      <point x="738" y="119" type="curve" smooth="yes"/>
      <point x="738" y="376" type="line"/>
      <point x="712" y="376" type="line"/>
      <point x="712" y="126" type="line" smooth="yes"/>
      <point x="712" y="69"/>
      <point x="640" y="26"/>
      <point x="580" y="26" type="curve" smooth="yes"/>
      <point x="520" y="26"/>
      <point x="448" y="69"/>
      <point x="448" y="126" type="curve" smooth="yes"/>
      <point x="448" y="326" type="line" smooth="yes"/>
      <point x="448" y="403"/>
      <point x="369" y="466"/>
    </contour>
    <contour>
      <point x="250" y="445" type="line"/>
      <point x="162" y="536" type="line"/>
      <point x="237" y="641" type="line"/>
      <point x="249" y="631"/>
      <point x="290" y="587"/>
      <point x="317" y="587" type="curve" smooth="yes"/>
      <point x="332" y="587"/>
      <point x="339" y="595"/>
      <point x="339" y="612" type="curve"/>
      <point x="308" y="609"/>
      <point x="279" y="634"/>
      <point x="235" y="682" type="curve"/>
      <point x="153" y="568"/>
      <point x="135" y="543"/>
      <point x="135" y="535" type="curve" smooth="yes"/>
      <point x="135" y="526"/>
      <point x="146" y="515"/>
      <point x="224" y="435" type="curve"/>
    </contour>
    <contour>
      <point x="110" y="316" type="line"/>
      <point x="110" y="0" type="line"/>
      <point x="136" y="0" type="line"/>
      <point x="188" y="44"/>
      <point x="216" y="102"/>
      <point x="216" y="147" type="curve" smooth="yes"/>
      <point x="216" y="194"/>
      <point x="184" y="227"/>
      <point x="136" y="225" type="curve"/>
      <point x="136" y="316" type="line"/>
    </contour>
    <contour>
      <point x="136" y="199" type="line"/>
      <point x="164" y="202"/>
      <point x="190" y="190"/>
      <point x="190" y="147" type="curve" smooth="yes"/>
      <point x="190" y="105"/>
      <point x="165" y="64"/>
      <point x="136" y="33" type="curve"/>
    </contour>
    <contour>
      <point x="738" y="370" type="line"/>
      <point x="738" y="445" type="line"/>
      <point x="660" y="536" type="line"/>
      <point x="725" y="641" type="line"/>
      <point x="737" y="631"/>
      <point x="770" y="587"/>
      <point x="800" y="587" type="curve" smooth="yes"/>
      <point x="812" y="587"/>
      <point x="822" y="595"/>
      <point x="822" y="612" type="curve"/>
      <point x="791" y="609"/>
      <point x="767" y="634"/>
      <point x="723" y="682" type="curve"/>
      <point x="647" y="568"/>
      <point x="633" y="547"/>
      <point x="633" y="538" type="curve" smooth="yes"/>
      <point x="633" y="528"/>
      <point x="641" y="513"/>
      <point x="712" y="435" type="curve"/>
      <point x="712" y="370" type="line"/>
    </contour>
  </outline>
</glyph>
<glyph name="uni17A0" format="2">
  <advance width="847"/>
  <unicode hex="17A0"/>
  <note>
uni17A0
</note>
  <anchor x="572" y="760" name="abvm"/>
  <anchor x="566" y="0" name="blwm"/>
  <outline>
    <contour>
      <point x="411" y="375" type="line"/>
      <point x="437" y="375" type="line"/>
      <point x="437" y="454" type="line"/>
      <point x="381" y="499" type="line"/>
      <point x="420" y="560"/>
      <point x="473" y="656"/>
      <point x="541" y="656" type="curve" smooth="yes"/>
      <point x="613" y="656"/>
      <point x="701" y="548"/>
      <point x="701" y="463" type="curve" smooth="yes"/>
      <point x="701" y="0" type="line"/>
      <point x="727" y="0" type="line"/>
      <point x="727" y="463" type="line" smooth="yes"/>
      <point x="727" y="529"/>
      <point x="692" y="580"/>
      <point x="666" y="610" type="curve" smooth="yes"/>
      <point x="637" y="643"/>
      <point x="591" y="682"/>
      <point x="541" y="682" type="curve" smooth="yes"/>
      <point x="493" y="682"/>
      <point x="452" y="645"/>
      <point x="422" y="607" type="curve" smooth="yes"/>
      <point x="398" y="576"/>
      <point x="355" y="510"/>
      <point x="355" y="494" type="curve" smooth="yes"/>
      <point x="355" y="487"/>
      <point x="362" y="480"/>
      <point x="411" y="442" type="curve"/>
    </contour>
    <contour>
      <point x="437" y="384" type="line"/>
      <point x="411" y="384" type="line"/>
      <point x="411" y="136" type="line" smooth="yes"/>
      <point x="411" y="77"/>
      <point x="340" y="26"/>
      <point x="278" y="26" type="curve" smooth="yes"/>
      <point x="218" y="26"/>
      <point x="145" y="76"/>
      <point x="145" y="136" type="curve" smooth="yes"/>
      <point x="145" y="384" type="line"/>
      <point x="119" y="384" type="line"/>
      <point x="119" y="132" type="line" smooth="yes"/>
      <point x="119" y="54"/>
      <point x="208" y="0"/>
      <point x="278" y="0" type="curve" smooth="yes"/>
      <point x="348" y="0"/>
      <point x="437" y="62"/>
      <point x="437" y="132" type="curve" smooth="yes"/>
    </contour>
    <contour>
      <point x="145" y="370" type="line"/>
      <point x="145" y="445" type="line"/>
      <point x="67" y="536" type="line"/>
      <point x="132" y="641" type="line"/>
      <point x="144" y="631"/>
      <point x="177" y="587"/>
      <point x="207" y="587" type="curve" smooth="yes"/>
      <point x="219" y="587"/>
      <point x="229" y="595"/>
      <point x="229" y="612" type="curve"/>
      <point x="198" y="609"/>
      <point x="174" y="634"/>
      <point x="130" y="682" type="curve"/>
      <point x="54" y="568"/>
      <point x="40" y="547"/>
      <point x="40" y="538" type="curve" smooth="yes"/>
      <point x="40" y="528"/>
      <point x="48" y="513"/>
      <point x="119" y="435" type="curve"/>
      <point x="119" y="370" type="line"/>
    </contour>
  </outline>
</glyph>
<glyph name="uni17A1" format="2">
  <advance width="797"/>
  <unicode hex="17A1"/>
  <note>
uni17A1
</note>
  <anchor x="448" y="760" name="abvm"/>
  <anchor x="452" y="-317" name="blwm"/>
  <outline>
    <contour>
      <point x="616" y="370" type="line"/>
      <point x="616" y="445" type="line"/>
      <point x="538" y="536" type="line"/>
      <point x="603" y="641" type="line"/>
      <point x="615" y="631"/>
      <point x="648" y="587"/>
      <point x="678" y="587" type="curve" smooth="yes"/>
      <point x="690" y="587"/>
      <point x="700" y="595"/>
      <point x="700" y="612" type="curve"/>
      <point x="669" y="609"/>
      <point x="645" y="634"/>
      <point x="601" y="682" type="curve"/>
      <point x="525" y="568"/>
      <point x="511" y="547"/>
      <point x="511" y="538" type="curve" smooth="yes"/>
      <point x="511" y="528"/>
      <point x="519" y="513"/>
      <point x="590" y="435" type="curve"/>
      <point x="590" y="370" type="line"/>
    </contour>
    <contour>
      <point x="123" y="193" type="line"/>
      <point x="123" y="122" type="line" smooth="yes"/>
      <point x="123" y="24"/>
      <point x="174" y="0"/>
      <point x="214" y="0" type="curve" smooth="yes"/>
      <point x="254" y="0"/>
      <point x="304" y="24"/>
      <point x="304" y="122" type="curve" smooth="yes"/>
      <point x="304" y="260" type="line"/>
      <point x="367" y="260"/>
      <point x="431" y="286"/>
      <point x="431" y="333" type="curve" smooth="yes"/>
      <point x="431" y="359"/>
      <point x="410" y="379"/>
      <point x="374" y="379" type="curve" smooth="yes"/>
      <point x="319" y="379"/>
      <point x="285" y="325"/>
      <point x="278" y="286" type="curve"/>
      <point x="226" y="286" type="line" smooth="yes"/>
      <point x="162" y="286"/>
      <point x="96" y="342"/>
      <point x="96" y="424" type="curve" smooth="yes"/>
      <point x="96" y="539" type="line" smooth="yes"/>
      <point x="96" y="599"/>
      <point x="164" y="656"/>
      <point x="243" y="656" type="curve" smooth="yes"/>
      <point x="321" y="656"/>
      <point x="392" y="600"/>
      <point x="392" y="550" type="curve"/>
      <point x="365" y="550"/>
      <point x="334" y="528"/>
      <point x="334" y="485" type="curve" smooth="yes"/>
      <point x="334" y="440"/>
      <point x="367" y="413"/>
      <point x="390" y="413" type="curve" smooth="yes"/>
      <point x="401" y="413"/>
      <point x="418" y="420"/>
      <point x="418" y="446" type="curve" smooth="yes"/>
      <point x="418" y="548" type="line" smooth="yes"/>
      <point x="418" y="613"/>
      <point x="341" y="682"/>
      <point x="245" y="682" type="curve" smooth="yes"/>
      <point x="150" y="682"/>
      <point x="70" y="614"/>
      <point x="70" y="536" type="curve" smooth="yes"/>
      <point x="70" y="424" type="line" smooth="yes"/>
      <point x="70" y="314"/>
      <point x="160" y="260"/>
      <point x="220" y="260" type="curve" smooth="yes"/>
      <point x="278" y="260" type="line"/>
      <point x="278" y="122" type="line" smooth="yes"/>
      <point x="278" y="52"/>
      <point x="250" y="26"/>
      <point x="214" y="26" type="curve" smooth="yes"/>
      <point x="178" y="26"/>
      <point x="149" y="52"/>
      <point x="149" y="122" type="curve" smooth="yes"/>
      <point x="149" y="193" type="line"/>
    </contour>
    <contour>
      <point x="375" y="353" type="curve" smooth="yes"/>
      <point x="398" y="353"/>
      <point x="405" y="341"/>
      <point x="405" y="330" type="curve" smooth="yes"/>
      <point x="405" y="293"/>
      <point x="330" y="287"/>
      <point x="305" y="286" type="curve"/>
      <point x="309" y="299"/>
      <point x="325" y="353"/>
    </contour>
    <contour>
      <point x="392" y="438" type="line"/>
      <point x="373" y="438"/>
      <point x="360" y="459"/>
      <point x="360" y="484" type="curve" smooth="yes"/>
      <point x="360" y="508"/>
      <point x="372" y="524"/>
      <point x="392" y="524" type="curve"/>
    </contour>
    <contour>
      <point x="328" y="-156" type="line"/>
      <point x="302" y="-156" type="line"/>
      <point x="302" y="-317" type="line"/>
      <point x="328" y="-317" type="line"/>
      <point x="459" y="-185" type="line"/>
      <point x="590" y="-317" type="line"/>
      <point x="616" y="-317" type="line"/>
      <point x="616" y="381" type="line"/>
      <point x="590" y="381" type="line"/>
      <point x="590" y="-283" type="line"/>
      <point x="459" y="-150" type="line"/>
      <point x="328" y="-283" type="line"/>
    </contour>
    <contour>
      <point x="302" y="-171" type="line"/>
      <point x="328" y="-171" type="line"/>
      <point x="328" y="-81" type="line" smooth="yes"/>
      <point x="328" y="-58"/>
      <point x="320" y="-49"/>
      <point x="307" y="-49" type="curve" smooth="yes"/>
      <point x="293" y="-49"/>
      <point x="276" y="-59"/>
      <point x="276" y="-80" type="curve" smooth="yes"/>
      <point x="276" y="-101"/>
      <point x="295" y="-107"/>
      <point x="302" y="-107" type="curve"/>
    </contour>
  </outline>
</glyph>
<glyph name="uni17A3" format="2">
  <advance width="622"/>
  <unicode hex="17A3"/>
  <note>
uni17A3
</note>
  <anchor x="328" y="760" name="abvm"/>
  <anchor x="312" y="0" name="blwm"/>
  <outline>
    <contour>
      <point x="498" y="370" type="line"/>
      <point x="498" y="445" type="line"/>
      <point x="420" y="536" type="line"/>
      <point x="485" y="641" type="line"/>
      <point x="497" y="631"/>
      <point x="530" y="587"/>
      <point x="560" y="587" type="curve" smooth="yes"/>
      <point x="572" y="587"/>
      <point x="582" y="595"/>
      <point x="582" y="612" type="curve"/>
      <point x="551" y="609"/>
      <point x="527" y="634"/>
      <point x="483" y="682" type="curve"/>
      <point x="407" y="568"/>
      <point x="393" y="547"/>
      <point x="393" y="538" type="curve" smooth="yes"/>
      <point x="393" y="528"/>
      <point x="401" y="513"/>
      <point x="472" y="435" type="curve"/>
      <point x="472" y="370" type="line"/>
    </contour>
    <contour>
      <point x="472" y="303" type="line"/>
      <point x="498" y="303" type="line"/>
      <point x="498" y="398" type="line"/>
      <point x="472" y="398" type="line"/>
      <point x="472" y="349" type="line"/>
      <point x="192" y="349" type="line"/>
      <point x="192" y="398" type="line"/>
      <point x="166" y="398" type="line"/>
      <point x="166" y="303" type="line"/>
      <point x="192" y="303" type="line"/>
      <point x="192" y="323" type="line"/>
      <point x="472" y="323" type="line"/>
    </contour>
    <contour>
      <point x="192" y="370" type="line"/>
      <point x="192" y="445" type="line"/>
      <point x="114" y="536" type="line"/>
      <point x="179" y="641" type="line"/>
      <point x="191" y="631"/>
      <point x="224" y="587"/>
      <point x="254" y="587" type="curve" smooth="yes"/>
      <point x="266" y="587"/>
      <point x="276" y="595"/>
      <point x="276" y="612" type="curve"/>
      <point x="245" y="609"/>
      <point x="221" y="634"/>
      <point x="177" y="682" type="curve"/>
      <point x="101" y="568"/>
      <point x="87" y="547"/>
      <point x="87" y="538" type="curve" smooth="yes"/>
      <point x="87" y="528"/>
      <point x="95" y="513"/>
      <point x="166" y="435" type="curve"/>
      <point x="166" y="370" type="line"/>
    </contour>
    <contour>
      <point x="498" y="380" type="line"/>
      <point x="472" y="380" type="line"/>
      <point x="472" y="228" type="line"/>
      <point x="404" y="226"/>
      <point x="391" y="169"/>
      <point x="391" y="137" type="curve" smooth="yes"/>
      <point x="391" y="96"/>
      <point x="411" y="56"/>
      <point x="472" y="0" type="curve"/>
      <point x="498" y="0" type="line"/>
    </contour>
    <contour>
      <point x="472" y="35" type="line"/>
      <point x="444" y="68"/>
      <point x="417" y="92"/>
      <point x="417" y="137" type="curve" smooth="yes"/>
      <point x="417" y="165"/>
      <point x="427" y="199"/>
      <point x="472" y="202" type="curve"/>
    </contour>
    <contour>
      <point x="192" y="380" type="line"/>
      <point x="166" y="380" type="line"/>
      <point x="166" y="228" type="line"/>
      <point x="98" y="226"/>
      <point x="85" y="169"/>
      <point x="85" y="137" type="curve" smooth="yes"/>
      <point x="85" y="96"/>
      <point x="105" y="56"/>
      <point x="166" y="0" type="curve"/>
      <point x="192" y="0" type="line"/>
    </contour>
    <contour>
      <point x="166" y="35" type="line"/>
      <point x="138" y="68"/>
      <point x="111" y="92"/>
      <point x="111" y="137" type="curve" smooth="yes"/>
      <point x="111" y="165"/>
      <point x="121" y="199"/>
      <point x="166" y="202" type="curve"/>
    </contour>
  </outline>
</glyph>
<glyph name="uni17A5" format="2">
  <advance width="617"/>
  <unicode hex="17A5"/>
  <note>
uni17A5
</note>
  <outline>
    <contour>
      <point x="156" y="281" type="line"/>
      <point x="182" y="281" type="line"/>
      <point x="182" y="375" type="line" smooth="yes"/>
      <point x="182" y="431"/>
      <point x="240" y="487"/>
      <point x="325" y="487" type="curve" smooth="yes"/>
      <point x="402" y="487"/>
      <point x="466" y="430"/>
      <point x="466" y="375" type="curve" smooth="yes"/>
      <point x="466" y="0" type="line"/>
      <point x="492" y="0" type="line"/>
      <point x="492" y="370" type="line" smooth="yes"/>
      <point x="492" y="442"/>
      <point x="420" y="513"/>
      <point x="325" y="513" type="curve" smooth="yes"/>
      <point x="227" y="513"/>
      <point x="156" y="444"/>
      <point x="156" y="370" type="curve" smooth="yes"/>
    </contour>
    <contour>
      <point x="156" y="316" type="line"/>
      <point x="156" y="0" type="line"/>
      <point x="182" y="0" type="line"/>
      <point x="234" y="44"/>
      <point x="262" y="102"/>
      <point x="262" y="147" type="curve" smooth="yes"/>
      <point x="262" y="194"/>
      <point x="230" y="227"/>
      <point x="182" y="225" type="curve"/>
      <point x="182" y="316" type="line"/>
    </contour>
    <contour>
      <point x="182" y="199" type="line"/>
      <point x="210" y="202"/>
      <point x="236" y="190"/>
      <point x="236" y="147" type="curve" smooth="yes"/>
      <point x="236" y="105"/>
      <point x="211" y="64"/>
      <point x="182" y="33" type="curve"/>
    </contour>
    <contour>
      <point x="184" y="489" type="curve"/>
      <point x="202" y="509" type="line"/>
      <point x="170" y="545"/>
      <point x="147" y="577"/>
      <point x="147" y="592" type="curve" smooth="yes"/>
      <point x="147" y="601"/>
      <point x="149" y="618"/>
      <point x="186" y="657" type="curve" smooth="yes"/>
      <point x="215" y="687"/>
      <point x="230" y="699"/>
      <point x="240" y="699" type="curve" smooth="yes"/>
      <point x="251" y="699"/>
      <point x="266" y="670"/>
      <point x="305" y="629" type="curve" smooth="yes"/>
      <point x="347" y="585"/>
      <point x="383" y="564"/>
      <point x="416" y="564" type="curve" smooth="yes"/>
      <point x="448" y="564"/>
      <point x="517" y="585"/>
      <point x="517" y="685" type="curve" smooth="yes"/>
      <point x="517" y="754"/>
      <point x="472" y="804"/>
      <point x="397" y="804" type="curve" smooth="yes"/>
      <point x="384" y="804"/>
      <point x="371" y="791"/>
      <point x="376" y="769" type="curve"/>
      <point x="453" y="785"/>
      <point x="491" y="743"/>
      <point x="491" y="683" type="curve" smooth="yes"/>
      <point x="491" y="628"/>
      <point x="470" y="590"/>
      <point x="417" y="590" type="curve" smooth="yes"/>
      <point x="374" y="590"/>
      <point x="347" y="624"/>
      <point x="316" y="655" type="curve" smooth="yes"/>
      <point x="280" y="691"/>
      <point x="265" y="725"/>
      <point x="240" y="725" type="curve" smooth="yes"/>
      <point x="218" y="725"/>
      <point x="205" y="713"/>
      <point x="165" y="673" type="curve" smooth="yes"/>
      <point x="123" y="631"/>
      <point x="120" y="608"/>
      <point x="120" y="592" type="curve" smooth="yes"/>
      <point x="120" y="572"/>
      <point x="139" y="539"/>
    </contour>
  </outline>
</glyph>
<glyph name="uni17A6" format="2">
  <advance width="923"/>
  <unicode hex="17A6"/>
  <note>
uni17A6
</note>
  <outline>
    <contour>
      <point x="756" y="371" type="line"/>
      <point x="756" y="-171" type="line" smooth="yes"/>
      <point x="756" y="-241"/>
      <point x="707" y="-291"/>
      <point x="609" y="-291" type="curve" smooth="yes"/>
      <point x="519" y="-291"/>
      <point x="470" y="-248"/>
      <point x="470" y="-171" type="curve" smooth="yes"/>
      <point x="470" y="-106"/>
      <point x="440" y="-24"/>
      <point x="324" y="-24" type="curve" smooth="yes"/>
      <point x="208" y="-24"/>
      <point x="178" y="-106"/>
      <point x="178" y="-171" type="curve" smooth="yes"/>
      <point x="178" y="-285" type="line" smooth="yes"/>
      <point x="178" y="-307"/>
      <point x="196" y="-317"/>
      <point x="210" y="-317" type="curve" smooth="yes"/>
      <point x="227" y="-317"/>
      <point x="242" y="-300"/>
      <point x="242" y="-279" type="curve" smooth="yes"/>
      <point x="242" y="-258"/>
      <point x="227" y="-241"/>
      <point x="204" y="-241" type="curve"/>
      <point x="204" y="-171" type="line" smooth="yes"/>
      <point x="204" y="-133"/>
      <point x="218" y="-50"/>
      <point x="324" y="-50" type="curve" smooth="yes"/>
      <point x="430" y="-50"/>
      <point x="444" y="-126"/>
      <point x="444" y="-171" type="curve" smooth="yes"/>
      <point x="444" y="-256"/>
      <point x="495" y="-317"/>
      <point x="610" y="-317" type="curve" smooth="yes"/>
      <point x="728" y="-317"/>
      <point x="782" y="-246"/>
      <point x="782" y="-171" type="curve" smooth="yes"/>
      <point x="782" y="371" type="line"/>
    </contour>
    <contour>
      <point x="156" y="279" type="line"/>
      <point x="182" y="279" type="line"/>
      <point x="182" y="543" type="line" smooth="yes"/>
      <point x="182" y="599"/>
      <point x="240" y="655"/>
      <point x="325" y="655" type="curve" smooth="yes"/>
      <point x="402" y="655"/>
      <point x="466" y="598"/>
      <point x="466" y="543" type="curve" smooth="yes"/>
      <point x="466" y="0" type="line"/>
      <point x="492" y="0" type="line"/>
      <point x="492" y="538" type="line" smooth="yes"/>
      <point x="492" y="610"/>
      <point x="420" y="681"/>
      <point x="325" y="681" type="curve" smooth="yes"/>
      <point x="227" y="681"/>
      <point x="156" y="612"/>
      <point x="156" y="538" type="curve" smooth="yes"/>
    </contour>
    <contour>
      <point x="756" y="330" type="line"/>
      <point x="782" y="330" type="line"/>
      <point x="782" y="445" type="line"/>
      <point x="703" y="537" type="line"/>
      <point x="771" y="644" type="line"/>
      <point x="783" y="633"/>
      <point x="798" y="628"/>
      <point x="812" y="628" type="curve" smooth="yes"/>
      <point x="847" y="628"/>
      <point x="873" y="657"/>
      <point x="873" y="695" type="curve" smooth="yes"/>
      <point x="873" y="740"/>
      <point x="838" y="773"/>
      <point x="818" y="773" type="curve" smooth="yes"/>
      <point x="806" y="773"/>
      <point x="793" y="762"/>
      <point x="794" y="746" type="curve"/>
      <point x="821" y="746"/>
      <point x="847" y="722"/>
      <point x="847" y="693" type="curve" smooth="yes"/>
      <point x="847" y="667"/>
      <point x="829" y="654"/>
      <point x="813" y="654" type="curve" smooth="yes"/>
      <point x="799" y="654"/>
      <point x="787" y="663"/>
      <point x="767" y="682" type="curve"/>
      <point x="691" y="568"/>
      <point x="677" y="547"/>
      <point x="677" y="535" type="curve" smooth="yes"/>
      <point x="677" y="526"/>
      <point x="685" y="517"/>
      <point x="756" y="435" type="curve"/>
    </contour>
    <contour>
      <point x="156" y="316" type="line"/>
      <point x="156" y="0" type="line"/>
      <point x="182" y="0" type="line"/>
      <point x="234" y="44"/>
      <point x="262" y="102"/>
      <point x="262" y="147" type="curve" smooth="yes"/>
      <point x="262" y="194"/>
      <point x="230" y="227"/>
      <point x="182" y="225" type="curve"/>
      <point x="182" y="316" type="line"/>
    </contour>
    <contour>
      <point x="182" y="199" type="line"/>
      <point x="210" y="202"/>
      <point x="236" y="190"/>
      <point x="236" y="147" type="curve" smooth="yes"/>
      <point x="236" y="105"/>
      <point x="211" y="64"/>
      <point x="182" y="33" type="curve"/>
    </contour>
  </outline>
</glyph>
<glyph name="uni17A7" format="2">
  <advance width="614"/>
  <unicode hex="17A7"/>
  <note>
uni17A7
</note>
  <anchor x="324" y="760" name="abvm"/>
  <anchor x="324" y="-49" name="blwm"/>
  <outline>
    <contour>
      <point x="154" y="513" type="line"/>
      <point x="180" y="513" type="line"/>
      <point x="180" y="549" type="line" smooth="yes"/>
      <point x="180" y="602"/>
      <point x="234" y="656"/>
      <point x="324" y="656" type="curve" smooth="yes"/>
      <point x="414" y="656"/>
      <point x="468" y="604"/>
      <point x="468" y="549" type="curve" smooth="yes"/>
      <point x="468" y="463" type="line" smooth="yes"/>
      <point x="468" y="437"/>
      <point x="404" y="390"/>
      <point x="294" y="322" type="curve" smooth="yes"/>
      <point x="154" y="235" type="line"/>
      <point x="154" y="119" type="line" smooth="yes"/>
      <point x="154" y="33"/>
      <point x="197" y="0"/>
      <point x="238" y="0" type="curve" smooth="yes"/>
      <point x="283" y="0"/>
      <point x="320" y="40"/>
      <point x="368" y="82" type="curve" smooth="yes"/>
      <point x="396" y="106"/>
      <point x="455" y="155"/>
      <point x="468" y="155" type="curve"/>
      <point x="468" y="21" type="line" smooth="yes"/>
      <point x="468" y="9"/>
      <point x="464" y="-6"/>
      <point x="444" y="-18" type="curve"/>
      <point x="444" y="-41"/>
      <point x="459" y="-49"/>
      <point x="469" y="-49" type="curve" smooth="yes"/>
      <point x="485" y="-49"/>
      <point x="494" y="-28"/>
      <point x="494" y="-2" type="curve" smooth="yes"/>
      <point x="494" y="252" type="line"/>
      <point x="468" y="235" type="line"/>
      <point x="468" y="181" type="line"/>
      <point x="426" y="169"/>
      <point x="392" y="140"/>
      <point x="337" y="88" type="curve" smooth="yes"/>
      <point x="291" y="44"/>
      <point x="266" y="26"/>
      <point x="240" y="26" type="curve" smooth="yes"/>
      <point x="201" y="26"/>
      <point x="180" y="66"/>
      <point x="180" y="111" type="curve" smooth="yes"/>
      <point x="180" y="219" type="line"/>
      <point x="336" y="318" type="line" smooth="yes"/>
      <point x="434" y="380"/>
      <point x="494" y="411"/>
      <point x="494" y="476" type="curve" smooth="yes"/>
      <point x="494" y="556" type="line" smooth="yes"/>
      <point x="494" y="619"/>
      <point x="424" y="682"/>
      <point x="324" y="682" type="curve" smooth="yes"/>
      <point x="224" y="682"/>
      <point x="154" y="620"/>
      <point x="154" y="556" type="curve" smooth="yes"/>
    </contour>
    <contour>
      <point x="180" y="536" type="line"/>
      <point x="154" y="536" type="line"/>
      <point x="154" y="397" type="line" smooth="yes"/>
      <point x="154" y="377"/>
      <point x="168" y="372"/>
      <point x="180" y="372" type="curve" smooth="yes"/>
      <point x="207" y="372"/>
      <point x="246" y="401"/>
      <point x="246" y="452" type="curve" smooth="yes"/>
      <point x="246" y="502"/>
      <point x="208" y="528"/>
      <point x="180" y="528" type="curve"/>
    </contour>
    <contour>
      <point x="180" y="502" type="line"/>
      <point x="195" y="502"/>
      <point x="220" y="487"/>
      <point x="220" y="453" type="curve" smooth="yes"/>
      <point x="220" y="428"/>
      <point x="206" y="400"/>
      <point x="180" y="398" type="curve"/>
    </contour>
  </outline>
</glyph>
<glyph name="uni17A8" format="2">
  <advance width="624"/>
  <unicode hex="17A8"/>
  <note>
uni17A8
</note>
  <anchor x="329" y="939" name="abvm"/>
  <anchor x="337" y="-49" name="blwm"/>
  <outline>
    <contour>
      <point x="154" y="513" type="line"/>
      <point x="180" y="513" type="line"/>
      <point x="180" y="549" type="line" smooth="yes"/>
      <point x="180" y="602"/>
      <point x="234" y="656"/>
      <point x="324" y="656" type="curve" smooth="yes"/>
      <point x="414" y="656"/>
      <point x="468" y="604"/>
      <point x="468" y="549" type="curve" smooth="yes"/>
      <point x="468" y="463" type="line" smooth="yes"/>
      <point x="468" y="437"/>
      <point x="404" y="390"/>
      <point x="294" y="322" type="curve" smooth="yes"/>
      <point x="154" y="235" type="line"/>
      <point x="154" y="119" type="line" smooth="yes"/>
      <point x="154" y="33"/>
      <point x="197" y="0"/>
      <point x="238" y="0" type="curve" smooth="yes"/>
      <point x="283" y="0"/>
      <point x="320" y="40"/>
      <point x="368" y="82" type="curve" smooth="yes"/>
      <point x="396" y="106"/>
      <point x="455" y="155"/>
      <point x="468" y="155" type="curve"/>
      <point x="468" y="21" type="line" smooth="yes"/>
      <point x="468" y="9"/>
      <point x="464" y="-6"/>
      <point x="444" y="-18" type="curve"/>
      <point x="444" y="-41"/>
      <point x="459" y="-49"/>
      <point x="469" y="-49" type="curve" smooth="yes"/>
      <point x="485" y="-49"/>
      <point x="494" y="-28"/>
      <point x="494" y="-2" type="curve" smooth="yes"/>
      <point x="494" y="252" type="line"/>
      <point x="468" y="235" type="line"/>
      <point x="468" y="181" type="line"/>
      <point x="426" y="169"/>
      <point x="392" y="140"/>
      <point x="337" y="88" type="curve" smooth="yes"/>
      <point x="291" y="44"/>
      <point x="266" y="26"/>
      <point x="240" y="26" type="curve" smooth="yes"/>
      <point x="201" y="26"/>
      <point x="180" y="66"/>
      <point x="180" y="111" type="curve" smooth="yes"/>
      <point x="180" y="219" type="line"/>
      <point x="336" y="318" type="line" smooth="yes"/>
      <point x="434" y="380"/>
      <point x="494" y="411"/>
      <point x="494" y="476" type="curve" smooth="yes"/>
      <point x="494" y="556" type="line" smooth="yes"/>
      <point x="494" y="619"/>
      <point x="424" y="682"/>
      <point x="324" y="682" type="curve" smooth="yes"/>
      <point x="224" y="682"/>
      <point x="154" y="620"/>
      <point x="154" y="556" type="curve" smooth="yes"/>
    </contour>
    <contour>
      <point x="180" y="536" type="line"/>
      <point x="154" y="536" type="line"/>
      <point x="154" y="397" type="line" smooth="yes"/>
      <point x="154" y="377"/>
      <point x="168" y="372"/>
      <point x="180" y="372" type="curve" smooth="yes"/>
      <point x="207" y="372"/>
      <point x="246" y="401"/>
      <point x="246" y="452" type="curve" smooth="yes"/>
      <point x="246" y="502"/>
      <point x="208" y="528"/>
      <point x="180" y="528" type="curve"/>
    </contour>
    <contour>
      <point x="180" y="502" type="line"/>
      <point x="195" y="502"/>
      <point x="220" y="487"/>
      <point x="220" y="453" type="curve" smooth="yes"/>
      <point x="220" y="428"/>
      <point x="206" y="400"/>
      <point x="180" y="398" type="curve"/>
    </contour>
    <contour>
      <point x="165" y="708" type="line"/>
      <point x="128" y="756"/>
      <point x="122" y="771"/>
      <point x="122" y="779" type="curve" smooth="yes"/>
      <point x="122" y="795"/>
      <point x="140" y="819"/>
      <point x="157" y="838" type="curve" smooth="yes"/>
      <point x="175" y="858"/>
      <point x="194" y="877"/>
      <point x="207" y="877" type="curve" smooth="yes"/>
      <point x="217" y="877"/>
      <point x="231" y="858"/>
      <point x="252" y="830" type="curve" smooth="yes"/>
      <point x="274" y="801"/>
      <point x="290" y="783"/>
      <point x="310" y="783" type="curve" smooth="yes"/>
      <point x="324" y="783"/>
      <point x="341" y="791"/>
      <point x="371" y="825" type="curve" smooth="yes"/>
      <point x="396" y="853"/>
      <point x="410" y="877"/>
      <point x="418" y="877" type="curve" smooth="yes"/>
      <point x="433" y="877"/>
      <point x="500" y="762"/>
      <point x="525" y="762" type="curve" smooth="yes"/>
      <point x="533" y="762"/>
      <point x="543" y="769"/>
      <point x="543" y="786" type="curve"/>
      <point x="528" y="786"/>
      <point x="517" y="797"/>
      <point x="505" y="812" type="curve" smooth="yes"/>
      <point x="460" y="870" type="line" smooth="yes"/>
      <point x="443" y="891"/>
      <point x="433" y="903"/>
      <point x="421" y="903" type="curve" smooth="yes"/>
      <point x="406" y="903"/>
      <point x="398" y="895"/>
      <point x="356" y="847" type="curve" smooth="yes"/>
      <point x="332" y="819"/>
      <point x="317" y="809"/>
      <point x="310" y="809" type="curve" smooth="yes"/>
      <point x="300" y="809"/>
      <point x="288" y="825"/>
      <point x="265" y="856" type="curve" smooth="yes"/>
      <point x="237" y="893"/>
      <point x="224" y="903"/>
      <point x="208" y="903" type="curve" smooth="yes"/>
      <point x="200" y="903"/>
      <point x="179" y="902"/>
      <point x="135" y="852" type="curve" smooth="yes"/>
      <point x="95" y="806"/>
      <point x="95" y="790"/>
      <point x="95" y="779" type="curve" smooth="yes"/>
      <point x="95" y="766"/>
      <point x="102" y="749"/>
      <point x="146" y="690" type="curve"/>
    </contour>
  </outline>
</glyph>
<glyph name="uni17AA" format="2">
  <advance width="708"/>
  <unicode hex="17AA"/>
  <note>
uni17AA
</note>
  <anchor x="329" y="1057" name="abvm"/>
  <anchor x="337" y="-49" name="blwm"/>
  <outline>
    <contour>
      <point x="154" y="513" type="line"/>
      <point x="180" y="513" type="line"/>
      <point x="180" y="549" type="line" smooth="yes"/>
      <point x="180" y="602"/>
      <point x="234" y="656"/>
      <point x="324" y="656" type="curve" smooth="yes"/>
      <point x="414" y="656"/>
      <point x="468" y="604"/>
      <point x="468" y="549" type="curve" smooth="yes"/>
      <point x="468" y="463" type="line" smooth="yes"/>
      <point x="468" y="437"/>
      <point x="404" y="390"/>
      <point x="294" y="322" type="curve" smooth="yes"/>
      <point x="154" y="235" type="line"/>
      <point x="154" y="119" type="line" smooth="yes"/>
      <point x="154" y="33"/>
      <point x="197" y="0"/>
      <point x="238" y="0" type="curve" smooth="yes"/>
      <point x="283" y="0"/>
      <point x="320" y="40"/>
      <point x="368" y="82" type="curve" smooth="yes"/>
      <point x="396" y="106"/>
      <point x="455" y="155"/>
      <point x="468" y="155" type="curve"/>
      <point x="468" y="21" type="line" smooth="yes"/>
      <point x="468" y="9"/>
      <point x="464" y="-6"/>
      <point x="444" y="-18" type="curve"/>
      <point x="444" y="-41"/>
      <point x="459" y="-49"/>
      <point x="469" y="-49" type="curve" smooth="yes"/>
      <point x="485" y="-49"/>
      <point x="494" y="-28"/>
      <point x="494" y="-2" type="curve" smooth="yes"/>
      <point x="494" y="252" type="line"/>
      <point x="468" y="235" type="line"/>
      <point x="468" y="181" type="line"/>
      <point x="426" y="169"/>
      <point x="392" y="140"/>
      <point x="337" y="88" type="curve" smooth="yes"/>
      <point x="291" y="44"/>
      <point x="266" y="26"/>
      <point x="240" y="26" type="curve" smooth="yes"/>
      <point x="201" y="26"/>
      <point x="180" y="66"/>
      <point x="180" y="111" type="curve" smooth="yes"/>
      <point x="180" y="219" type="line"/>
      <point x="336" y="318" type="line" smooth="yes"/>
      <point x="434" y="380"/>
      <point x="494" y="411"/>
      <point x="494" y="476" type="curve" smooth="yes"/>
      <point x="494" y="556" type="line" smooth="yes"/>
      <point x="494" y="619"/>
      <point x="424" y="682"/>
      <point x="324" y="682" type="curve" smooth="yes"/>
      <point x="224" y="682"/>
      <point x="154" y="620"/>
      <point x="154" y="556" type="curve" smooth="yes"/>
    </contour>
    <contour>
      <point x="180" y="536" type="line"/>
      <point x="154" y="536" type="line"/>
      <point x="154" y="397" type="line" smooth="yes"/>
      <point x="154" y="377"/>
      <point x="168" y="372"/>
      <point x="180" y="372" type="curve" smooth="yes"/>
      <point x="207" y="372"/>
      <point x="246" y="401"/>
      <point x="246" y="452" type="curve" smooth="yes"/>
      <point x="246" y="502"/>
      <point x="208" y="528"/>
      <point x="180" y="528" type="curve"/>
    </contour>
    <contour>
      <point x="180" y="502" type="line"/>
      <point x="195" y="502"/>
      <point x="220" y="487"/>
      <point x="220" y="453" type="curve" smooth="yes"/>
      <point x="220" y="428"/>
      <point x="206" y="400"/>
      <point x="180" y="398" type="curve"/>
    </contour>
    <contour>
      <point x="180" y="674" type="curve"/>
      <point x="198" y="694" type="line"/>
      <point x="166" y="730"/>
      <point x="143" y="762"/>
      <point x="143" y="777" type="curve" smooth="yes"/>
      <point x="143" y="786"/>
      <point x="145" y="803"/>
      <point x="182" y="842" type="curve" smooth="yes"/>
      <point x="211" y="872"/>
      <point x="226" y="884"/>
      <point x="236" y="884" type="curve" smooth="yes"/>
      <point x="247" y="884"/>
      <point x="262" y="855"/>
      <point x="301" y="814" type="curve" smooth="yes"/>
      <point x="343" y="770"/>
      <point x="379" y="749"/>
      <point x="412" y="749" type="curve" smooth="yes"/>
      <point x="444" y="749"/>
      <point x="513" y="770"/>
      <point x="513" y="870" type="curve" smooth="yes"/>
      <point x="513" y="939"/>
      <point x="468" y="989"/>
      <point x="393" y="989" type="curve" smooth="yes"/>
      <point x="380" y="989"/>
      <point x="367" y="976"/>
      <point x="372" y="954" type="curve"/>
      <point x="449" y="970"/>
      <point x="487" y="928"/>
      <point x="487" y="868" type="curve" smooth="yes"/>
      <point x="487" y="813"/>
      <point x="466" y="775"/>
      <point x="413" y="775" type="curve" smooth="yes"/>
      <point x="370" y="775"/>
      <point x="343" y="809"/>
      <point x="312" y="840" type="curve" smooth="yes"/>
      <point x="276" y="876"/>
      <point x="261" y="910"/>
      <point x="236" y="910" type="curve" smooth="yes"/>
      <point x="214" y="910"/>
      <point x="201" y="898"/>
      <point x="161" y="858" type="curve" smooth="yes"/>
      <point x="119" y="816"/>
      <point x="116" y="793"/>
      <point x="116" y="777" type="curve" smooth="yes"/>
      <point x="116" y="757"/>
      <point x="135" y="724"/>
    </contour>
  </outline>
</glyph>
<glyph name="uni17AB" format="2">
  <advance width="621"/>
  <unicode hex="17AB"/>
  <note>
uni17AB
</note>
  <anchor x="331" y="760" name="abvm"/>
  <anchor x="276" y="0" name="blwm"/>
  <outline>
    <contour>
      <point x="437" y="384" type="line"/>
      <point x="411" y="384" type="line"/>
      <point x="411" y="136" type="line" smooth="yes"/>
      <point x="411" y="77"/>
      <point x="340" y="26"/>
      <point x="278" y="26" type="curve" smooth="yes"/>
      <point x="218" y="26"/>
      <point x="145" y="76"/>
      <point x="145" y="136" type="curve" smooth="yes"/>
      <point x="145" y="384" type="line"/>
      <point x="119" y="384" type="line"/>
      <point x="119" y="132" type="line" smooth="yes"/>
      <point x="119" y="54"/>
      <point x="208" y="0"/>
      <point x="278" y="0" type="curve" smooth="yes"/>
      <point x="348" y="0"/>
      <point x="437" y="62"/>
      <point x="437" y="132" type="curve" smooth="yes"/>
    </contour>
    <contour>
      <point x="145" y="370" type="line"/>
      <point x="145" y="445" type="line"/>
      <point x="67" y="536" type="line"/>
      <point x="132" y="641" type="line"/>
      <point x="144" y="631"/>
      <point x="177" y="587"/>
      <point x="207" y="587" type="curve" smooth="yes"/>
      <point x="219" y="587"/>
      <point x="229" y="595"/>
      <point x="229" y="612" type="curve"/>
      <point x="198" y="609"/>
      <point x="174" y="634"/>
      <point x="130" y="682" type="curve"/>
      <point x="54" y="568"/>
      <point x="40" y="547"/>
      <point x="40" y="538" type="curve" smooth="yes"/>
      <point x="40" y="528"/>
      <point x="48" y="513"/>
      <point x="119" y="435" type="curve"/>
      <point x="119" y="370" type="line"/>
    </contour>
    <contour>
      <point x="437" y="370" type="line"/>
      <point x="437" y="445" type="line"/>
      <point x="359" y="536" type="line"/>
      <point x="424" y="641" type="line"/>
      <point x="436" y="631"/>
      <point x="469" y="587"/>
      <point x="499" y="587" type="curve" smooth="yes"/>
      <point x="511" y="587"/>
      <point x="521" y="595"/>
      <point x="521" y="612" type="curve"/>
      <point x="490" y="609"/>
      <point x="466" y="634"/>
      <point x="422" y="682" type="curve"/>
      <point x="346" y="568"/>
      <point x="332" y="547"/>
      <point x="332" y="538" type="curve" smooth="yes"/>
      <point x="332" y="528"/>
      <point x="340" y="513"/>
      <point x="411" y="435" type="curve"/>
      <point x="411" y="370" type="line"/>
    </contour>
    <contour>
      <point x="469" y="-134" type="curve" smooth="yes"/>
      <point x="469" y="-68"/>
      <point x="434" y="-41"/>
      <point x="406" y="-41" type="curve" smooth="yes"/>
      <point x="390" y="-41"/>
      <point x="383" y="-53"/>
      <point x="384" y="-74" type="curve"/>
      <point x="417" y="-74"/>
      <point x="442" y="-90"/>
      <point x="442" y="-138" type="curve" smooth="yes"/>
      <point x="442" y="-213"/>
      <point x="377" y="-243"/>
      <point x="319" y="-243" type="curve" smooth="yes"/>
      <point x="219" y="-243"/>
      <point x="139" y="-153"/>
      <point x="114" y="-121" type="curve"/>
      <point x="88" y="-121" type="line"/>
      <point x="113" y="-159"/>
      <point x="199" y="-269"/>
      <point x="321" y="-269" type="curve" smooth="yes"/>
      <point x="397" y="-269"/>
      <point x="469" y="-225"/>
    </contour>
  </outline>
</glyph>
<glyph name="uni17AC" format="2">
  <advance width="641"/>
  <unicode hex="17AC"/>
  <note>
uni17AC
</note>
  <anchor x="331" y="760" name="abvm"/>
  <anchor x="276" y="0" name="blwm"/>
  <outline>
    <contour>
      <point x="437" y="384" type="line"/>
      <point x="411" y="384" type="line"/>
      <point x="411" y="136" type="line" smooth="yes"/>
      <point x="411" y="77"/>
      <point x="340" y="26"/>
      <point x="278" y="26" type="curve" smooth="yes"/>
      <point x="218" y="26"/>
      <point x="145" y="76"/>
      <point x="145" y="136" type="curve" smooth="yes"/>
      <point x="145" y="384" type="line"/>
      <point x="119" y="384" type="line"/>
      <point x="119" y="132" type="line" smooth="yes"/>
      <point x="119" y="54"/>
      <point x="208" y="0"/>
      <point x="278" y="0" type="curve" smooth="yes"/>
      <point x="348" y="0"/>
      <point x="437" y="62"/>
      <point x="437" y="132" type="curve" smooth="yes"/>
    </contour>
    <contour>
      <point x="145" y="370" type="line"/>
      <point x="145" y="445" type="line"/>
      <point x="67" y="536" type="line"/>
      <point x="132" y="641" type="line"/>
      <point x="144" y="631"/>
      <point x="177" y="587"/>
      <point x="207" y="587" type="curve" smooth="yes"/>
      <point x="219" y="587"/>
      <point x="229" y="595"/>
      <point x="229" y="612" type="curve"/>
      <point x="198" y="609"/>
      <point x="174" y="634"/>
      <point x="130" y="682" type="curve"/>
      <point x="54" y="568"/>
      <point x="40" y="547"/>
      <point x="40" y="538" type="curve" smooth="yes"/>
      <point x="40" y="528"/>
      <point x="48" y="513"/>
      <point x="119" y="435" type="curve"/>
      <point x="119" y="370" type="line"/>
    </contour>
    <contour>
      <point x="437" y="370" type="line"/>
      <point x="437" y="445" type="line"/>
      <point x="359" y="536" type="line"/>
      <point x="424" y="641" type="line"/>
      <point x="436" y="631"/>
      <point x="469" y="587"/>
      <point x="499" y="587" type="curve" smooth="yes"/>
      <point x="511" y="587"/>
      <point x="521" y="595"/>
      <point x="521" y="612" type="curve"/>
      <point x="490" y="609"/>
      <point x="466" y="634"/>
      <point x="422" y="682" type="curve"/>
      <point x="346" y="568"/>
      <point x="332" y="547"/>
      <point x="332" y="538" type="curve" smooth="yes"/>
      <point x="332" y="528"/>
      <point x="340" y="513"/>
      <point x="411" y="435" type="curve"/>
      <point x="411" y="370" type="line"/>
    </contour>
    <contour>
      <point x="443" y="-226" type="line"/>
      <point x="460" y="-246"/>
      <point x="486" y="-269"/>
      <point x="524" y="-269" type="curve" smooth="yes"/>
      <point x="555" y="-269"/>
      <point x="581" y="-254"/>
      <point x="581" y="-234" type="curve"/>
      <point x="528" y="-246"/>
      <point x="496" y="-243"/>
      <point x="466" y="-209" type="curve"/>
    </contour>
    <contour>
      <point x="495" y="-134" type="curve" smooth="yes"/>
      <point x="495" y="-68"/>
      <point x="460" y="-41"/>
      <point x="432" y="-41" type="curve" smooth="yes"/>
      <point x="416" y="-41"/>
      <point x="409" y="-53"/>
      <point x="410" y="-74" type="curve"/>
      <point x="443" y="-74"/>
      <point x="468" y="-90"/>
      <point x="468" y="-138" type="curve" smooth="yes"/>
      <point x="468" y="-213"/>
      <point x="403" y="-243"/>
      <point x="345" y="-243" type="curve" smooth="yes"/>
      <point x="245" y="-243"/>
      <point x="165" y="-153"/>
      <point x="140" y="-121" type="curve"/>
      <point x="114" y="-121" type="line"/>
      <point x="139" y="-159"/>
      <point x="225" y="-269"/>
      <point x="347" y="-269" type="curve" smooth="yes"/>
      <point x="423" y="-269"/>
      <point x="495" y="-225"/>
    </contour>
  </outline>
</glyph>
<glyph name="uni17AD" format="2">
  <advance width="593"/>
  <unicode hex="17AD"/>
  <note>
uni17AD
</note>
  <anchor x="284" y="760" name="abvm"/>
  <anchor x="305" y="0" name="blwm"/>
  <outline>
    <contour>
      <point x="105" y="302" type="line"/>
      <point x="131" y="302" type="line"/>
      <point x="131" y="479" type="line"/>
      <point x="105" y="516"/>
      <point x="87" y="542"/>
      <point x="87" y="551" type="curve" smooth="yes"/>
      <point x="87" y="559"/>
      <point x="92" y="576"/>
      <point x="126" y="613" type="curve" smooth="yes"/>
      <point x="153" y="643"/>
      <point x="169" y="655"/>
      <point x="174" y="655" type="curve" smooth="yes"/>
      <point x="186" y="655"/>
      <point x="225" y="578"/>
      <point x="256" y="578" type="curve" smooth="yes"/>
      <point x="287" y="578"/>
      <point x="317" y="656"/>
      <point x="348" y="656" type="curve" smooth="yes"/>
      <point x="376" y="656"/>
      <point x="415" y="592"/>
      <point x="415" y="531" type="curve" smooth="yes"/>
      <point x="415" y="0" type="line"/>
      <point x="441" y="0" type="line"/>
      <point x="441" y="531" type="line" smooth="yes"/>
      <point x="441" y="604"/>
      <point x="392" y="682"/>
      <point x="346" y="682" type="curve" smooth="yes"/>
      <point x="323" y="682"/>
      <point x="305" y="664"/>
      <point x="292" y="648" type="curve" smooth="yes"/>
      <point x="277" y="629"/>
      <point x="260" y="607"/>
      <point x="255" y="607" type="curve" smooth="yes"/>
      <point x="248" y="607"/>
      <point x="239" y="617"/>
      <point x="222" y="640" type="curve" smooth="yes"/>
      <point x="203" y="666"/>
      <point x="193" y="681"/>
      <point x="173" y="681" type="curve" smooth="yes"/>
      <point x="162" y="681"/>
      <point x="150" y="676"/>
      <point x="114" y="638" type="curve" smooth="yes"/>
      <point x="60" y="581"/>
      <point x="60" y="554"/>
      <point x="60" y="549" type="curve" smooth="yes"/>
      <point x="60" y="533"/>
      <point x="81" y="503"/>
      <point x="105" y="469" type="curve"/>
    </contour>
    <contour>
      <point x="105" y="316" type="line"/>
      <point x="105" y="0" type="line"/>
      <point x="131" y="0" type="line"/>
      <point x="183" y="44"/>
      <point x="211" y="102"/>
      <point x="211" y="147" type="curve" smooth="yes"/>
      <point x="211" y="194"/>
      <point x="179" y="227"/>
      <point x="131" y="225" type="curve"/>
      <point x="131" y="316" type="line"/>
    </contour>
    <contour>
      <point x="131" y="199" type="line"/>
      <point x="159" y="202"/>
      <point x="185" y="190"/>
      <point x="185" y="147" type="curve" smooth="yes"/>
      <point x="185" y="105"/>
      <point x="160" y="64"/>
      <point x="131" y="33" type="curve"/>
    </contour>
    <contour>
      <point x="473" y="-134" type="curve" smooth="yes"/>
      <point x="473" y="-68"/>
      <point x="438" y="-41"/>
      <point x="410" y="-41" type="curve" smooth="yes"/>
      <point x="394" y="-41"/>
      <point x="387" y="-53"/>
      <point x="388" y="-74" type="curve"/>
      <point x="421" y="-74"/>
      <point x="446" y="-90"/>
      <point x="446" y="-138" type="curve" smooth="yes"/>
      <point x="446" y="-213"/>
      <point x="381" y="-243"/>
      <point x="323" y="-243" type="curve" smooth="yes"/>
      <point x="223" y="-243"/>
      <point x="143" y="-153"/>
      <point x="118" y="-121" type="curve"/>
      <point x="92" y="-121" type="line"/>
      <point x="117" y="-159"/>
      <point x="203" y="-269"/>
      <point x="325" y="-269" type="curve" smooth="yes"/>
      <point x="401" y="-269"/>
      <point x="473" y="-225"/>
    </contour>
  </outline>
</glyph>
<glyph name="uni17AE" format="2">
  <advance width="571"/>
  <unicode hex="17AE"/>
  <note>
uni17AE
</note>
  <anchor x="284" y="760" name="abvm"/>
  <anchor x="305" y="0" name="blwm"/>
  <outline>
    <contour>
      <point x="105" y="302" type="line"/>
      <point x="131" y="302" type="line"/>
      <point x="131" y="479" type="line"/>
      <point x="105" y="516"/>
      <point x="87" y="542"/>
      <point x="87" y="551" type="curve" smooth="yes"/>
      <point x="87" y="559"/>
      <point x="92" y="576"/>
      <point x="126" y="613" type="curve" smooth="yes"/>
      <point x="153" y="643"/>
      <point x="169" y="655"/>
      <point x="174" y="655" type="curve" smooth="yes"/>
      <point x="186" y="655"/>
      <point x="225" y="578"/>
      <point x="256" y="578" type="curve" smooth="yes"/>
      <point x="287" y="578"/>
      <point x="317" y="656"/>
      <point x="348" y="656" type="curve" smooth="yes"/>
      <point x="376" y="656"/>
      <point x="415" y="592"/>
      <point x="415" y="531" type="curve" smooth="yes"/>
      <point x="415" y="0" type="line"/>
      <point x="441" y="0" type="line"/>
      <point x="441" y="531" type="line" smooth="yes"/>
      <point x="441" y="604"/>
      <point x="392" y="682"/>
      <point x="346" y="682" type="curve" smooth="yes"/>
      <point x="323" y="682"/>
      <point x="305" y="664"/>
      <point x="292" y="648" type="curve" smooth="yes"/>
      <point x="277" y="629"/>
      <point x="260" y="607"/>
      <point x="255" y="607" type="curve" smooth="yes"/>
      <point x="248" y="607"/>
      <point x="239" y="617"/>
      <point x="222" y="640" type="curve" smooth="yes"/>
      <point x="203" y="666"/>
      <point x="193" y="681"/>
      <point x="173" y="681" type="curve" smooth="yes"/>
      <point x="162" y="681"/>
      <point x="150" y="676"/>
      <point x="114" y="638" type="curve" smooth="yes"/>
      <point x="60" y="581"/>
      <point x="60" y="554"/>
      <point x="60" y="549" type="curve" smooth="yes"/>
      <point x="60" y="533"/>
      <point x="81" y="503"/>
      <point x="105" y="469" type="curve"/>
    </contour>
    <contour>
      <point x="105" y="316" type="line"/>
      <point x="105" y="0" type="line"/>
      <point x="131" y="0" type="line"/>
      <point x="183" y="44"/>
      <point x="211" y="102"/>
      <point x="211" y="147" type="curve" smooth="yes"/>
      <point x="211" y="194"/>
      <point x="179" y="227"/>
      <point x="131" y="225" type="curve"/>
      <point x="131" y="316" type="line"/>
    </contour>
    <contour>
      <point x="131" y="199" type="line"/>
      <point x="159" y="202"/>
      <point x="185" y="190"/>
      <point x="185" y="147" type="curve" smooth="yes"/>
      <point x="185" y="105"/>
      <point x="160" y="64"/>
      <point x="131" y="33" type="curve"/>
    </contour>
    <contour>
      <point x="413" y="-226" type="line"/>
      <point x="430" y="-246"/>
      <point x="456" y="-269"/>
      <point x="494" y="-269" type="curve" smooth="yes"/>
      <point x="525" y="-269"/>
      <point x="551" y="-254"/>
      <point x="551" y="-234" type="curve"/>
      <point x="498" y="-246"/>
      <point x="466" y="-243"/>
      <point x="436" y="-209" type="curve"/>
    </contour>
    <contour>
      <point x="465" y="-134" type="curve" smooth="yes"/>
      <point x="465" y="-68"/>
      <point x="430" y="-41"/>
      <point x="402" y="-41" type="curve" smooth="yes"/>
      <point x="386" y="-41"/>
      <point x="379" y="-53"/>
      <point x="380" y="-74" type="curve"/>
      <point x="413" y="-74"/>
      <point x="438" y="-90"/>
      <point x="438" y="-138" type="curve" smooth="yes"/>
      <point x="438" y="-213"/>
      <point x="373" y="-243"/>
      <point x="315" y="-243" type="curve" smooth="yes"/>
      <point x="215" y="-243"/>
      <point x="135" y="-153"/>
      <point x="110" y="-121" type="curve"/>
      <point x="84" y="-121" type="line"/>
      <point x="109" y="-159"/>
      <point x="195" y="-269"/>
      <point x="317" y="-269" type="curve" smooth="yes"/>
      <point x="393" y="-269"/>
      <point x="465" y="-225"/>
    </contour>
  </outline>
</glyph>
<glyph name="uni17AF" format="2">
  <advance width="616"/>
  <unicode hex="17AF"/>
  <note>
uni17AF
</note>
  <outline>
    <contour>
      <point x="182" y="206" type="line"/>
      <point x="156" y="206" type="line"/>
      <point x="156" y="0" type="line"/>
      <point x="189" y="0" type="line"/>
      <point x="326" y="155" type="line"/>
      <point x="463" y="0" type="line"/>
      <point x="494" y="0" type="line"/>
      <point x="494" y="524" type="line" smooth="yes"/>
      <point x="494" y="542"/>
      <point x="479" y="556"/>
      <point x="450" y="578" type="curve" smooth="yes"/>
      <point x="350" y="653" type="line" smooth="yes"/>
      <point x="319" y="676"/>
      <point x="307" y="682"/>
      <point x="294" y="682" type="curve" smooth="yes"/>
      <point x="264" y="682"/>
      <point x="236" y="647"/>
      <point x="168" y="563" type="curve"/>
      <point x="168" y="668"/>
      <point x="200" y="678"/>
      <point x="200" y="737" type="curve" smooth="yes"/>
      <point x="200" y="791"/>
      <point x="172" y="825"/>
      <point x="150" y="825" type="curve" smooth="yes"/>
      <point x="137" y="825"/>
      <point x="123" y="813"/>
      <point x="127" y="793" type="curve"/>
      <point x="157" y="793"/>
      <point x="174" y="771"/>
      <point x="174" y="736" type="curve" smooth="yes"/>
      <point x="174" y="687"/>
      <point x="140" y="651"/>
      <point x="140" y="589" type="curve" smooth="yes"/>
      <point x="140" y="555"/>
      <point x="150" y="536"/>
      <point x="166" y="536" type="curve" smooth="yes"/>
      <point x="203" y="536"/>
      <point x="264" y="656"/>
      <point x="293" y="656" type="curve" smooth="yes"/>
      <point x="315" y="656"/>
      <point x="397" y="587"/>
      <point x="468" y="527" type="curve"/>
      <point x="468" y="30" type="line"/>
      <point x="326" y="189" type="line"/>
      <point x="182" y="29" type="line"/>
    </contour>
    <contour>
      <point x="182" y="196" type="line"/>
      <point x="182" y="386" type="line" smooth="yes"/>
      <point x="182" y="411"/>
      <point x="172" y="418"/>
      <point x="157" y="418" type="curve" smooth="yes"/>
      <point x="117" y="418"/>
      <point x="79" y="368"/>
      <point x="79" y="308" type="curve" smooth="yes"/>
      <point x="79" y="253"/>
      <point x="114" y="207"/>
      <point x="156" y="204" type="curve"/>
      <point x="156" y="196" type="line"/>
    </contour>
    <contour>
      <point x="156" y="230" type="line"/>
      <point x="137" y="230"/>
      <point x="105" y="255"/>
      <point x="105" y="305" type="curve" smooth="yes"/>
      <point x="105" y="355"/>
      <point x="137" y="391"/>
      <point x="156" y="391" type="curve"/>
    </contour>
  </outline>
</glyph>
<glyph name="uni17B0" format="2">
  <advance width="561"/>
  <unicode hex="17B0"/>
  <note>
uni17B0
</note>
  <anchor x="284" y="760" name="abvm"/>
  <anchor x="299" y="-255" name="blwm"/>
  <outline>
    <contour>
      <point x="415" y="27" type="line"/>
      <point x="415" y="-32" type="line"/>
      <point x="441" y="-69" type="line"/>
      <point x="441" y="27" type="line"/>
    </contour>
    <contour>
      <point x="105" y="302" type="line"/>
      <point x="131" y="302" type="line"/>
      <point x="131" y="479" type="line"/>
      <point x="105" y="516"/>
      <point x="87" y="542"/>
      <point x="87" y="551" type="curve" smooth="yes"/>
      <point x="87" y="559"/>
      <point x="92" y="576"/>
      <point x="126" y="613" type="curve" smooth="yes"/>
      <point x="153" y="643"/>
      <point x="169" y="655"/>
      <point x="174" y="655" type="curve" smooth="yes"/>
      <point x="186" y="655"/>
      <point x="225" y="578"/>
      <point x="256" y="578" type="curve" smooth="yes"/>
      <point x="287" y="578"/>
      <point x="317" y="656"/>
      <point x="348" y="656" type="curve" smooth="yes"/>
      <point x="376" y="656"/>
      <point x="415" y="592"/>
      <point x="415" y="531" type="curve" smooth="yes"/>
      <point x="415" y="0" type="line"/>
      <point x="441" y="0" type="line"/>
      <point x="441" y="531" type="line" smooth="yes"/>
      <point x="441" y="604"/>
      <point x="392" y="682"/>
      <point x="346" y="682" type="curve" smooth="yes"/>
      <point x="323" y="682"/>
      <point x="305" y="664"/>
      <point x="292" y="648" type="curve" smooth="yes"/>
      <point x="277" y="629"/>
      <point x="260" y="607"/>
      <point x="255" y="607" type="curve" smooth="yes"/>
      <point x="248" y="607"/>
      <point x="239" y="617"/>
      <point x="222" y="640" type="curve" smooth="yes"/>
      <point x="203" y="666"/>
      <point x="193" y="681"/>
      <point x="173" y="681" type="curve" smooth="yes"/>
      <point x="162" y="681"/>
      <point x="150" y="676"/>
      <point x="114" y="638" type="curve" smooth="yes"/>
      <point x="60" y="581"/>
      <point x="60" y="554"/>
      <point x="60" y="549" type="curve" smooth="yes"/>
      <point x="60" y="533"/>
      <point x="81" y="503"/>
      <point x="105" y="469" type="curve"/>
    </contour>
    <contour>
      <point x="105" y="316" type="line"/>
      <point x="105" y="0" type="line"/>
      <point x="131" y="0" type="line"/>
      <point x="183" y="44"/>
      <point x="211" y="102"/>
      <point x="211" y="147" type="curve" smooth="yes"/>
      <point x="211" y="194"/>
      <point x="179" y="227"/>
      <point x="131" y="225" type="curve"/>
      <point x="131" y="316" type="line"/>
    </contour>
    <contour>
      <point x="131" y="199" type="line"/>
      <point x="159" y="202"/>
      <point x="185" y="190"/>
      <point x="185" y="147" type="curve" smooth="yes"/>
      <point x="185" y="105"/>
      <point x="160" y="64"/>
      <point x="131" y="33" type="curve"/>
    </contour>
    <contour>
      <point x="122" y="-168" type="curve" smooth="yes"/>
      <point x="122" y="-209"/>
      <point x="150" y="-250"/>
      <point x="202" y="-250" type="curve" smooth="yes"/>
      <point x="256" y="-250"/>
      <point x="302" y="-210"/>
      <point x="302" y="-118" type="curve"/>
      <point x="276" y="-126" type="line"/>
      <point x="276" y="-183"/>
      <point x="251" y="-224"/>
      <point x="204" y="-224" type="curve" smooth="yes"/>
      <point x="155" y="-224"/>
      <point x="149" y="-178"/>
      <point x="149" y="-157" type="curve"/>
      <point x="197" y="-154"/>
      <point x="250" y="-147"/>
      <point x="290" y="-124" type="curve" smooth="yes"/>
      <point x="339" y="-97"/>
      <point x="368" y="-48"/>
      <point x="368" y="4" type="curve" smooth="yes"/>
      <point x="368" y="13"/>
      <point x="365" y="20"/>
      <point x="353" y="20" type="curve" smooth="yes"/>
      <point x="343" y="20"/>
      <point x="336" y="15"/>
      <point x="331" y="7" type="curve"/>
      <point x="337" y="-1"/>
      <point x="339" y="-9"/>
      <point x="339" y="-19" type="curve" smooth="yes"/>
      <point x="339" y="-89"/>
      <point x="239" y="-129"/>
      <point x="148" y="-129" type="curve" smooth="yes"/>
      <point x="131" y="-129"/>
      <point x="122" y="-145"/>
    </contour>
    <contour>
      <point x="276" y="-121" type="line"/>
      <point x="281" y="-146"/>
      <point x="316" y="-173"/>
      <point x="352" y="-173" type="curve" smooth="yes"/>
      <point x="398" y="-173"/>
      <point x="441" y="-131"/>
      <point x="441" y="-69" type="curve" smooth="yes"/>
      <point x="441" y="-11"/>
      <point x="404" y="18"/>
      <point x="385" y="18" type="curve" smooth="yes"/>
      <point x="380" y="18"/>
      <point x="368" y="16"/>
      <point x="364" y="-5" type="curve"/>
      <point x="384" y="-5"/>
      <point x="415" y="-23"/>
      <point x="415" y="-72" type="curve" smooth="yes"/>
      <point x="415" y="-121"/>
      <point x="384" y="-147"/>
      <point x="348" y="-147" type="curve" smooth="yes"/>
      <point x="321" y="-147"/>
      <point x="307" y="-131"/>
      <point x="302" y="-116" type="curve"/>
    </contour>
  </outline>
</glyph>
<glyph name="uni17B1" format="2">
  <advance width="618"/>
  <unicode hex="17B1"/>
  <note>
uni17B1
</note>
  <anchor x="305" y="994" name="abvm"/>
  <anchor x="332" y="-49" name="blwm"/>
  <outline>
    <contour>
      <point x="149" y="513" type="line"/>
      <point x="175" y="513" type="line"/>
      <point x="175" y="549" type="line" smooth="yes"/>
      <point x="175" y="602"/>
      <point x="229" y="656"/>
      <point x="319" y="656" type="curve" smooth="yes"/>
      <point x="409" y="656"/>
      <point x="463" y="604"/>
      <point x="463" y="549" type="curve" smooth="yes"/>
      <point x="463" y="463" type="line" smooth="yes"/>
      <point x="463" y="437"/>
      <point x="399" y="390"/>
      <point x="289" y="322" type="curve" smooth="yes"/>
      <point x="149" y="235" type="line"/>
      <point x="149" y="119" type="line" smooth="yes"/>
      <point x="149" y="33"/>
      <point x="192" y="0"/>
      <point x="233" y="0" type="curve" smooth="yes"/>
      <point x="278" y="0"/>
      <point x="315" y="40"/>
      <point x="363" y="82" type="curve" smooth="yes"/>
      <point x="391" y="106"/>
      <point x="450" y="155"/>
      <point x="463" y="155" type="curve"/>
      <point x="463" y="21" type="line" smooth="yes"/>
      <point x="463" y="9"/>
      <point x="459" y="-6"/>
      <point x="439" y="-18" type="curve"/>
      <point x="439" y="-41"/>
      <point x="454" y="-49"/>
      <point x="464" y="-49" type="curve" smooth="yes"/>
      <point x="480" y="-49"/>
      <point x="489" y="-28"/>
      <point x="489" y="-2" type="curve" smooth="yes"/>
      <point x="489" y="252" type="line"/>
      <point x="463" y="235" type="line"/>
      <point x="463" y="181" type="line"/>
      <point x="421" y="169"/>
      <point x="387" y="140"/>
      <point x="332" y="88" type="curve" smooth="yes"/>
      <point x="286" y="44"/>
      <point x="261" y="26"/>
      <point x="235" y="26" type="curve" smooth="yes"/>
      <point x="196" y="26"/>
      <point x="175" y="66"/>
      <point x="175" y="111" type="curve" smooth="yes"/>
      <point x="175" y="219" type="line"/>
      <point x="331" y="318" type="line" smooth="yes"/>
      <point x="429" y="380"/>
      <point x="489" y="411"/>
      <point x="489" y="476" type="curve" smooth="yes"/>
      <point x="489" y="556" type="line" smooth="yes"/>
      <point x="489" y="619"/>
      <point x="419" y="682"/>
      <point x="319" y="682" type="curve" smooth="yes"/>
      <point x="219" y="682"/>
      <point x="149" y="620"/>
      <point x="149" y="556" type="curve" smooth="yes"/>
    </contour>
    <contour>
      <point x="175" y="536" type="line"/>
      <point x="149" y="536" type="line"/>
      <point x="149" y="397" type="line" smooth="yes"/>
      <point x="149" y="377"/>
      <point x="163" y="372"/>
      <point x="175" y="372" type="curve" smooth="yes"/>
      <point x="202" y="372"/>
      <point x="241" y="401"/>
      <point x="241" y="452" type="curve" smooth="yes"/>
      <point x="241" y="502"/>
      <point x="203" y="528"/>
      <point x="175" y="528" type="curve"/>
    </contour>
    <contour>
      <point x="175" y="502" type="line"/>
      <point x="190" y="502"/>
      <point x="215" y="487"/>
      <point x="215" y="453" type="curve" smooth="yes"/>
      <point x="215" y="428"/>
      <point x="201" y="400"/>
      <point x="175" y="398" type="curve"/>
    </contour>
    <contour>
      <point x="178" y="728" type="line"/>
      <point x="145" y="753"/>
      <point x="126" y="770"/>
      <point x="126" y="801" type="curve" smooth="yes"/>
      <point x="126" y="868"/>
      <point x="218" y="913"/>
      <point x="308" y="913" type="curve" smooth="yes"/>
      <point x="415" y="913"/>
      <point x="494" y="847"/>
      <point x="494" y="759" type="curve"/>
      <point x="507" y="761"/>
      <point x="518" y="763"/>
      <point x="518" y="785" type="curve" smooth="yes"/>
      <point x="518" y="841"/>
      <point x="443" y="939"/>
      <point x="308" y="939" type="curve" smooth="yes"/>
      <point x="206" y="939"/>
      <point x="100" y="885"/>
      <point x="100" y="801" type="curve" smooth="yes"/>
      <point x="100" y="758"/>
      <point x="128" y="734"/>
      <point x="160" y="713" type="curve"/>
    </contour>
  </outline>
</glyph>
<glyph name="uni17B2" format="2">
  <advance width="580"/>
  <unicode hex="17B2"/>
  <note>
uni17B2
</note>
  <outline>
    <contour>
      <point x="293" y="208" type="line"/>
      <point x="378" y="273"/>
      <point x="460" y="361"/>
      <point x="460" y="445" type="curve" smooth="yes"/>
      <point x="460" y="501"/>
      <point x="423" y="555"/>
      <point x="344" y="555" type="curve" smooth="yes"/>
      <point x="288" y="555"/>
      <point x="230" y="529"/>
      <point x="230" y="460" type="curve" smooth="yes"/>
      <point x="230" y="393"/>
      <point x="285" y="377"/>
      <point x="316" y="377" type="curve" smooth="yes"/>
      <point x="333" y="377"/>
      <point x="343" y="382"/>
      <point x="343" y="411" type="curve"/>
      <point x="297" y="397"/>
      <point x="256" y="409"/>
      <point x="256" y="460" type="curve" smooth="yes"/>
      <point x="256" y="511"/>
      <point x="297" y="529"/>
      <point x="342" y="529" type="curve" smooth="yes"/>
      <point x="409" y="529"/>
      <point x="434" y="486"/>
      <point x="434" y="441" type="curve" smooth="yes"/>
      <point x="434" y="366"/>
      <point x="363" y="288"/>
      <point x="275" y="224" type="curve"/>
    </contour>
    <contour>
      <point x="405" y="324" type="curve"/>
      <point x="388" y="305" type="line"/>
      <point x="407" y="298"/>
      <point x="433" y="282"/>
      <point x="433" y="197" type="curve" smooth="yes"/>
      <point x="433" y="147" type="line" smooth="yes"/>
      <point x="433" y="83"/>
      <point x="369" y="26"/>
      <point x="286" y="26" type="curve" smooth="yes"/>
      <point x="206" y="26"/>
      <point x="146" y="78"/>
      <point x="146" y="136" type="curve" smooth="yes"/>
      <point x="146" y="607" type="line" smooth="yes"/>
      <point x="146" y="649"/>
      <point x="203" y="699"/>
      <point x="293" y="699" type="curve" smooth="yes"/>
      <point x="355" y="699"/>
      <point x="395" y="678"/>
      <point x="435" y="628" type="curve"/>
      <point x="456" y="635" type="line"/>
      <point x="421" y="700"/>
      <point x="358" y="725"/>
      <point x="293" y="725" type="curve" smooth="yes"/>
      <point x="192" y="725"/>
      <point x="120" y="667"/>
      <point x="120" y="603" type="curve" smooth="yes"/>
      <point x="120" y="130" type="line" smooth="yes"/>
      <point x="120" y="61"/>
      <point x="197" y="0"/>
      <point x="285" y="0" type="curve" smooth="yes"/>
      <point x="382" y="0"/>
      <point x="458" y="66"/>
      <point x="458" y="137" type="curve" smooth="yes"/>
      <point x="458" y="208" type="line" smooth="yes"/>
      <point x="458" y="278"/>
      <point x="438" y="306"/>
    </contour>
  </outline>
</glyph>
<glyph name="uni17B3" format="2">
  <advance width="627"/>
  <unicode hex="17B3"/>
  <note>
uni17B3
</note>
  <anchor x="281" y="1069" name="abvm"/>
  <anchor x="337" y="-49" name="blwm"/>
  <outline>
    <contour>
      <point x="154" y="513" type="line"/>
      <point x="180" y="513" type="line"/>
      <point x="180" y="549" type="line" smooth="yes"/>
      <point x="180" y="602"/>
      <point x="234" y="656"/>
      <point x="324" y="656" type="curve" smooth="yes"/>
      <point x="414" y="656"/>
      <point x="468" y="604"/>
      <point x="468" y="549" type="curve" smooth="yes"/>
      <point x="468" y="463" type="line" smooth="yes"/>
      <point x="468" y="437"/>
      <point x="404" y="390"/>
      <point x="294" y="322" type="curve" smooth="yes"/>
      <point x="154" y="235" type="line"/>
      <point x="154" y="119" type="line" smooth="yes"/>
      <point x="154" y="33"/>
      <point x="197" y="0"/>
      <point x="238" y="0" type="curve" smooth="yes"/>
      <point x="283" y="0"/>
      <point x="320" y="40"/>
      <point x="368" y="82" type="curve" smooth="yes"/>
      <point x="396" y="106"/>
      <point x="455" y="155"/>
      <point x="468" y="155" type="curve"/>
      <point x="468" y="21" type="line" smooth="yes"/>
      <point x="468" y="9"/>
      <point x="464" y="-6"/>
      <point x="444" y="-18" type="curve"/>
      <point x="444" y="-41"/>
      <point x="459" y="-49"/>
      <point x="469" y="-49" type="curve" smooth="yes"/>
      <point x="485" y="-49"/>
      <point x="494" y="-28"/>
      <point x="494" y="-2" type="curve" smooth="yes"/>
      <point x="494" y="252" type="line"/>
      <point x="468" y="235" type="line"/>
      <point x="468" y="181" type="line"/>
      <point x="426" y="169"/>
      <point x="392" y="140"/>
      <point x="337" y="88" type="curve" smooth="yes"/>
      <point x="291" y="44"/>
      <point x="266" y="26"/>
      <point x="240" y="26" type="curve" smooth="yes"/>
      <point x="201" y="26"/>
      <point x="180" y="66"/>
      <point x="180" y="111" type="curve" smooth="yes"/>
      <point x="180" y="219" type="line"/>
      <point x="336" y="318" type="line" smooth="yes"/>
      <point x="434" y="380"/>
      <point x="494" y="411"/>
      <point x="494" y="476" type="curve" smooth="yes"/>
      <point x="494" y="556" type="line" smooth="yes"/>
      <point x="494" y="619"/>
      <point x="424" y="682"/>
      <point x="324" y="682" type="curve" smooth="yes"/>
      <point x="224" y="682"/>
      <point x="154" y="620"/>
      <point x="154" y="556" type="curve" smooth="yes"/>
    </contour>
    <contour>
      <point x="180" y="536" type="line"/>
      <point x="154" y="536" type="line"/>
      <point x="154" y="397" type="line" smooth="yes"/>
      <point x="154" y="377"/>
      <point x="168" y="372"/>
      <point x="180" y="372" type="curve" smooth="yes"/>
      <point x="207" y="372"/>
      <point x="246" y="401"/>
      <point x="246" y="452" type="curve" smooth="yes"/>
      <point x="246" y="502"/>
      <point x="208" y="528"/>
      <point x="180" y="528" type="curve"/>
    </contour>
    <contour>
      <point x="180" y="502" type="line"/>
      <point x="195" y="502"/>
      <point x="220" y="487"/>
      <point x="220" y="453" type="curve" smooth="yes"/>
      <point x="220" y="428"/>
      <point x="206" y="400"/>
      <point x="180" y="398" type="curve"/>
    </contour>
    <contour>
      <point x="505" y="831" type="curve" smooth="yes"/>
      <point x="505" y="932"/>
      <point x="461" y="1058"/>
      <point x="419" y="1058" type="curve" smooth="yes"/>
      <point x="410" y="1058"/>
      <point x="393" y="1052"/>
      <point x="393" y="1030" type="curve"/>
      <point x="438" y="1020"/>
      <point x="474" y="924"/>
      <point x="484" y="842" type="curve"/>
      <point x="454" y="890"/>
      <point x="388" y="939"/>
      <point x="293" y="939" type="curve" smooth="yes"/>
      <point x="191" y="939"/>
      <point x="85" y="885"/>
      <point x="85" y="801" type="curve" smooth="yes"/>
      <point x="85" y="758"/>
      <point x="113" y="734"/>
      <point x="145" y="713" type="curve"/>
      <point x="163" y="728" type="line"/>
      <point x="130" y="753"/>
      <point x="111" y="770"/>
      <point x="111" y="801" type="curve" smooth="yes"/>
      <point x="111" y="868"/>
      <point x="203" y="913"/>
      <point x="293" y="913" type="curve" smooth="yes"/>
      <point x="400" y="913"/>
      <point x="479" y="847"/>
      <point x="479" y="759" type="curve"/>
      <point x="502" y="763"/>
      <point x="505" y="788"/>
    </contour>
  </outline>
</glyph>
<glyph name="uni17B4" format="2">
  <advance width="319"/>
  <unicode hex="17B4"/>
  <anchor x="8" y="740" name="abvm_a"/>
  <anchor x="8" y="740" name="abvm_high"/>
  <anchor x="-38" y="0" name="blwm_a"/>
  <outline>
    <contour>
      <point x="-110" y="605" type="curve"/>
      <point x="-67" y="633"/>
      <point x="-29" y="656"/>
      <point x="-10" y="656" type="curve" smooth="yes"/>
      <point x="5" y="656"/>
      <point x="22" y="641"/>
      <point x="52" y="615" type="curve" smooth="yes"/>
      <point x="154" y="529" type="line"/>
      <point x="154" y="0" type="line"/>
      <point x="180" y="0" type="line"/>
      <point x="180" y="527" type="line" smooth="yes"/>
      <point x="180" y="541"/>
      <point x="168" y="551"/>
      <point x="144" y="571" type="curve" smooth="yes"/>
      <point x="51" y="650" type="line" smooth="yes"/>
      <point x="23" y="674"/>
      <point x="5" y="682"/>
      <point x="-8" y="682" type="curve" smooth="yes"/>
      <point x="-37" y="682"/>
      <point x="-101" y="643"/>
      <point x="-106" y="640" type="curve" smooth="yes"/>
      <point x="-111" y="637"/>
      <point x="-122" y="630"/>
      <point x="-122" y="621" type="curve" smooth="yes"/>
      <point x="-122" y="616"/>
      <point x="-120" y="611"/>
    </contour>
    <contour>
      <point x="158" y="497" type="line"/>
      <point x="181" y="538"/>
      <point x="180" y="556"/>
      <point x="180" y="580" type="curve" smooth="yes"/>
      <point x="180" y="809" type="line" smooth="yes"/>
      <point x="180" y="847"/>
      <point x="173" y="868"/>
      <point x="154" y="868" type="curve" smooth="yes"/>
      <point x="141" y="868"/>
      <point x="127" y="858"/>
      <point x="127" y="840" type="curve"/>
      <point x="143" y="831"/>
      <point x="154" y="803"/>
      <point x="154" y="775" type="curve" smooth="yes"/>
      <point x="154" y="501" type="line"/>
    </contour>
  </outline>
</glyph>
<glyph name="uni17B7" format="2">
  <unicode hex="17B7"/>
  <note>
uni17B7
</note>
  <anchor x="-353" y="854" name="_abvm"/>
  <anchor x="-353" y="1081" name="abvm"/>
  <outline>
    <contour>
      <point x="-522" y="887" type="curve" smooth="yes"/>
      <point x="-522" y="856"/>
      <point x="-512" y="854"/>
      <point x="-494" y="854" type="curve" smooth="yes"/>
      <point x="-199" y="854" type="line" smooth="yes"/>
      <point x="-183" y="854"/>
      <point x="-178" y="866"/>
      <point x="-178" y="873" type="curve" smooth="yes"/>
      <point x="-178" y="887"/>
      <point x="-203" y="921"/>
      <point x="-241" y="957" type="curve" smooth="yes"/>
      <point x="-296" y="1009"/>
      <point x="-344" y="1031"/>
      <point x="-387" y="1031" type="curve" smooth="yes"/>
      <point x="-468" y="1031"/>
      <point x="-522" y="963"/>
    </contour>
    <contour>
      <point x="-495" y="880" type="line"/>
      <point x="-495" y="938"/>
      <point x="-461" y="1005"/>
      <point x="-390" y="1005" type="curve" smooth="yes"/>
      <point x="-319" y="1005"/>
      <point x="-248" y="933"/>
      <point x="-210" y="880" type="curve"/>
    </contour>
  </outline>
</glyph>
<glyph name="uni17B8" format="2">
  <unicode hex="17B8"/>
  <note>
uni17B8
</note>
  <anchor x="-353" y="854" name="_abvm"/>
  <anchor x="-353" y="1130" name="abvm"/>
  <outline>
    <contour>
      <point x="-178" y="872" type="line"/>
      <point x="-178" y="1088" type="line"/>
      <point x="-204" y="1088" type="line"/>
      <point x="-204" y="872" type="line"/>
    </contour>
    <contour>
      <point x="-522" y="887" type="curve" smooth="yes"/>
      <point x="-522" y="856"/>
      <point x="-512" y="854"/>
      <point x="-494" y="854" type="curve" smooth="yes"/>
      <point x="-199" y="854" type="line" smooth="yes"/>
      <point x="-183" y="854"/>
      <point x="-178" y="866"/>
      <point x="-178" y="873" type="curve" smooth="yes"/>
      <point x="-178" y="887"/>
      <point x="-203" y="921"/>
      <point x="-241" y="957" type="curve" smooth="yes"/>
      <point x="-296" y="1009"/>
      <point x="-344" y="1031"/>
      <point x="-387" y="1031" type="curve" smooth="yes"/>
      <point x="-468" y="1031"/>
      <point x="-522" y="963"/>
    </contour>
    <contour>
      <point x="-495" y="880" type="line"/>
      <point x="-495" y="938"/>
      <point x="-461" y="1005"/>
      <point x="-390" y="1005" type="curve" smooth="yes"/>
      <point x="-319" y="1005"/>
      <point x="-248" y="933"/>
      <point x="-210" y="880" type="curve"/>
    </contour>
  </outline>
</glyph>
<glyph name="uni17B9" format="2">
  <unicode hex="17B9"/>
  <note>
uni17B9
</note>
  <anchor x="-353" y="854" name="_abvm"/>
  <anchor x="-353" y="1111" name="abvm"/>
  <outline>
    <contour>
      <point x="-302" y="979" type="curve"/>
      <point x="-196" y="882" type="line"/>
      <point x="-181" y="899"/>
      <point x="-138" y="922"/>
      <point x="-138" y="973" type="curve" smooth="yes"/>
      <point x="-138" y="1009"/>
      <point x="-161" y="1049"/>
      <point x="-209" y="1049" type="curve" smooth="yes"/>
      <point x="-244" y="1049"/>
      <point x="-277" y="1028"/>
    </contour>
    <contour>
      <point x="-276" y="975" type="line"/>
      <point x="-262" y="1002"/>
      <point x="-235" y="1023"/>
      <point x="-210" y="1023" type="curve" smooth="yes"/>
      <point x="-181" y="1023"/>
      <point x="-164" y="1001"/>
      <point x="-164" y="973" type="curve" smooth="yes"/>
      <point x="-164" y="931"/>
      <point x="-198" y="915"/>
      <point x="-210" y="904" type="curve"/>
    </contour>
    <contour>
      <point x="-522" y="887" type="curve" smooth="yes"/>
      <point x="-522" y="856"/>
      <point x="-512" y="854"/>
      <point x="-494" y="854" type="curve" smooth="yes"/>
      <point x="-199" y="854" type="line" smooth="yes"/>
      <point x="-183" y="854"/>
      <point x="-178" y="866"/>
      <point x="-178" y="873" type="curve" smooth="yes"/>
      <point x="-178" y="887"/>
      <point x="-203" y="921"/>
      <point x="-241" y="957" type="curve" smooth="yes"/>
      <point x="-296" y="1009"/>
      <point x="-344" y="1031"/>
      <point x="-387" y="1031" type="curve" smooth="yes"/>
      <point x="-468" y="1031"/>
      <point x="-522" y="963"/>
    </contour>
    <contour>
      <point x="-495" y="880" type="line"/>
      <point x="-495" y="938"/>
      <point x="-461" y="1005"/>
      <point x="-390" y="1005" type="curve" smooth="yes"/>
      <point x="-319" y="1005"/>
      <point x="-248" y="933"/>
      <point x="-210" y="880" type="curve"/>
    </contour>
  </outline>
</glyph>
<glyph name="uni17BD" format="2">
  <unicode hex="17BD"/>
  <note>
uni17BD
</note>
  <anchor x="-197" y="16" name="_blwm"/>
  <outline>
    <contour>
      <point x="-323" y="-219" type="curve" smooth="yes"/>
      <point x="-323" y="-255"/>
      <point x="-304" y="-273"/>
      <point x="-285" y="-273" type="curve" smooth="yes"/>
      <point x="-255" y="-273"/>
      <point x="-227" y="-249"/>
      <point x="-209" y="-224" type="curve"/>
      <point x="-197" y="-254"/>
      <point x="-175" y="-273"/>
      <point x="-153" y="-273" type="curve" smooth="yes"/>
      <point x="-95" y="-273"/>
      <point x="-81" y="-166"/>
      <point x="-81" y="-70" type="curve" smooth="yes"/>
      <point x="-81" y="-47"/>
      <point x="-101" y="-49"/>
      <point x="-112" y="-49" type="curve"/>
      <point x="-105" y="-78"/>
      <point x="-107" y="-119"/>
      <point x="-112" y="-170" type="curve" smooth="yes"/>
      <point x="-115" y="-204"/>
      <point x="-127" y="-247"/>
      <point x="-153" y="-247" type="curve" smooth="yes"/>
      <point x="-177" y="-247"/>
      <point x="-197" y="-204"/>
      <point x="-203" y="-183" type="curve"/>
      <point x="-227" y="-214"/>
      <point x="-261" y="-247"/>
      <point x="-282" y="-247" type="curve" smooth="yes"/>
      <point x="-308" y="-247"/>
      <point x="-299" y="-203"/>
      <point x="-281" y="-159" type="curve" smooth="yes"/>
      <point x="-264" y="-117"/>
      <point x="-258" y="-104"/>
      <point x="-258" y="-81" type="curve" smooth="yes"/>
      <point x="-258" y="-60"/>
      <point x="-268" y="-49"/>
      <point x="-284" y="-49" type="curve" smooth="yes"/>
      <point x="-297" y="-49"/>
      <point x="-307" y="-61"/>
      <point x="-307" y="-79" type="curve" smooth="yes"/>
      <point x="-307" y="-93"/>
      <point x="-297" y="-104"/>
      <point x="-286" y="-104" type="curve"/>
      <point x="-300" y="-137" type="line" smooth="yes"/>
      <point x="-315" y="-171"/>
      <point x="-323" y="-198"/>
    </contour>
  </outline>
</glyph>
<glyph name="uni17BE" format="2">
  <unicode hex="17BE"/>
  <note>
uni17BE
</note>
  <anchor x="538" y="752" name="_abvm"/>
  <anchor x="575" y="645" name="abvm"/>
  <anchor x="575" y="45" name="blwm"/>
  <outline>
    <contour>
      <point x="713" y="770" type="line"/>
      <point x="713" y="986" type="line"/>
      <point x="687" y="986" type="line"/>
      <point x="687" y="770" type="line"/>
    </contour>
    <contour>
      <point x="369" y="785" type="curve" smooth="yes"/>
      <point x="369" y="754"/>
      <point x="379" y="752"/>
      <point x="397" y="752" type="curve" smooth="yes"/>
      <point x="692" y="752" type="line" smooth="yes"/>
      <point x="708" y="752"/>
      <point x="713" y="764"/>
      <point x="713" y="771" type="curve" smooth="yes"/>
      <point x="713" y="785"/>
      <point x="688" y="819"/>
      <point x="650" y="855" type="curve" smooth="yes"/>
      <point x="595" y="907"/>
      <point x="547" y="929"/>
      <point x="504" y="929" type="curve" smooth="yes"/>
      <point x="423" y="929"/>
      <point x="369" y="861"/>
    </contour>
    <contour>
      <point x="396" y="778" type="line"/>
      <point x="396" y="836"/>
      <point x="430" y="903"/>
      <point x="501" y="903" type="curve" smooth="yes"/>
      <point x="572" y="903"/>
      <point x="643" y="831"/>
      <point x="681" y="778" type="curve"/>
    </contour>
    <contour>
      <point x="114" y="271" type="line"/>
      <point x="140" y="271" type="line"/>
      <point x="140" y="396" type="line"/>
      <point x="114" y="396" type="line"/>
    </contour>
    <contour>
      <point x="140" y="370" type="line"/>
      <point x="140" y="445" type="line"/>
      <point x="62" y="536" type="line"/>
      <point x="127" y="641" type="line"/>
      <point x="139" y="631"/>
      <point x="172" y="587"/>
      <point x="202" y="587" type="curve" smooth="yes"/>
      <point x="214" y="587"/>
      <point x="224" y="595"/>
      <point x="224" y="612" type="curve"/>
      <point x="193" y="609"/>
      <point x="169" y="634"/>
      <point x="125" y="682" type="curve"/>
      <point x="49" y="568"/>
      <point x="35" y="547"/>
      <point x="35" y="538" type="curve" smooth="yes"/>
      <point x="35" y="528"/>
      <point x="43" y="513"/>
      <point x="114" y="435" type="curve"/>
      <point x="114" y="370" type="line"/>
    </contour>
    <contour>
      <point x="114" y="316" type="line"/>
      <point x="114" y="0" type="line"/>
      <point x="140" y="0" type="line"/>
      <point x="192" y="44"/>
      <point x="220" y="102"/>
      <point x="220" y="147" type="curve" smooth="yes"/>
      <point x="220" y="194"/>
      <point x="188" y="227"/>
      <point x="140" y="225" type="curve"/>
      <point x="140" y="316" type="line"/>
    </contour>
    <contour>
      <point x="140" y="199" type="line"/>
      <point x="168" y="202"/>
      <point x="194" y="190"/>
      <point x="194" y="147" type="curve" smooth="yes"/>
      <point x="194" y="105"/>
      <point x="169" y="64"/>
      <point x="140" y="33" type="curve"/>
    </contour>
    <contour>
      <point x="379" y="320" type="curve" smooth="yes"/>
      <point x="388" y="320"/>
      <point x="395" y="327"/>
      <point x="395" y="336" type="curve" smooth="yes"/>
      <point x="395" y="345"/>
      <point x="388" y="352"/>
      <point x="379" y="352" type="curve" smooth="yes"/>
      <point x="370" y="352"/>
      <point x="363" y="345"/>
      <point x="363" y="336" type="curve" smooth="yes"/>
      <point x="363" y="327"/>
      <point x="370" y="320"/>
    </contour>
    <contour>
      <point x="405" y="421" type="curve" smooth="yes"/>
      <point x="414" y="421"/>
      <point x="421" y="428"/>
      <point x="421" y="437" type="curve" smooth="yes"/>
      <point x="421" y="446"/>
      <point x="414" y="453"/>
      <point x="405" y="453" type="curve" smooth="yes"/>
      <point x="396" y="453"/>
      <point x="389" y="446"/>
      <point x="389" y="437" type="curve" smooth="yes"/>
      <point x="389" y="428"/>
      <point x="396" y="421"/>
    </contour>
    <contour>
      <point x="476" y="491" type="curve" smooth="yes"/>
      <point x="485" y="491"/>
      <point x="492" y="498"/>
      <point x="492" y="507" type="curve" smooth="yes"/>
      <point x="492" y="516"/>
      <point x="485" y="523"/>
      <point x="476" y="523" type="curve" smooth="yes"/>
      <point x="467" y="523"/>
      <point x="460" y="516"/>
      <point x="460" y="507" type="curve" smooth="yes"/>
      <point x="460" y="498"/>
      <point x="467" y="491"/>
    </contour>
    <contour>
      <point x="573" y="515" type="curve" smooth="yes"/>
      <point x="582" y="515"/>
      <point x="589" y="522"/>
      <point x="589" y="531" type="curve" smooth="yes"/>
      <point x="589" y="540"/>
      <point x="582" y="547"/>
      <point x="573" y="547" type="curve" smooth="yes"/>
      <point x="564" y="547"/>
      <point x="557" y="540"/>
      <point x="557" y="531" type="curve" smooth="yes"/>
      <point x="557" y="522"/>
      <point x="564" y="515"/>
    </contour>
    <contour>
      <point x="670" y="491" type="curve" smooth="yes"/>
      <point x="679" y="491"/>
      <point x="686" y="498"/>
      <point x="686" y="507" type="curve" smooth="yes"/>
      <point x="686" y="516"/>
      <point x="679" y="523"/>
      <point x="670" y="523" type="curve" smooth="yes"/>
      <point x="661" y="523"/>
      <point x="654" y="516"/>
      <point x="654" y="507" type="curve" smooth="yes"/>
      <point x="654" y="498"/>
      <point x="661" y="491"/>
    </contour>
    <contour>
      <point x="740" y="419" type="curve" smooth="yes"/>
      <point x="749" y="419"/>
      <point x="756" y="426"/>
      <point x="756" y="435" type="curve" smooth="yes"/>
      <point x="756" y="444"/>
      <point x="749" y="451"/>
      <point x="740" y="451" type="curve" smooth="yes"/>
      <point x="731" y="451"/>
      <point x="724" y="444"/>
      <point x="724" y="435" type="curve" smooth="yes"/>
      <point x="724" y="426"/>
      <point x="731" y="419"/>
    </contour>
    <contour>
      <point x="770" y="320" type="curve" smooth="yes"/>
      <point x="779" y="320"/>
      <point x="786" y="327"/>
      <point x="786" y="336" type="curve" smooth="yes"/>
      <point x="786" y="345"/>
      <point x="779" y="352"/>
      <point x="770" y="352" type="curve" smooth="yes"/>
      <point x="761" y="352"/>
      <point x="754" y="345"/>
      <point x="754" y="336" type="curve" smooth="yes"/>
      <point x="754" y="327"/>
      <point x="761" y="320"/>
    </contour>
    <contour>
      <point x="742" y="226" type="curve" smooth="yes"/>
      <point x="751" y="226"/>
      <point x="758" y="233"/>
      <point x="758" y="242" type="curve" smooth="yes"/>
      <point x="758" y="251"/>
      <point x="751" y="258"/>
      <point x="742" y="258" type="curve" smooth="yes"/>
      <point x="733" y="258"/>
      <point x="726" y="251"/>
      <point x="726" y="242" type="curve" smooth="yes"/>
      <point x="726" y="233"/>
      <point x="733" y="226"/>
    </contour>
    <contour>
      <point x="671" y="154" type="curve" smooth="yes"/>
      <point x="680" y="154"/>
      <point x="687" y="161"/>
      <point x="687" y="170" type="curve" smooth="yes"/>
      <point x="687" y="179"/>
      <point x="680" y="186"/>
      <point x="671" y="186" type="curve" smooth="yes"/>
      <point x="662" y="186"/>
      <point x="655" y="179"/>
      <point x="655" y="170" type="curve" smooth="yes"/>
      <point x="655" y="161"/>
      <point x="662" y="154"/>
    </contour>
    <contour>
      <point x="573" y="126" type="curve" smooth="yes"/>
      <point x="582" y="126"/>
      <point x="589" y="133"/>
      <point x="589" y="142" type="curve" smooth="yes"/>
      <point x="589" y="151"/>
      <point x="582" y="158"/>
      <point x="573" y="158" type="curve" smooth="yes"/>
      <point x="564" y="158"/>
      <point x="557" y="151"/>
      <point x="557" y="142" type="curve" smooth="yes"/>
      <point x="557" y="133"/>
      <point x="564" y="126"/>
    </contour>
    <contour>
      <point x="476" y="153" type="curve" smooth="yes"/>
      <point x="485" y="153"/>
      <point x="492" y="160"/>
      <point x="492" y="169" type="curve" smooth="yes"/>
      <point x="492" y="178"/>
      <point x="485" y="185"/>
      <point x="476" y="185" type="curve" smooth="yes"/>
      <point x="467" y="185"/>
      <point x="460" y="178"/>
      <point x="460" y="169" type="curve" smooth="yes"/>
      <point x="460" y="160"/>
      <point x="467" y="153"/>
    </contour>
    <contour>
      <point x="403" y="225" type="curve" smooth="yes"/>
      <point x="412" y="225"/>
      <point x="419" y="232"/>
      <point x="419" y="241" type="curve" smooth="yes"/>
      <point x="419" y="250"/>
      <point x="412" y="257"/>
      <point x="403" y="257" type="curve" smooth="yes"/>
      <point x="394" y="257"/>
      <point x="387" y="250"/>
      <point x="387" y="241" type="curve" smooth="yes"/>
      <point x="387" y="232"/>
      <point x="394" y="225"/>
    </contour>
  </outline>
</glyph>
<glyph name="uni17BF" format="2">
  <advance width="1248"/>
  <unicode hex="17BF"/>
  <note>
uni17BF
</note>
  <anchor x="915" y="1220" name="abvm"/>
  <anchor x="632" y="45" name="blwm"/>
  <outline>
    <contour>
      <point x="114" y="271" type="line"/>
      <point x="140" y="271" type="line"/>
      <point x="140" y="396" type="line"/>
      <point x="114" y="396" type="line"/>
    </contour>
    <contour>
      <point x="140" y="370" type="line"/>
      <point x="140" y="445" type="line"/>
      <point x="62" y="536" type="line"/>
      <point x="127" y="641" type="line"/>
      <point x="139" y="631"/>
      <point x="172" y="587"/>
      <point x="202" y="587" type="curve" smooth="yes"/>
      <point x="214" y="587"/>
      <point x="224" y="595"/>
      <point x="224" y="612" type="curve"/>
      <point x="193" y="609"/>
      <point x="169" y="634"/>
      <point x="125" y="682" type="curve"/>
      <point x="49" y="568"/>
      <point x="35" y="547"/>
      <point x="35" y="538" type="curve" smooth="yes"/>
      <point x="35" y="528"/>
      <point x="43" y="513"/>
      <point x="114" y="435" type="curve"/>
      <point x="114" y="370" type="line"/>
    </contour>
    <contour>
      <point x="114" y="316" type="line"/>
      <point x="114" y="0" type="line"/>
      <point x="140" y="0" type="line"/>
      <point x="192" y="44"/>
      <point x="220" y="102"/>
      <point x="220" y="147" type="curve" smooth="yes"/>
      <point x="220" y="194"/>
      <point x="188" y="227"/>
      <point x="140" y="225" type="curve"/>
      <point x="140" y="316" type="line"/>
    </contour>
    <contour>
      <point x="140" y="199" type="line"/>
      <point x="168" y="202"/>
      <point x="194" y="190"/>
      <point x="194" y="147" type="curve" smooth="yes"/>
      <point x="194" y="105"/>
      <point x="169" y="64"/>
      <point x="140" y="33" type="curve"/>
    </contour>
    <contour>
      <point x="436" y="320" type="curve" smooth="yes"/>
      <point x="445" y="320"/>
      <point x="452" y="327"/>
      <point x="452" y="336" type="curve" smooth="yes"/>
      <point x="452" y="345"/>
      <point x="445" y="352"/>
      <point x="436" y="352" type="curve" smooth="yes"/>
      <point x="427" y="352"/>
      <point x="420" y="345"/>
      <point x="420" y="336" type="curve" smooth="yes"/>
      <point x="420" y="327"/>
      <point x="427" y="320"/>
    </contour>
    <contour>
      <point x="462" y="421" type="curve" smooth="yes"/>
      <point x="471" y="421"/>
      <point x="478" y="428"/>
      <point x="478" y="437" type="curve" smooth="yes"/>
      <point x="478" y="446"/>
      <point x="471" y="453"/>
      <point x="462" y="453" type="curve" smooth="yes"/>
      <point x="453" y="453"/>
      <point x="446" y="446"/>
      <point x="446" y="437" type="curve" smooth="yes"/>
      <point x="446" y="428"/>
      <point x="453" y="421"/>
    </contour>
    <contour>
      <point x="533" y="491" type="curve" smooth="yes"/>
      <point x="542" y="491"/>
      <point x="549" y="498"/>
      <point x="549" y="507" type="curve" smooth="yes"/>
      <point x="549" y="516"/>
      <point x="542" y="523"/>
      <point x="533" y="523" type="curve" smooth="yes"/>
      <point x="524" y="523"/>
      <point x="517" y="516"/>
      <point x="517" y="507" type="curve" smooth="yes"/>
      <point x="517" y="498"/>
      <point x="524" y="491"/>
    </contour>
    <contour>
      <point x="630" y="515" type="curve" smooth="yes"/>
      <point x="639" y="515"/>
      <point x="646" y="522"/>
      <point x="646" y="531" type="curve" smooth="yes"/>
      <point x="646" y="540"/>
      <point x="639" y="547"/>
      <point x="630" y="547" type="curve" smooth="yes"/>
      <point x="621" y="547"/>
      <point x="614" y="540"/>
      <point x="614" y="531" type="curve" smooth="yes"/>
      <point x="614" y="522"/>
      <point x="621" y="515"/>
    </contour>
    <contour>
      <point x="727" y="491" type="curve" smooth="yes"/>
      <point x="736" y="491"/>
      <point x="743" y="498"/>
      <point x="743" y="507" type="curve" smooth="yes"/>
      <point x="743" y="516"/>
      <point x="736" y="523"/>
      <point x="727" y="523" type="curve" smooth="yes"/>
      <point x="718" y="523"/>
      <point x="711" y="516"/>
      <point x="711" y="507" type="curve" smooth="yes"/>
      <point x="711" y="498"/>
      <point x="718" y="491"/>
    </contour>
    <contour>
      <point x="797" y="419" type="curve" smooth="yes"/>
      <point x="806" y="419"/>
      <point x="813" y="426"/>
      <point x="813" y="435" type="curve" smooth="yes"/>
      <point x="813" y="444"/>
      <point x="806" y="451"/>
      <point x="797" y="451" type="curve" smooth="yes"/>
      <point x="788" y="451"/>
      <point x="781" y="444"/>
      <point x="781" y="435" type="curve" smooth="yes"/>
      <point x="781" y="426"/>
      <point x="788" y="419"/>
    </contour>
    <contour>
      <point x="827" y="320" type="curve" smooth="yes"/>
      <point x="836" y="320"/>
      <point x="843" y="327"/>
      <point x="843" y="336" type="curve" smooth="yes"/>
      <point x="843" y="345"/>
      <point x="836" y="352"/>
      <point x="827" y="352" type="curve" smooth="yes"/>
      <point x="818" y="352"/>
      <point x="811" y="345"/>
      <point x="811" y="336" type="curve" smooth="yes"/>
      <point x="811" y="327"/>
      <point x="818" y="320"/>
    </contour>
    <contour>
      <point x="799" y="226" type="curve" smooth="yes"/>
      <point x="808" y="226"/>
      <point x="815" y="233"/>
      <point x="815" y="242" type="curve" smooth="yes"/>
      <point x="815" y="251"/>
      <point x="808" y="258"/>
      <point x="799" y="258" type="curve" smooth="yes"/>
      <point x="790" y="258"/>
      <point x="783" y="251"/>
      <point x="783" y="242" type="curve" smooth="yes"/>
      <point x="783" y="233"/>
      <point x="790" y="226"/>
    </contour>
    <contour>
      <point x="728" y="154" type="curve" smooth="yes"/>
      <point x="737" y="154"/>
      <point x="744" y="161"/>
      <point x="744" y="170" type="curve" smooth="yes"/>
      <point x="744" y="179"/>
      <point x="737" y="186"/>
      <point x="728" y="186" type="curve" smooth="yes"/>
      <point x="719" y="186"/>
      <point x="712" y="179"/>
      <point x="712" y="170" type="curve" smooth="yes"/>
      <point x="712" y="161"/>
      <point x="719" y="154"/>
    </contour>
    <contour>
      <point x="630" y="126" type="curve" smooth="yes"/>
      <point x="639" y="126"/>
      <point x="646" y="133"/>
      <point x="646" y="142" type="curve" smooth="yes"/>
      <point x="646" y="151"/>
      <point x="639" y="158"/>
      <point x="630" y="158" type="curve" smooth="yes"/>
      <point x="621" y="158"/>
      <point x="614" y="151"/>
      <point x="614" y="142" type="curve" smooth="yes"/>
      <point x="614" y="133"/>
      <point x="621" y="126"/>
    </contour>
    <contour>
      <point x="533" y="153" type="curve" smooth="yes"/>
      <point x="542" y="153"/>
      <point x="549" y="160"/>
      <point x="549" y="169" type="curve" smooth="yes"/>
      <point x="549" y="178"/>
      <point x="542" y="185"/>
      <point x="533" y="185" type="curve" smooth="yes"/>
      <point x="524" y="185"/>
      <point x="517" y="178"/>
      <point x="517" y="169" type="curve" smooth="yes"/>
      <point x="517" y="160"/>
      <point x="524" y="153"/>
    </contour>
    <contour>
      <point x="460" y="225" type="curve" smooth="yes"/>
      <point x="469" y="225"/>
      <point x="476" y="232"/>
      <point x="476" y="241" type="curve" smooth="yes"/>
      <point x="476" y="250"/>
      <point x="469" y="257"/>
      <point x="460" y="257" type="curve" smooth="yes"/>
      <point x="451" y="257"/>
      <point x="444" y="250"/>
      <point x="444" y="241" type="curve" smooth="yes"/>
      <point x="444" y="232"/>
      <point x="451" y="225"/>
    </contour>
    <contour>
      <point x="1122" y="751" type="line"/>
      <point x="1148" y="751" type="line"/>
      <point x="1148" y="762" type="line" smooth="yes"/>
      <point x="1148" y="859"/>
      <point x="1107" y="925"/>
      <point x="1018" y="1004" type="curve" smooth="yes"/>
      <point x="937" y="1076"/>
      <point x="896" y="1091"/>
      <point x="851" y="1091" type="curve" smooth="yes"/>
      <point x="764" y="1091"/>
      <point x="734" y="1036"/>
      <point x="734" y="968" type="curve" smooth="yes"/>
      <point x="734" y="943"/>
      <point x="738" y="934"/>
      <point x="766" y="934" type="curve" smooth="yes"/>
      <point x="1044" y="934" type="line" smooth="yes"/>
      <point x="1063" y="934"/>
      <point x="1122" y="861"/>
      <point x="1122" y="762" type="curve" smooth="yes"/>
    </contour>
    <contour>
      <point x="760" y="960" type="line"/>
      <point x="760" y="1027"/>
      <point x="787" y="1065"/>
      <point x="845" y="1065" type="curve" smooth="yes"/>
      <point x="917" y="1065"/>
      <point x="982" y="1006"/>
      <point x="1026" y="960" type="curve"/>
    </contour>
    <contour>
      <point x="992" y="1020" type="line"/>
      <point x="992" y="1145" type="line"/>
      <point x="966" y="1145" type="line"/>
      <point x="966" y="1041" type="line"/>
    </contour>
    <contour>
      <point x="1084" y="930" type="line"/>
      <point x="1084" y="1129" type="line"/>
      <point x="1058" y="1129" type="line"/>
      <point x="1058" y="963" type="line"/>
    </contour>
    <contour>
      <point x="1148" y="768" type="line"/>
      <point x="1122" y="768" type="line"/>
      <point x="1122" y="-208" type="line" smooth="yes"/>
      <point x="1122" y="-249"/>
      <point x="1071" y="-291"/>
      <point x="992" y="-291" type="curve" smooth="yes"/>
      <point x="915" y="-291"/>
      <point x="860" y="-249"/>
      <point x="860" y="-208" type="curve" smooth="yes"/>
      <point x="860" y="-49" type="line"/>
      <point x="834" y="-49" type="line"/>
      <point x="834" y="-206" type="line" smooth="yes"/>
      <point x="834" y="-268"/>
      <point x="902" y="-317"/>
      <point x="992" y="-317" type="curve" smooth="yes"/>
      <point x="1083" y="-317"/>
      <point x="1148" y="-268"/>
      <point x="1148" y="-206" type="curve" smooth="yes"/>
    </contour>
  </outline>
</glyph>
<glyph name="uni17C0" format="2">
  <advance width="1186"/>
  <unicode hex="17C0"/>
  <note>
uni17C0
</note>
  <anchor x="911" y="1230" name="abvm"/>
  <anchor x="588" y="45" name="blwm"/>
  <outline>
    <contour>
      <point x="114" y="271" type="line"/>
      <point x="140" y="271" type="line"/>
      <point x="140" y="396" type="line"/>
      <point x="114" y="396" type="line"/>
    </contour>
    <contour>
      <point x="140" y="370" type="line"/>
      <point x="140" y="445" type="line"/>
      <point x="62" y="536" type="line"/>
      <point x="127" y="641" type="line"/>
      <point x="139" y="631"/>
      <point x="172" y="587"/>
      <point x="202" y="587" type="curve" smooth="yes"/>
      <point x="214" y="587"/>
      <point x="224" y="595"/>
      <point x="224" y="612" type="curve"/>
      <point x="193" y="609"/>
      <point x="169" y="634"/>
      <point x="125" y="682" type="curve"/>
      <point x="49" y="568"/>
      <point x="35" y="547"/>
      <point x="35" y="538" type="curve" smooth="yes"/>
      <point x="35" y="528"/>
      <point x="43" y="513"/>
      <point x="114" y="435" type="curve"/>
      <point x="114" y="370" type="line"/>
    </contour>
    <contour>
      <point x="114" y="316" type="line"/>
      <point x="114" y="0" type="line"/>
      <point x="140" y="0" type="line"/>
      <point x="192" y="44"/>
      <point x="220" y="102"/>
      <point x="220" y="147" type="curve" smooth="yes"/>
      <point x="220" y="194"/>
      <point x="188" y="227"/>
      <point x="140" y="225" type="curve"/>
      <point x="140" y="316" type="line"/>
    </contour>
    <contour>
      <point x="140" y="199" type="line"/>
      <point x="168" y="202"/>
      <point x="194" y="190"/>
      <point x="194" y="147" type="curve" smooth="yes"/>
      <point x="194" y="105"/>
      <point x="169" y="64"/>
      <point x="140" y="33" type="curve"/>
    </contour>
    <contour>
      <point x="392" y="320" type="curve" smooth="yes"/>
      <point x="401" y="320"/>
      <point x="408" y="327"/>
      <point x="408" y="336" type="curve" smooth="yes"/>
      <point x="408" y="345"/>
      <point x="401" y="352"/>
      <point x="392" y="352" type="curve" smooth="yes"/>
      <point x="383" y="352"/>
      <point x="376" y="345"/>
      <point x="376" y="336" type="curve" smooth="yes"/>
      <point x="376" y="327"/>
      <point x="383" y="320"/>
    </contour>
    <contour>
      <point x="418" y="421" type="curve" smooth="yes"/>
      <point x="427" y="421"/>
      <point x="434" y="428"/>
      <point x="434" y="437" type="curve" smooth="yes"/>
      <point x="434" y="446"/>
      <point x="427" y="453"/>
      <point x="418" y="453" type="curve" smooth="yes"/>
      <point x="409" y="453"/>
      <point x="402" y="446"/>
      <point x="402" y="437" type="curve" smooth="yes"/>
      <point x="402" y="428"/>
      <point x="409" y="421"/>
    </contour>
    <contour>
      <point x="489" y="491" type="curve" smooth="yes"/>
      <point x="498" y="491"/>
      <point x="505" y="498"/>
      <point x="505" y="507" type="curve" smooth="yes"/>
      <point x="505" y="516"/>
      <point x="498" y="523"/>
      <point x="489" y="523" type="curve" smooth="yes"/>
      <point x="480" y="523"/>
      <point x="473" y="516"/>
      <point x="473" y="507" type="curve" smooth="yes"/>
      <point x="473" y="498"/>
      <point x="480" y="491"/>
    </contour>
    <contour>
      <point x="586" y="515" type="curve" smooth="yes"/>
      <point x="595" y="515"/>
      <point x="602" y="522"/>
      <point x="602" y="531" type="curve" smooth="yes"/>
      <point x="602" y="540"/>
      <point x="595" y="547"/>
      <point x="586" y="547" type="curve" smooth="yes"/>
      <point x="577" y="547"/>
      <point x="570" y="540"/>
      <point x="570" y="531" type="curve" smooth="yes"/>
      <point x="570" y="522"/>
      <point x="577" y="515"/>
    </contour>
    <contour>
      <point x="683" y="491" type="curve" smooth="yes"/>
      <point x="692" y="491"/>
      <point x="699" y="498"/>
      <point x="699" y="507" type="curve" smooth="yes"/>
      <point x="699" y="516"/>
      <point x="692" y="523"/>
      <point x="683" y="523" type="curve" smooth="yes"/>
      <point x="674" y="523"/>
      <point x="667" y="516"/>
      <point x="667" y="507" type="curve" smooth="yes"/>
      <point x="667" y="498"/>
      <point x="674" y="491"/>
    </contour>
    <contour>
      <point x="753" y="419" type="curve" smooth="yes"/>
      <point x="762" y="419"/>
      <point x="769" y="426"/>
      <point x="769" y="435" type="curve" smooth="yes"/>
      <point x="769" y="444"/>
      <point x="762" y="451"/>
      <point x="753" y="451" type="curve" smooth="yes"/>
      <point x="744" y="451"/>
      <point x="737" y="444"/>
      <point x="737" y="435" type="curve" smooth="yes"/>
      <point x="737" y="426"/>
      <point x="744" y="419"/>
    </contour>
    <contour>
      <point x="783" y="320" type="curve" smooth="yes"/>
      <point x="792" y="320"/>
      <point x="799" y="327"/>
      <point x="799" y="336" type="curve" smooth="yes"/>
      <point x="799" y="345"/>
      <point x="792" y="352"/>
      <point x="783" y="352" type="curve" smooth="yes"/>
      <point x="774" y="352"/>
      <point x="767" y="345"/>
      <point x="767" y="336" type="curve" smooth="yes"/>
      <point x="767" y="327"/>
      <point x="774" y="320"/>
    </contour>
    <contour>
      <point x="755" y="226" type="curve" smooth="yes"/>
      <point x="764" y="226"/>
      <point x="771" y="233"/>
      <point x="771" y="242" type="curve" smooth="yes"/>
      <point x="771" y="251"/>
      <point x="764" y="258"/>
      <point x="755" y="258" type="curve" smooth="yes"/>
      <point x="746" y="258"/>
      <point x="739" y="251"/>
      <point x="739" y="242" type="curve" smooth="yes"/>
      <point x="739" y="233"/>
      <point x="746" y="226"/>
    </contour>
    <contour>
      <point x="684" y="154" type="curve" smooth="yes"/>
      <point x="693" y="154"/>
      <point x="700" y="161"/>
      <point x="700" y="170" type="curve" smooth="yes"/>
      <point x="700" y="179"/>
      <point x="693" y="186"/>
      <point x="684" y="186" type="curve" smooth="yes"/>
      <point x="675" y="186"/>
      <point x="668" y="179"/>
      <point x="668" y="170" type="curve" smooth="yes"/>
      <point x="668" y="161"/>
      <point x="675" y="154"/>
    </contour>
    <contour>
      <point x="586" y="126" type="curve" smooth="yes"/>
      <point x="595" y="126"/>
      <point x="602" y="133"/>
      <point x="602" y="142" type="curve" smooth="yes"/>
      <point x="602" y="151"/>
      <point x="595" y="158"/>
      <point x="586" y="158" type="curve" smooth="yes"/>
      <point x="577" y="158"/>
      <point x="570" y="151"/>
      <point x="570" y="142" type="curve" smooth="yes"/>
      <point x="570" y="133"/>
      <point x="577" y="126"/>
    </contour>
    <contour>
      <point x="489" y="153" type="curve" smooth="yes"/>
      <point x="498" y="153"/>
      <point x="505" y="160"/>
      <point x="505" y="169" type="curve" smooth="yes"/>
      <point x="505" y="178"/>
      <point x="498" y="185"/>
      <point x="489" y="185" type="curve" smooth="yes"/>
      <point x="480" y="185"/>
      <point x="473" y="178"/>
      <point x="473" y="169" type="curve" smooth="yes"/>
      <point x="473" y="160"/>
      <point x="480" y="153"/>
    </contour>
    <contour>
      <point x="416" y="225" type="curve" smooth="yes"/>
      <point x="425" y="225"/>
      <point x="432" y="232"/>
      <point x="432" y="241" type="curve" smooth="yes"/>
      <point x="432" y="250"/>
      <point x="425" y="257"/>
      <point x="416" y="257" type="curve" smooth="yes"/>
      <point x="407" y="257"/>
      <point x="400" y="250"/>
      <point x="400" y="241" type="curve" smooth="yes"/>
      <point x="400" y="232"/>
      <point x="407" y="225"/>
    </contour>
    <contour>
      <point x="1060" y="712" type="line"/>
      <point x="1086" y="712" type="line"/>
      <point x="1086" y="801" type="line" smooth="yes"/>
      <point x="1086" y="932"/>
      <point x="1007" y="998"/>
      <point x="908" y="998" type="curve" smooth="yes"/>
      <point x="880" y="998"/>
      <point x="829" y="993"/>
      <point x="770" y="963" type="curve"/>
      <point x="787" y="1029"/>
      <point x="794" y="1061"/>
      <point x="794" y="1103" type="curve" smooth="yes"/>
      <point x="794" y="1177"/>
      <point x="771" y="1187"/>
      <point x="753" y="1187" type="curve" smooth="yes"/>
      <point x="731" y="1187"/>
      <point x="720" y="1172"/>
      <point x="720" y="1152" type="curve"/>
      <point x="750" y="1152"/>
      <point x="769" y="1130"/>
      <point x="769" y="1092" type="curve" smooth="yes"/>
      <point x="769" y="1044"/>
      <point x="739" y="992"/>
      <point x="739" y="961" type="curve" smooth="yes"/>
      <point x="739" y="946"/>
      <point x="746" y="931"/>
      <point x="764" y="931" type="curve" smooth="yes"/>
      <point x="794" y="931"/>
      <point x="827" y="972"/>
      <point x="906" y="972" type="curve" smooth="yes"/>
      <point x="1013" y="972"/>
      <point x="1060" y="896"/>
      <point x="1060" y="812" type="curve" smooth="yes"/>
    </contour>
    <contour>
      <point x="1086" y="768" type="line"/>
      <point x="1060" y="768" type="line"/>
      <point x="1060" y="-208" type="line" smooth="yes"/>
      <point x="1060" y="-249"/>
      <point x="1009" y="-291"/>
      <point x="930" y="-291" type="curve" smooth="yes"/>
      <point x="853" y="-291"/>
      <point x="798" y="-249"/>
      <point x="798" y="-208" type="curve" smooth="yes"/>
      <point x="798" y="-49" type="line"/>
      <point x="772" y="-49" type="line"/>
      <point x="772" y="-206" type="line" smooth="yes"/>
      <point x="772" y="-268"/>
      <point x="840" y="-317"/>
      <point x="930" y="-317" type="curve" smooth="yes"/>
      <point x="1021" y="-317"/>
      <point x="1086" y="-268"/>
      <point x="1086" y="-206" type="curve" smooth="yes"/>
    </contour>
  </outline>
</glyph>
<glyph name="uni17C1" format="2">
  <advance width="289"/>
  <unicode hex="17C1"/>
  <note>
uni17C1
</note>
  <anchor x="56" y="760" name="abvm"/>
  <outline>
    <contour>
      <point x="114" y="271" type="line"/>
      <point x="140" y="271" type="line"/>
      <point x="140" y="396" type="line"/>
      <point x="114" y="396" type="line"/>
    </contour>
    <contour>
      <point x="140" y="370" type="line"/>
      <point x="140" y="445" type="line"/>
      <point x="62" y="536" type="line"/>
      <point x="127" y="641" type="line"/>
      <point x="139" y="631"/>
      <point x="172" y="587"/>
      <point x="202" y="587" type="curve" smooth="yes"/>
      <point x="214" y="587"/>
      <point x="224" y="595"/>
      <point x="224" y="612" type="curve"/>
      <point x="193" y="609"/>
      <point x="169" y="634"/>
      <point x="125" y="682" type="curve"/>
      <point x="49" y="568"/>
      <point x="35" y="547"/>
      <point x="35" y="538" type="curve" smooth="yes"/>
      <point x="35" y="528"/>
      <point x="43" y="513"/>
      <point x="114" y="435" type="curve"/>
      <point x="114" y="370" type="line"/>
    </contour>
    <contour>
      <point x="114" y="316" type="line"/>
      <point x="114" y="0" type="line"/>
      <point x="140" y="0" type="line"/>
      <point x="192" y="44"/>
      <point x="220" y="102"/>
      <point x="220" y="147" type="curve" smooth="yes"/>
      <point x="220" y="194"/>
      <point x="188" y="227"/>
      <point x="140" y="225" type="curve"/>
      <point x="140" y="316" type="line"/>
    </contour>
    <contour>
      <point x="140" y="199" type="line"/>
      <point x="168" y="202"/>
      <point x="194" y="190"/>
      <point x="194" y="147" type="curve" smooth="yes"/>
      <point x="194" y="105"/>
      <point x="169" y="64"/>
      <point x="140" y="33" type="curve"/>
    </contour>
  </outline>
</glyph>
<glyph name="uni17C2" format="2">
  <advance width="305"/>
  <unicode hex="17C2"/>
  <note>
uni17C2
</note>
  <anchor x="56" y="760" name="abvm"/>
  <outline>
    <contour>
      <point x="122" y="843" type="curve"/>
      <point x="127" y="864"/>
      <point x="117" y="870"/>
      <point x="107" y="870" type="curve" smooth="yes"/>
      <point x="94" y="870"/>
      <point x="75" y="853"/>
      <point x="75" y="823" type="curve" smooth="yes"/>
      <point x="75" y="788"/>
      <point x="105" y="760"/>
      <point x="145" y="760" type="curve" smooth="yes"/>
      <point x="198" y="760"/>
      <point x="257" y="807"/>
      <point x="257" y="901" type="curve" smooth="yes"/>
      <point x="257" y="992"/>
      <point x="206" y="1022"/>
      <point x="182" y="1022" type="curve" smooth="yes"/>
      <point x="166" y="1022"/>
      <point x="158" y="1009"/>
      <point x="166" y="989" type="curve"/>
      <point x="217" y="989"/>
      <point x="231" y="931"/>
      <point x="231" y="895" type="curve" smooth="yes"/>
      <point x="231" y="840"/>
      <point x="201" y="786"/>
      <point x="147" y="786" type="curve" smooth="yes"/>
      <point x="110" y="786"/>
      <point x="101" y="812"/>
      <point x="101" y="822" type="curve" smooth="yes"/>
      <point x="101" y="831"/>
      <point x="107" y="843"/>
    </contour>
    <contour>
      <point x="114" y="271" type="line"/>
      <point x="140" y="271" type="line"/>
      <point x="140" y="396" type="line"/>
      <point x="114" y="396" type="line"/>
    </contour>
    <contour>
      <point x="140" y="370" type="line"/>
      <point x="140" y="445" type="line"/>
      <point x="62" y="536" type="line"/>
      <point x="127" y="641" type="line"/>
      <point x="139" y="631"/>
      <point x="172" y="587"/>
      <point x="202" y="587" type="curve" smooth="yes"/>
      <point x="214" y="587"/>
      <point x="224" y="595"/>
      <point x="224" y="612" type="curve"/>
      <point x="193" y="609"/>
      <point x="169" y="634"/>
      <point x="125" y="682" type="curve"/>
      <point x="49" y="568"/>
      <point x="35" y="547"/>
      <point x="35" y="538" type="curve" smooth="yes"/>
      <point x="35" y="528"/>
      <point x="43" y="513"/>
      <point x="114" y="435" type="curve"/>
      <point x="114" y="370" type="line"/>
    </contour>
    <contour>
      <point x="114" y="316" type="line"/>
      <point x="114" y="0" type="line"/>
      <point x="140" y="0" type="line"/>
      <point x="192" y="44"/>
      <point x="220" y="102"/>
      <point x="220" y="147" type="curve" smooth="yes"/>
      <point x="220" y="194"/>
      <point x="188" y="227"/>
      <point x="140" y="225" type="curve"/>
      <point x="140" y="316" type="line"/>
    </contour>
    <contour>
      <point x="140" y="199" type="line"/>
      <point x="168" y="202"/>
      <point x="194" y="190"/>
      <point x="194" y="147" type="curve" smooth="yes"/>
      <point x="194" y="105"/>
      <point x="169" y="64"/>
      <point x="140" y="33" type="curve"/>
    </contour>
  </outline>
</glyph>
<glyph name="uni17C3" format="2">
  <advance width="293"/>
  <unicode hex="17C3"/>
  <note>
uni17C3
</note>
  <anchor x="56" y="760" name="abvm"/>
  <outline>
    <contour>
      <point x="128" y="812" type="curve"/>
      <point x="121" y="821"/>
      <point x="100" y="822"/>
      <point x="100" y="810" type="curve" smooth="yes"/>
      <point x="100" y="780"/>
      <point x="125" y="760"/>
      <point x="154" y="760" type="curve" smooth="yes"/>
      <point x="200" y="760"/>
      <point x="228" y="811"/>
      <point x="228" y="856" type="curve" smooth="yes"/>
      <point x="228" y="915"/>
      <point x="185" y="956"/>
      <point x="139" y="956" type="curve" smooth="yes"/>
      <point x="119" y="956" type="line"/>
      <point x="110" y="996"/>
      <point x="94" y="1012"/>
      <point x="83" y="1012" type="curve" smooth="yes"/>
      <point x="74" y="1012"/>
      <point x="66" y="1004"/>
      <point x="66" y="986" type="curve"/>
      <point x="80" y="986"/>
      <point x="92" y="971"/>
      <point x="97" y="954" type="curve" smooth="yes"/>
      <point x="102" y="938"/>
      <point x="110" y="930"/>
      <point x="125" y="930" type="curve" smooth="yes"/>
      <point x="140" y="930" type="line" smooth="yes"/>
      <point x="180" y="930"/>
      <point x="206" y="895"/>
      <point x="206" y="853" type="curve" smooth="yes"/>
      <point x="206" y="804"/>
      <point x="172" y="786"/>
      <point x="154" y="786" type="curve" smooth="yes"/>
      <point x="141" y="786"/>
      <point x="128" y="794"/>
    </contour>
    <contour>
      <point x="114" y="271" type="line"/>
      <point x="140" y="271" type="line"/>
      <point x="140" y="396" type="line"/>
      <point x="114" y="396" type="line"/>
    </contour>
    <contour>
      <point x="140" y="370" type="line"/>
      <point x="140" y="445" type="line"/>
      <point x="62" y="536" type="line"/>
      <point x="127" y="641" type="line"/>
      <point x="139" y="631"/>
      <point x="172" y="587"/>
      <point x="202" y="587" type="curve" smooth="yes"/>
      <point x="214" y="587"/>
      <point x="224" y="595"/>
      <point x="224" y="612" type="curve"/>
      <point x="193" y="609"/>
      <point x="169" y="634"/>
      <point x="125" y="682" type="curve"/>
      <point x="49" y="568"/>
      <point x="35" y="547"/>
      <point x="35" y="538" type="curve" smooth="yes"/>
      <point x="35" y="528"/>
      <point x="43" y="513"/>
      <point x="114" y="435" type="curve"/>
      <point x="114" y="370" type="line"/>
    </contour>
    <contour>
      <point x="114" y="316" type="line"/>
      <point x="114" y="0" type="line"/>
      <point x="140" y="0" type="line"/>
      <point x="192" y="44"/>
      <point x="220" y="102"/>
      <point x="220" y="147" type="curve" smooth="yes"/>
      <point x="220" y="194"/>
      <point x="188" y="227"/>
      <point x="140" y="225" type="curve"/>
      <point x="140" y="316" type="line"/>
    </contour>
    <contour>
      <point x="140" y="199" type="line"/>
      <point x="168" y="202"/>
      <point x="194" y="190"/>
      <point x="194" y="147" type="curve" smooth="yes"/>
      <point x="194" y="105"/>
      <point x="169" y="64"/>
      <point x="140" y="33" type="curve"/>
    </contour>
  </outline>
</glyph>
